<svg id="_x33_0" enable-background="new 0 0 64 64" height="512" viewBox="0 0 64 64" width="512" xmlns="http://www.w3.org/2000/svg"><g><g><g fill="#f5e0cd"><path d="m22 40v-4.84c0-.39.04-.78.11-1.16h-3.89c-2.33 0-4.22-1.89-4.22-4.22 0-.98.8-1.78 1.78-1.78.15 0 .29.02.43.05 2.42.6 4.88 1.02 7.36 1.22.11.01.21.02.32.03l6.65.51c1.6.12 3.13.73 4.39 1.73l1.43 1.15c1.06.85 2.38 1.31 3.74 1.31h21.9v14h-22.84c-.77 0-1.52.15-2.23.43l-.35.14c-2.37.94-4.89 1.43-7.43 1.43h-7.15z"/><path d="m8 46c1.1 0 2 .9 2 2 0 .55-.22 1.05-.59 1.41-.36.37-.86.59-1.41.59h-2c-1.1 0-2-.9-2-2 0-.55.22-1.05.59-1.41.36-.37.86-.59 1.41-.59z"/><path d="m8 38c1.1 0 2 .9 2 2 0 .55-.22 1.05-.59 1.41-.36.37-.86.59-1.41.59h-2c-1.1 0-2-.9-2-2 0-.55.22-1.05.59-1.41.36-.37.86-.59 1.41-.59z"/><path d="m8 42c1.1 0 2 .9 2 2 0 .55-.22 1.05-.59 1.41-.36.37-.86.59-1.41.59h-2c-1.1 0-2-.9-2-2 0-.55.22-1.05.59-1.41.36-.37.86-.59 1.41-.59z"/><path d="m9.41 37.41c-.36.37-.86.59-1.41.59h-2c-1.1 0-2-.9-2-2 0-.55.22-1.05.59-1.41.36-.37.86-.59 1.41-.59h1.62.38c1.1 0 2 .9 2 2 0 .55-.22 1.05-.59 1.41z"/><path d="m12 6v-2c0-.55.22-1.05.59-1.41.36-.37.86-.59 1.41-.59 1.1 0 2 .9 2 2v2c0-.55.22-1.05.59-1.41.36-.37.86-.59 1.41-.59 1.1 0 2 .9 2 2v4c0-.55.22-1.05.59-1.41.36-.37.86-.59 1.41-.59 1.1 0 2 .9 2 2v15.15c0 1.39-.14 2.77-.43 4.12-2.48-.2-4.94-.62-7.36-1.22-.14-.03-.28-.05-.43-.05-.98 0-1.78.8-1.78 1.78 0 2.33 1.89 4.22 4.22 4.22h3.89c-.07.38-.11.77-.11 1.16v4.84 10 12h-14v-12c.55 0 1.05-.22 1.41-.59.37-.36.59-.86.59-1.41 0-1.1-.9-2-2-2 .55 0 1.05-.22 1.41-.59.37-.36.59-.86.59-1.41 0-1.1-.9-2-2-2 .55 0 1.05-.22 1.41-.59.37-.36.59-.86.59-1.41 0-1.1-.9-2-2-2 .55 0 1.05-.22 1.41-.59.37-.36.59-.86.59-1.41 0-1.1-.9-2-2-2h-.38c-.22-.59-.54-1.14-.93-1.64l-1.15-1.43c-1-1.26-1.61-2.79-1.73-4.39l-.51-6.65c-.2-2.59-.62-5.16-1.25-7.68-.03-.14-.05-.28-.05-.43 0-.98.8-1.78 1.78-1.78 2.33 0 4.22 1.89 4.22 4.22v-8.22c0-.55.22-1.05.59-1.41.36-.37.86-.59 1.41-.59 1.1 0 2 .9 2 2z"/></g><path d="m10 34v16c1.105 0 2 .895 2 2v3.893c0 .996.681 1.92 1.664 2.08 1.253.203 2.336-.758 2.336-1.973v-8c1.105 0 2-.895 2-2v-5.893c0-.996.681-1.92 1.664-2.08 1.253-.203 2.336.758 2.336 1.973v-6z" fill="#69d6f4"/></g><path d="m36.981 31.905-1.432-1.146c-1.417-1.133-3.122-1.806-4.933-1.945l-5.893-.453c.166-1.064.277-2.137.277-3.213v-15.148c0-1.654-1.346-3-3-3-.352 0-.686.072-1 .184v-1.184c0-1.654-1.346-3-3-3-.395 0-.77.081-1.116.22-.345-1.275-1.501-2.22-2.884-2.22s-2.538.945-2.884 2.22c-.346-.139-.721-.22-1.116-.22-1.654 0-3 1.346-3 3v4.143c-.89-.705-1.999-1.143-3.219-1.143-1.533 0-2.781 1.248-2.781 2.781 0 .227.027.453.083.675.615 2.458 1.025 4.985 1.22 7.513l.511 6.649c.14 1.81.812 3.515 1.946 4.933l1.145 1.43c.007.009.012.019.018.027-1.618.042-2.923 1.364-2.923 2.992 0 .771.301 1.468.78 2-.479.532-.78 1.229-.78 2s.301 1.468.78 2c-.479.532-.78 1.229-.78 2s.301 1.468.78 2c-.479.532-.78 1.229-.78 2 0 1.654 1.346 3 3 3h1v12h16v-12h6.148c2.685 0 5.309-.506 7.8-1.503l.35-.14c.594-.237 1.219-.357 1.857-.357h23.845v-16h-22.896c-1.13 0-2.24-.389-3.123-1.095zm-30.981 3.095h2c.552 0 1 .448 1 1s-.448 1-1 1h-2c-.552 0-1-.448-1-1s.448-1 1-1zm-1 9c0-.552.448-1 1-1h2c.552 0 1 .448 1 1s-.448 1-1 1h-2c-.552 0-1-.448-1-1zm0-4c0-.552.448-1 1-1h2c.552 0 1 .448 1 1s-.448 1-1 1h-2c-.552 0-1-.448-1-1zm0 8c0-.552.448-1 1-1h2c.552 0 1 .448 1 1s-.448 1-1 1h-2c-.552 0-1-.448-1-1zm16 13h-12v-10.184c1.161-.414 2-1.514 2-2.816 0-.771-.301-1.468-.78-2 .48-.532.78-1.229.78-2s-.301-1.468-.78-2c.48-.532.78-1.229.78-2s-.301-1.468-.78-2c.48-.532.78-1.229.78-2 0-1.564-1.207-2.837-2.736-2.973-.224-.456-.479-.896-.799-1.295l-1.145-1.43c-.882-1.103-1.404-2.43-1.514-3.837l-.511-6.649c-.203-2.639-.632-5.278-1.273-7.844-.014-.062-.022-.126-.022-.191 0-.43.351-.781.781-.781 1.775 0 3.219 1.444 3.219 3.22v3.942c0 1.52.846 2.885 2.215 3.566 1.101.55 1.785 1.655 1.785 2.885v.387h2v-.387c0-1.993-1.108-3.784-2.901-4.678-.678-.337-1.099-1.017-1.099-1.773v-12.162c0-.552.448-1 1-1s1 .448 1 1v10h2v-12c0-.552.448-1 1-1s1 .448 1 1v12h2v-10c0-.552.448-1 1-1s1 .448 1 1v10h2v-6c0-.552.448-1 1-1s1 .448 1 1v15.148c0 1.016-.107 2.029-.269 3.033-2.113-.221-4.219-.584-6.277-1.099-.22-.055-.446-.082-.673-.082-1.533 0-2.781 1.248-2.781 2.781 0 2.878 2.342 5.219 5.22 5.219h2.788c-.002.052-.008.104-.008.155v2.029c-.314-.112-.648-.184-1-.184-1.654 0-3 1.346-3 3v6c0 .552-.448 1-1 1s-1-.448-1-1v-9h-2v9c0 1.654 1.346 3 3 3s3-1.346 3-3v-6c0-.552.448-1 1-1s1 .448 1 1zm40-14h-21.845c-.895 0-1.769.168-2.601.501l-.35.14c-2.253.902-4.627 1.359-7.056 1.359h-6.148v-13.795c.395.187.733.488.939.903.89 1.784 2.681 2.892 4.674 2.892h.387v-2h-.387c-1.23 0-2.335-.684-2.889-1.794-.677-1.36-2.042-2.206-3.562-2.206h-3.942c-1.776 0-3.22-1.444-3.22-3.219 0-.495.513-.87.97-.759 2.567.643 5.207 1.071 7.847 1.274l6.647.511c1.408.109 2.735.632 3.837 1.513l1.431 1.146c1.236.989 2.789 1.534 4.372 1.534h20.896z"/><path d="m15 56c0 .552-.448 1-1 1s-1-.448-1-1v-3h-2v3c0 1.654 1.346 3 3 3s3-1.346 3-3v-5h-2z"/></g></svg>