<svg id="_x33_0" enable-background="new 0 0 64 64" height="512" viewBox="0 0 64 64" width="512" xmlns="http://www.w3.org/2000/svg"><g><g><g fill="#f5e0cd"><path d="m22 14v2.46c-.6-.12-1.2-.26-1.79-.41-.14-.03-.28-.05-.43-.05-.01 0-.02 0-.04 0-.96 0-1.74.78-1.74 1.75v-3.75c0-.55.22-1.05.59-1.41.36-.37.86-.59 1.41-.59 1.1 0 2 .9 2 2z"/><path d="m19.78 16c.15 0 .29.02.43.05.59.15 1.19.29 1.79.41v.01c1.94.41 3.91.7 5.89.88l3.35.31 1.36.12c1.57.15 3.05.74 4.28 1.72l1.48 1.19c1.06.85 2.38 1.31 3.74 1.31h1.9c-.56 0-1.06.22-1.42.59-.36.36-.58.86-.58 1.41 0 1.1.9 2 2 2h4c1.1 0 2 .9 2 2v4c0 .55.22 1.05.59 1.41.36.37.86.59 1.41.59 1.1 0 2-.9 2-2v-2c0-.55.22-1.05.59-1.41.36-.37.86-.59 1.41-.59 1.1 0 2 .9 2 2v10h-18.84c-.39 0-.78.04-1.16.11h-.01c.01-.04.01-.07.01-.11 0-.83-.25-1.6-.69-2.24 1.56-.54 2.69-2.01 2.69-3.76 0-2.21-1.79-4-4-4 0-2.21-1.79-4-4-4-.16 0-.32.01-.47.03.13-.61.27-1.22.42-1.82.03-.14.05-.28.05-.43v-.04c.02-.96-.75-1.74-1.71-1.74h-.06c-1.06 0-2.04.42-2.76 1.12h-.01c-.21-.19-.45-.32-.74-.37-1.19-.24-3.04-.61-4.72-.94-.27-.05-.53-.1-.78-.15-.94-.18-1.74-.68-2.31-1.38-.57-.69-.91-1.58-.91-2.53 0-.97.78-1.75 1.74-1.75z"/><path d="m8 36c.55 0 1.05-.22 1.41-.59.37-.36.59-.86.59-1.41 0-1.1-.9-2-2-2 .55 0 1.05-.22 1.41-.59.37-.36.59-.86.59-1.41v-4-4-4-4c0-1.1.9-2 2-2 .55 0 1.05.22 1.41.59.37.36.59.86.59 1.41v-2c0-1.1.9-2 2-2 .55 0 1.05.22 1.41.59.37.36.59.86.59 1.41v2 3.75c0 .95.34 1.84.91 2.53.57.7 1.37 1.2 2.31 1.38.25.05.51.1.78.15v8.54c0 .91.74 1.65 1.65 1.65.78 0 1.46-.55 1.61-1.32.28-1.39.73-3.64 1.09-5.5.16-.8.55-1.52 1.11-2.06h.01c.72-.7 1.7-1.12 2.76-1.12h.06c.96 0 1.73.78 1.71 1.74v.04c0 .15-.02.29-.05.43-.15.6-.29 1.21-.42 1.82-.41 1.93-.71 3.89-.88 5.86l-.43 4.71c-.14 1.57-.74 3.05-1.72 4.28l-1.19 1.48c-.85 1.06-1.31 2.38-1.31 3.74v2.9 13h-18v-18.84c0-.77-.15-1.52-.43-2.23l-.14-.35c-.59-1.48-1-3.01-1.23-4.58z"/><path d="m8 20c1.1 0 2 .9 2 2 0 .55-.22 1.05-.59 1.41-.36.37-.86.59-1.41.59h-4c-1.1 0-2-.9-2-2 0-.55.22-1.05.59-1.41.36-.37.86-.59 1.41-.59h2z"/><path d="m8 28c1.1 0 2 .9 2 2 0 .55-.22 1.05-.59 1.41-.36.37-.86.59-1.41.59h-4c-1.1 0-2-.9-2-2 0-.55.22-1.05.59-1.41.36-.37.86-.59 1.41-.59z"/><path d="m8 32c1.1 0 2 .9 2 2 0 .55-.22 1.05-.59 1.41-.36.37-.86.59-1.41.59h-1.8-2.2c-1.1 0-2-.9-2-2 0-.55.22-1.05.59-1.41.36-.37.86-.59 1.41-.59z"/><path d="m8 24c1.1 0 2 .9 2 2 0 .55-.22 1.05-.59 1.41-.36.37-.86.59-1.41.59h-4c-1.1 0-2-.9-2-2 0-.55.22-1.05.59-1.41.36-.37.86-.59 1.41-.59z"/><path d="m8 20h-2v-.54-1.46c0-1.1.9-2 2-2 .55 0 1.05.22 1.41.59.37.36.59.86.59 1.41v4c0-1.1-.9-2-2-2z"/></g><path d="m26.72 22.75c.29.05.53.18.74.37-.56.54-.95 1.26-1.11 2.06-.36 1.86-.81 4.11-1.09 5.5-.15.77-.83 1.32-1.61 1.32-.91 0-1.65-.74-1.65-1.65v-8.54c1.68.33 3.53.7 4.72.94z" fill="#69d6f4"/><path d="m40 34c0 1.75-1.13 3.22-2.69 3.76.44.64.69 1.41.69 2.24 0 .04 0 .07-.01.11-.05 2.16-1.82 3.89-3.99 3.89-.04 0-.07-.01-.1-.01.06.33.1.66.1 1.01 0 2.76-2.24 5-5 5-1.13 0-2.16-.37-3-1v-2.9c0-1.36.46-2.68 1.31-3.74l1.19-1.48c.98-1.23 1.58-2.71 1.72-4.28l.43-4.71c.17-1.97.47-3.93.88-5.86.15-.02.31-.03.47-.03 2.21 0 4 1.79 4 4 2.21 0 4 1.79 4 4z" fill="#69d6f4"/><path d="m62 22.34v17.66c0 1.1-.9 2-2 2-.55 0-1.05-.22-1.41-.59-.37-.36-.59-.86-.59-1.41v-10c0-1.1-.9-2-2-2-.55 0-1.05.22-1.41.59-.37.36-.59.86-.59 1.41v2c0 1.1-.9 2-2 2-.55 0-1.05-.22-1.41-.59-.37-.36-.59-.86-.59-1.41v-4c0-1.1-.9-2-2-2h-4c-1.1 0-2-.9-2-2 0-.55.22-1.05.58-1.41.36-.37.86-.59 1.42-.59.59 0 1.1-.4 1.24-.97l.19-.76c.34-1.33 1.54-2.27 2.91-2.27h1.05c.4 0 .79-.12 1.11-.34l1.6-1.06c.59-.39 1.28-.6 1.98-.6 1.2 0 2.32.6 2.98 1.59l.51.77c.28.41.7.71 1.18.83l.98.24c1.33.34 2.27 1.54 2.27 2.91z" fill="#69d6f4"/><path d="m8 16c-1.1 0-2 .9-2 2v1.46c-1.2-.69-2-1.98-2-3.46 0-1.75 1.13-3.22 2.69-3.76-.44-.64-.69-1.41-.69-2.24 0-2.21 1.79-4 4-4 .03 0 .07.01.1.01.46-2.29 2.48-4.01 4.9-4.01 1.78 0 3.33.94 4.22 2.34.55-.21 1.15-.34 1.78-.34 2.76 0 5 2.24 5 5 0 .4-.06.78-.14 1.14.36-.08.74-.14 1.14-.14 2.76 0 5 2.24 5 5 0 .98-.28 1.89-.76 2.66l-3.35-.31c-1.98-.18-3.95-.47-5.89-.88v-.01-2.46c0-1.1-.9-2-2-2-.55 0-1.05.22-1.41.59-.37.36-.59.86-.59 1.41v-2c0-.55-.22-1.05-.59-1.41-.36-.37-.86-.59-1.41-.59 1.1 0 2-.9 2-2s-.9-2-2-2-2 .9-2 2 .9 2 2 2c-1.1 0-2 .9-2 2v2c0-.55-.22-1.05-.59-1.41-.36-.37-.86-.59-1.41-.59-1.1 0-2 .9-2 2v4c0-.55-.22-1.05-.59-1.41-.36-.37-.86-.59-1.41-.59z" fill="#69d6f4"/><circle cx="16" cy="8" fill="#3bafda" r="2"/></g><path d="m59.971 18.462-.979-.245c-.241-.061-.45-.208-.589-.416l-.509-.762c-.851-1.277-2.276-2.039-3.81-2.039-.907 0-1.785.266-2.541.769l-1.595 1.063c-.164.11-.355.168-.553.168h-1.052c-1.839 0-3.436 1.246-3.882 3.031l-.188.754c-.032.127-.145.215-.274.215-.002 0-.003 0-.005 0h-1.89c-1.132 0-2.241-.389-3.123-1.096l-1.479-1.183c-1.375-1.101-3.029-1.767-4.784-1.932.182-.575.282-1.176.282-1.789 0-3.309-2.691-6-6-6 0-3.309-2.691-6-6-6-.464 0-.93.058-1.394.173-1.133-1.373-2.805-2.173-4.606-2.173-2.578 0-4.85 1.66-5.672 4.045-2.44.329-4.328 2.426-4.328 4.955 0 .618.112 1.223.33 1.791-1.427.901-2.33 2.481-2.33 4.209 0 1.097.366 2.146 1.006 3h-.006c-1.654 0-3 1.346-3 3 0 .771.301 1.468.78 2-.479.532-.78 1.229-.78 2s.301 1.468.78 2c-.479.532-.78 1.229-.78 2s.301 1.468.78 2c-.479.532-.78 1.229-.78 2 0 1.654 1.346 3 3 3h1.364c.252 1.348.629 2.673 1.139 3.948l.14.35c.237.594.357 1.219.357 1.857v19.845h20v-12.349c.636.226 1.308.349 2 .349 3.309 0 6-2.691 6-6 0-.033 0-.066-.001-.101 1.947-.396 3.475-1.93 3.884-3.872.091-.005.182-.026.272-.026l18.029-.001c.414 1.161 1.514 2 2.816 2 1.654 0 3-1.346 3-3v-17.658c0-1.839-1.246-3.435-3.029-3.88zm-52.955-5.279 1.226-.429-.728-1.075c-.336-.497-.514-1.077-.514-1.679 0-1.638 1.32-2.974 2.952-3l.962.033.166-.826c.374-1.858 2.023-3.207 3.92-3.207 1.372 0 2.634.701 3.375 1.875l.438.694.766-.294c2.72-1.045 5.421 1.052 5.421 3.725 0 .282-.038.581-.117.914l-.37 1.572 1.572-.369c.336-.079.635-.117.915-.117 2.206 0 4 1.794 4 4 0 .556-.116 1.1-.336 1.602l-2.685-.244c-1.666-.151-3.331-.397-4.979-.718v-1.64c0-1.654-1.346-3-3-3-.395 0-.77.081-1.116.22-.125-.461-.354-.876-.665-1.22.48-.532.781-1.229.781-2 0-1.654-1.346-3-3-3s-3 1.346-3 3c0 .771.301 1.468.78 2-.311.345-.54.76-.664 1.22-.346-.139-.721-.22-1.116-.22-1.654 0-3 1.346-3 3v1.184c-.314-.112-.648-.184-1-.184-1.296 0-2.393.831-2.811 1.985-.111-.315-.189-.642-.189-.985 0-1.263.811-2.395 2.016-2.817zm7.984-5.183c0-.551.448-1 1-1s1 .449 1 1-.448 1-1 1-1-.449-1-1zm4 6c0-.551.448-1 1-1s1 .449 1 1v1.209c-.182-.043-.365-.08-.546-.125-.221-.055-.446-.083-.654-.083 0 0-.001 0-.002 0-.266-.002-.535.048-.798.124zm-11 17h-4c-.552 0-1-.449-1-1s.448-1 1-1h4c.552 0 1 .449 1 1s-.448 1-1 1zm-5-5c0-.551.448-1 1-1h4c.552 0 1 .449 1 1s-.448 1-1 1h-4c-.552 0-1-.449-1-1zm6-6.816c-.314-.112-.648-.184-1-.184h-1v-1c0-.551.448-1 1-1s1 .449 1 1zm-5 1.816h4c.552 0 1 .449 1 1s-.448 1-1 1h-4c-.552 0-1-.449-1-1s.448-1 1-1zm-1 13c0-.552.448-1 1-1h4c.552 0 1 .448 1 1s-.448 1-1 1h-4c-.552 0-1-.448-1-1zm22 27h-16v-17.845c0-.895-.168-1.769-.501-2.601l-.14-.35c-.414-1.037-.737-2.111-.963-3.204h.604c1.654 0 3-1.346 3-3 0-.771-.301-1.468-.78-2 .48-.532.78-1.229.78-2v-16c0-.551.448-1 1-1s1 .449 1 1v13h2v-15c0-.551.448-1 1-1s1 .449 1 1v15h2v-5.282c.58.438 1.252.764 2 .914v7.719c0 1.461 1.188 2.649 2.648 2.649 1.259 0 2.351-.894 2.596-2.126.277-1.393.724-3.639 1.086-5.499.269-1.376 1.487-2.375 2.963-2.375.191 0 .37.075.505.211.135.137.207.318.202.569 0 .064-.008.126-.023.19-.641 2.562-1.087 5.196-1.326 7.827l-.429 4.717c-.124 1.37-.645 2.663-1.506 3.738l-1.183 1.479c-.988 1.237-1.533 2.79-1.533 4.373zm-2-37.972c1.032.204 2.049.405 2.883.571-.234.431-.419.894-.516 1.394-.362 1.856-.807 4.1-1.084 5.491-.059.299-.326.516-.635.516-.357 0-.648-.291-.648-.648zm13.486 15.293c.336.496.514 1.076.514 1.679 0 1.638-1.319 2.974-2.951 3l-1.386-.045.255 1.236c.055.264.082.537.082.809 0 2.206-1.794 4-4 4-.713 0-1.394-.194-2-.547v-2.349c0-1.131.389-2.24 1.096-3.123l1.182-1.479c1.107-1.383 1.776-3.045 1.937-4.808l.429-4.717c.15-1.654.394-3.307.711-4.942 1.485.178 2.645 1.432 2.645 2.965v1h1c1.654 0 3 1.346 3 3 0 1.263-.811 2.395-2.016 2.816l-1.227.43zm2.41.693c-.055-.274-.127-.544-.226-.804 1.428-.902 2.33-2.482 2.33-4.21 0-2.444-1.763-4.484-4.084-4.916-.385-2.07-2.052-3.687-4.141-4.014.048-.203.089-.408.14-.61.057-.22.085-.449.086-.703.013-.733-.264-1.425-.777-1.948-.513-.521-1.199-.809-1.995-.809-1.055 0-2.035.348-2.85.923-.151-.061-.3-.126-.461-.158-1.382-.275-3.636-.723-5.508-1.088-1.396-.272-2.41-1.504-2.41-2.927 0-.203.08-.392.225-.534.141-.139.326-.214.54-.214.072.006.139.007.206.023 2.561.641 5.194 1.086 7.826 1.326l4.717.429c1.372.125 2.665.645 3.739 1.505l1.479 1.183c1 .801 2.212 1.293 3.476 1.458-.13.333-.208.694-.208 1.074 0 1.654 1.346 3 3 3h4c.552 0 1 .449 1 1v4c0 1.654 1.346 3 3 3s3-1.346 3-3v-2c0-.551.448-1 1-1s1 .449 1 1v9l-17.845.001c-.086 0-.172.009-.259.013zm22.104.986c0 .552-.448 1-1 1s-1-.448-1-1v-10c0-1.654-1.346-3-3-3s-3 1.346-3 3v2c0 .551-.448 1-1 1s-1-.449-1-1v-4c0-1.654-1.346-3-3-3h-4c-.552 0-1-.449-1-1 0-.55.447-.998.998-.999h.001.001c1.047-.001 1.957-.711 2.214-1.73l.188-.755c.223-.893 1.021-1.516 1.941-1.516h1.052c.596 0 1.171-.174 1.664-.504l1.594-1.062c1.147-.763 2.815-.429 3.578.716l.508.761c.415.623 1.043 1.066 1.769 1.248l.979.245c.89.221 1.513 1.019 1.513 1.938z"/></g></svg>