<svg id="_x33_0" enable-background="new 0 0 64 64" height="512" viewBox="0 0 64 64" width="512" xmlns="http://www.w3.org/2000/svg"><g><g><path d="m40 30.95c-1.15 1.03-2.51 1.84-4 2.37-1.25.44-2.6.68-4 .68s-2.75-.24-4-.68c-1.49-.53-2.85-1.34-4-2.37-2.46-2.2-4-5.39-4-8.95 0-9 12-20 12-20s12 11 12 20c0 3.56-1.54 6.75-4 8.95z" fill="#69d6f4"/><g fill="#f5e0cd"><path d="m48 32.22c0-2.33 1.89-4.22 4.22-4.22.98 0 1.78.8 1.78 1.78 0 .15-.02.29-.05.43-.63 2.52-1.05 5.09-1.25 7.68l-.51 6.65c-.12 1.6-.73 3.13-1.73 4.39l-1.15 1.43c-.85 1.06-1.31 2.38-1.31 3.74v7.9h-14v-8.84c0-.77-.15-1.52-.43-2.23l-.14-.35c-.94-2.37-1.43-4.89-1.43-7.43v-9.15c1.4 0 2.75-.24 4-.68 1.49-.53 2.85-1.34 4-2.37 2.46-2.2 4-5.39 4-8.95v2c0-1.1.9-2 2-2 .55 0 1.05.22 1.41.59.37.36.59.86.59 1.41z"/><path d="m20 22c0 3.56 1.54 6.75 4 8.95 1.15 1.03 2.51 1.84 4 2.37 1.25.44 2.6.68 4 .68v9.15c0 2.54-.49 5.06-1.43 7.43l-.14.35c-.28.71-.43 1.46-.43 2.23v8.84h-14v-7.9c0-1.36-.46-2.68-1.31-3.74l-1.15-1.43c-1-1.26-1.61-2.79-1.73-4.39l-.51-6.65c-.2-2.59-.62-5.16-1.25-7.68-.03-.14-.05-.28-.05-.43 0-.98.8-1.78 1.78-1.78 2.33 0 4.22 1.89 4.22 4.22v-8.22c0-.55.22-1.05.59-1.41.36-.37.86-.59 1.41-.59 1.1 0 2 .9 2 2z"/></g></g><path d="m49 54.104c0-1.131.389-2.24 1.096-3.124l1.145-1.431c1.134-1.417 1.807-3.123 1.946-4.932l.512-6.649c.194-2.527.604-5.055 1.22-7.516.053-.219.081-.446.081-.671 0-1.533-1.248-2.781-2.781-2.781-1.22 0-2.329.438-3.219 1.143v-4.143c0-1.654-1.346-3-3-3-.364 0-.708.075-1.031.194-.64-9.145-11.805-19.483-12.293-19.931l-.676-.619-.676.619c-.489.448-11.654 10.786-12.293 19.931-.323-.119-.667-.194-1.031-.194-1.654 0-3 1.346-3 3v4.143c-.89-.705-1.999-1.143-3.219-1.143-1.533 0-2.781 1.248-2.781 2.781 0 .226.028.452.083.675.615 2.459 1.025 4.987 1.219 7.514l.512 6.649c.139 1.81.812 3.515 1.946 4.932l1.145 1.431c.706.883 1.095 1.992 1.095 3.122v6.896h-14v2h62v-2h-14zm-3-31.104c.551 0 1 .449 1 1v12.163c0 .755-.421 1.435-1.108 1.777-1.784.889-2.892 2.68-2.892 4.673v.387h2v-.387c0-1.229.684-2.334 1.793-2.888 1.361-.678 2.207-2.043 2.207-3.562v-3.943c0-1.775 1.444-3.22 3.219-3.22.431 0 .781.35.781.781 0 .063-.008.127-.023.189-.642 2.568-1.07 5.208-1.273 7.846l-.512 6.649c-.108 1.408-.631 2.734-1.513 3.836l-1.145 1.431c-.989 1.236-1.534 2.789-1.534 4.372v6.896h-12v-7.845c0-.895-.168-1.77-.5-2.599l-.141-.352c-.902-2.253-1.359-4.627-1.359-7.056v-8.199c.683-.052 1.35-.158 2-.313v1.364h2v-2.003c.702-.293 1.367-.653 2-1.06v3.063h2v-4.641c.764-.734 1.433-1.562 2-2.463v7.104h2v-12c0-.551.449-1 1-1zm-14.502 27.948c.191-.477.348-.964.502-1.451.155.486.311.972.502 1.45l.141.352c.237.593.357 1.217.357 1.856v7.845h-2v-7.845c0-.639.12-1.264.358-1.857zm.502-47.562c2.49 2.45 11 11.353 11 18.614 0 6.065-4.935 11-11 11s-11-4.935-11-11c0-7.253 8.51-16.163 11-18.614zm-16.534 46.346-1.145-1.432c-.882-1.102-1.405-2.428-1.513-3.835l-.512-6.649c-.203-2.638-.631-5.278-1.272-7.844-.016-.064-.024-.128-.024-.191 0-.431.35-.781.781-.781 1.775 0 3.219 1.444 3.219 3.22v3.943c0 1.52.846 2.884 2.215 3.567 1.101.548 1.785 1.653 1.785 2.883v.387h2v-.387c0-1.993-1.108-3.784-2.902-4.678-.677-.338-1.098-1.017-1.098-1.772v-12.163c0-.551.449-1 1-1s1 .449 1 1v12h2v-7.103c.567.901 1.236 1.728 2 2.463v4.64h2v-3.063c.633.407 1.298.767 2 1.06v2.003h2v-1.363c.65.154 1.317.26 2 .313v8.199c0 2.429-.457 4.803-1.359 7.057l-.14.35c-.333.83-.501 1.704-.501 2.599v7.845h-12v-6.896c0-1.583-.545-3.136-1.534-4.372z"/><path d="m40.343 25.376-1.853-.753c-.256.629-.603 1.219-1.03 1.751l1.56 1.252c.549-.683.994-1.44 1.323-2.25z"/><path d="m38.946 22.876 1.984.248c.047-.37.07-.748.07-1.124 0-1.551-.502-3.379-1.492-5.434l-1.802.868c.858 1.782 1.294 3.318 1.294 4.566 0 .296-.019.589-.054.876z"/><path d="m11 7v2h-2v2h2v2h2v-2h2v-2h-2v-2z"/><path d="m45 3v2h-2v2h2v2h2v-2h2v-2h-2v-2z"/><path d="m5 19v4l-3.996-.016-.008 2 4 .016.008-2h1.996v-4z"/><path d="m7 23h4v2h-4z"/><path d="m5 25h2v4h-2z"/><path d="m57 17v4l-3.996-.016-.008 2 4 .016.008-2h1.996v-4z"/><path d="m59 21h4v2h-4z"/><path d="m57 23h2v4h-2z"/></g></svg>