<svg id="_x33_0" enable-background="new 0 0 64 64" height="512" viewBox="0 0 64 64" width="512" xmlns="http://www.w3.org/2000/svg"><g><g><path d="m48 46v12c0 2.21-1.79 4-4 4-1.1 0-2.1-.45-2.83-1.17-.72-.73-1.17-1.73-1.17-2.83v-12z" fill="#b27946"/><path d="m48 41.54v4.46h-8v-4.46c1.29.31 2.63.46 4 .46s2.71-.15 4-.46z" fill="#b27946"/><path d="m40 41.54c-2.59-.58-4.97-1.72-7-3.3-4.26-3.29-7-8.44-7-14.24 0-5.02 2.06-9.57 5.38-12.83 3.25-3.19 7.7-5.17 12.62-5.17 9.94 0 18 8.06 18 18 0 8.57-5.98 15.73-14 17.54-1.29.31-2.63.46-4 .46s-2.71-.15-4-.46z" fill="#fcd770"/><path d="m30 24c0-7.73 6.27-14 14-14s14 6.27 14 14-6.27 14-14 14-14-6.27-14-14z" fill="#5cd6b3"/><g fill="#ff826e"><circle cx="40" cy="16" r="2"/><path d="m44.12 25.88c.54.54.88 1.29.88 2.12s-.34 1.58-.88 2.12-1.29.88-2.12.88-1.58-.34-2.12-.88-.88-1.29-.88-2.12.34-1.58.88-2.12 1.29-.88 2.12-.88 1.58.34 2.12.88z"/><circle cx="52" cy="22" r="2"/></g><path d="m31.38 11.17c-3.32 3.26-5.38 7.81-5.38 12.83v-10-1c0-1.66 1.34-3 3-3 .97 0 1.83.46 2.38 1.17z" fill="#f5e0cd"/><path d="m26 14v10c0 5.8 2.74 10.95 7 14.24v.77c0 1.96-.46 3.91-1.34 5.67l-1.66 3.32v14h-20v-11.78c0-1.43-.51-2.82-1.44-3.91l-1.67-1.94c-1.87-2.17-2.89-4.94-2.89-7.81v-5.66c0-3.24-.62-6.44-1.82-9.45-.12-.3-.18-.61-.18-.93 0 0 0 0 0-.01 0-1.38 1.12-2.51 2.53-2.51h.09c1.28 0 2.46.45 3.38 1.2v-.01-10.19c0-1.66 1.34-3 3-3 .83 0 1.58.34 2.12.88s.88 1.29.88 2.12v-4c0-1.66 1.34-3 3-3 .83 0 1.58.34 2.12.88s.88 1.29.88 2.12v4c0-.83.34-1.58.88-2.12s1.29-.88 2.12-.88c1.66 0 3 1.34 3 3v4z" fill="#f5e0cd"/></g><path d="m49 22c0 1.654 1.346 3 3 3s3-1.346 3-3-1.346-3-3-3-3 1.346-3 3zm4 0c0 .551-.449 1-1 1s-1-.449-1-1 .449-1 1-1 1 .449 1 1z"/><path d="m44 9c-8.271 0-15 6.729-15 15s6.729 15 15 15 15-6.729 15-15-6.729-15-15-15zm0 28c-7.168 0-13-5.832-13-13s5.832-13 13-13 13 5.832 13 13-5.832 13-13 13z"/><path d="m44 5c-4.836 0-9.241 1.831-12.599 4.817-.685-.519-1.516-.817-2.401-.817-.732 0-1.409.212-2 .556v-.556c0-2.206-1.794-4-4-4-.732 0-1.409.212-2 .556v-.556c0-2.206-1.794-4-4-4s-4 1.794-4 4v.556c-.591-.344-1.268-.556-2-.556-2.206 0-4 1.794-4 4v8.464c-.762-.303-1.593-.464-2.471-.464-1.946 0-3.529 1.577-3.529 3.516 0 .449.084.888.251 1.306 1.161 2.9 1.749 5.954 1.749 9.079v5.66c0 3.101 1.111 6.105 3.13 8.46l1.667 1.944c.776.906 1.203 2.062 1.203 3.255v12.78h22v-14.764l1.556-3.111c.783-1.568 1.241-3.292 1.381-5.039 1.553.976 3.253 1.729 5.063 2.224v2.69h-2v2h2v11c0 2.757 2.243 5 5 5s5-2.243 5-5v-11h2v-2h-2v-2.69c8.055-2.203 14-9.566 14-18.31 0-10.477-8.523-19-19-19zm-15 6c.341 0 .665.092.954.25-1.173 1.291-2.169 2.739-2.954 4.316v-2.566c0-1.103.897-2 2-2zm3 28.006c0 1.804-.426 3.611-1.233 5.225l-1.767 3.533v13.236h-18v-10.78c0-1.67-.599-3.288-1.685-4.556l-1.667-1.944c-1.708-1.993-2.648-4.535-2.648-7.159v-5.66c0-3.38-.637-6.685-1.892-9.822-.071-.18-.108-.37-.108-.564 0-.835.686-1.515 1.62-1.515 1.17 0 2.27.456 3.098 1.283.826.827 1.282 1.927 1.282 3.098v6.237l.975.487c1.866.934 3.025 2.809 3.025 4.895h2c0-2.799-1.528-5.321-4-6.617v-5.002c0-1.704-.663-3.307-1.869-4.512-.042-.042-.088-.078-.131-.119v-9.75c0-1.103.897-2 2-2s2 .897 2 2v4h-2v2h2v7h2v-17c0-1.103.897-2 2-2s2 .897 2 2v4h-2v2h2v4h-2v2h2v5h2v-13c0-1.103.897-2 2-2s2 .897 2 2v4h-2v2h2v9c0 5.928 2.732 11.228 7 14.715zm15 18.994c0 1.654-1.346 3-3 3s-3-1.346-3-3v-11h6zm0-13h-6v-2.261c.98.157 1.977.261 3 .261s2.02-.104 3-.261zm-3-4c-9.374 0-17-7.626-17-17s7.626-17 17-17 17 7.626 17 17-7.626 17-17 17z"/><path d="m45.433 25.981 1.517-1.517-1.414-1.414-1.517 1.517c-.316-.186-.656-.33-1.019-.425v-2.142h-2v2.142c-.363.094-.704.238-1.019.425l-1.517-1.517-1.414 1.414 1.517 1.517c-.186.316-.33.656-.425 1.019h-2.142v2h2.142c.094.363.238.704.425 1.019l-1.517 1.517 1.414 1.414 1.517-1.517c.316.186.656.33 1.019.425v2.142h2v-2.142c.363-.094.704-.238 1.019-.425l1.517 1.517 1.414-1.414-1.517-1.517c.186-.316.33-.656.425-1.019h2.142v-2h-2.142c-.094-.363-.238-.704-.425-1.019zm-3.433 4.019c-1.103 0-2-.897-2-2s.897-2 2-2 2 .897 2 2-.897 2-2 2z"/><circle cx="48" cy="16" r="1"/><circle cx="34" cy="23" r="1"/><circle cx="51" cy="31" r="1"/><path d="m40 19c1.654 0 3-1.346 3-3s-1.346-3-3-3-3 1.346-3 3 1.346 3 3 3zm0-4c.551 0 1 .449 1 1s-.449 1-1 1-1-.449-1-1 .449-1 1-1z"/></g></svg>