<svg id="_x33_0" enable-background="new 0 0 64 64" height="512" viewBox="0 0 64 64" width="512" xmlns="http://www.w3.org/2000/svg"><g><g><path d="m42 62h-40v-16h14l.25-.33c1.74-2.33 4.42-3.78 7.33-3.98l6.52-.43c.89-.06 1.79-.15 2.67-.26 1.69-.22 3.37-.54 5.02-.95.14-.03.28-.05.43-.05.98 0 1.78.8 1.78 1.78 0 2.33-1.89 4.22-4.22 4.22h10.22c.55 0 1.05.22 1.41.59.34.33.56.79.58 1.29.01.04.01.08.01.12 0 1.1-.9 2-2 2h2c.55 0 1.05.22 1.41.59.37.36.59.86.59 1.41 0 1.1-.9 2-2 2h-2c.55 0 1.05.22 1.41.59.37.36.59.86.59 1.41 0 1.1-.9 2-2 2h-4c.55 0 1.05.22 1.41.59.37.36.59.86.59 1.41 0 1.1-.9 2-2 2z" fill="#f5e0cd"/><path d="m62 32c0 8.16-6.11 14.89-14 15.88h-.01c-.02-.5-.24-.96-.58-1.29-.36-.37-.86-.59-1.41-.59h-10.22c2.33 0 4.22-1.89 4.22-4.22 0-.98-.8-1.78-1.78-1.78-.15 0-.29.02-.43.05-1.65.41-3.33.73-5.02.95-1.75-2.56-2.77-5.66-2.77-9 0-13 16-30 16-30s16 17 16 30z" fill="#5cd6b3"/><path d="m48 30c0 1.1.9 2 2 2 .19 0 .36-.03.53-.07-.09.11-.19.21-.29.31-1.08 1.09-2.58 1.76-4.24 1.76s-3.16-.67-4.24-1.76c-.1-.1-.2-.2-.29-.31.17.04.34.07.53.07 1.1 0 2-.9 2-2s-.9-2-2-2c-.85 0-1.57.53-1.86 1.27-.09-.41-.14-.83-.14-1.27 0-1.66.67-3.16 1.76-4.24 1.04-1.05 2.46-1.7 4.04-1.75-1.01.1-1.8.96-1.8 1.99 0 1.1.9 2 2 2s2-.9 2-2c0-1.03-.79-1.89-1.8-1.99 1.58.05 3 .7 4.04 1.75 1.09 1.08 1.76 2.58 1.76 4.24 0 .44-.05.86-.14 1.27-.29-.74-1.01-1.27-1.86-1.27-1.1 0-2 .9-2 2z" fill="#ff826e"/><g fill="#ffeaa7"><path d="m50 32c-1.1 0-2-.9-2-2s.9-2 2-2c.85 0 1.57.53 1.86 1.27-.21 1-.68 1.91-1.33 2.66-.17.04-.34.07-.53.07z"/><path d="m44 30c0 1.1-.9 2-2 2-.19 0-.36-.03-.53-.07-.65-.75-1.12-1.66-1.33-2.66.29-.74 1.01-1.27 1.86-1.27 1.1 0 2 .9 2 2z"/><path d="m46.2 22.01c1.01.1 1.8.96 1.8 1.99 0 1.1-.9 2-2 2s-2-.9-2-2c0-1.03.79-1.89 1.8-1.99.06-.01.13-.01.2-.01s.14 0 .2.01z"/></g><circle cx="10" cy="8" fill="#ff826e" r="2"/><path d="m25 10c1.66 0 3-1.34 3-3 0-1.16-.65-2.15-1.6-2.66.49-.22 1.03-.34 1.6-.34 1.1 0 2.1.45 2.83 1.17.72.73 1.17 1.73 1.17 2.83s-.45 2.1-1.17 2.83c-.73.72-1.73 1.17-2.83 1.17s-2.1-.45-2.83-1.17c-.25-.25-.47-.54-.64-.85l.01-.01c.15.02.3.03.46.03z" fill="#ffeaa7"/><path d="m28 7c0 1.66-1.34 3-3 3-.16 0-.31-.01-.46-.03l-.01.01c-.34-.59-.53-1.26-.53-1.98 0-1.1.45-2.1 1.17-2.83.35-.35.77-.63 1.23-.83.95.51 1.6 1.5 1.6 2.66z" fill="#ffeaa7"/><path d="m10 22c0 1.1.9 2 2 2s2-.9 2-2c0-1.03-.79-1.89-1.8-1.99 1.58.05 3 .7 4.04 1.75 1.09 1.08 1.76 2.58 1.76 4.24 0 .44-.05.86-.14 1.27-.29-.74-1.01-1.27-1.86-1.27-1.1 0-2 .9-2 2s.9 2 2 2c.19 0 .36-.03.53-.07-.09.11-.19.21-.29.31-1.08 1.09-2.58 1.76-4.24 1.76s-3.16-.67-4.24-1.76c-.1-.1-.2-.2-.29-.31.17.04.34.07.53.07 1.1 0 2-.9 2-2s-.9-2-2-2c-.85 0-1.57.53-1.86 1.27-.09-.41-.14-.83-.14-1.27 0-1.66.67-3.16 1.76-4.24 1.04-1.05 2.46-1.7 4.04-1.75-1.01.1-1.8.96-1.8 1.99z" fill="#ff826e"/><path d="m10 28c0 1.1-.9 2-2 2-.19 0-.36-.03-.53-.07-.65-.75-1.12-1.66-1.33-2.66.29-.74 1.01-1.27 1.86-1.27 1.1 0 2 .9 2 2z" fill="#ffeaa7"/><path d="m10 22c0-1.03.79-1.89 1.8-1.99.06-.01.13-.01.2-.01s.14 0 .2.01c1.01.1 1.8.96 1.8 1.99 0 1.1-.9 2-2 2s-2-.9-2-2z" fill="#ffeaa7"/><path d="m17.86 27.27c-.21 1-.68 1.91-1.33 2.66-.17.04-.34.07-.53.07-1.1 0-2-.9-2-2s.9-2 2-2c.85 0 1.57.53 1.86 1.27z" fill="#ffeaa7"/></g><path d="m49 19v-2h-6v2h2v2.08c-1.183.17-2.269.636-3.184 1.322l-1.472-1.472-1.414 1.414 1.472 1.472c-.686.915-1.152 2.001-1.322 3.184h-2.08v-2h-2v6h2v-2h2.08c.17 1.183.636 2.269 1.322 3.184l-1.472 1.472 1.414 1.414 1.472-1.472c.915.686 2.001 1.151 3.184 1.322v2.08h-2v2h6v-2h-2v-2.08c1.183-.17 2.269-.636 3.184-1.322l1.472 1.472 1.414-1.414-1.472-1.472c.686-.915 1.151-2.001 1.322-3.184h2.08v2h2v-6h-2v2h-2.08c-.17-1.183-.636-2.269-1.322-3.184l1.472-1.472-1.414-1.414-1.472 1.472c-.915-.686-2.001-1.152-3.184-1.322v-2.08zm-2 5c0 .551-.449 1-1 1s-1-.449-1-1 .449-1 1-1 1 .449 1 1zm-4.981 6.992c-.362-.48-.631-1.024-.802-1.615.186-.235.47-.377.783-.377.551 0 1 .449 1 1 0 .542-.467.972-.981.992zm7.963-.001c-.512-.021-.982-.449-.982-.991 0-.551.449-1 1-1 .313 0 .597.142.783.377-.171.591-.44 1.135-.801 1.614zm.931-3.85c-.289-.092-.596-.141-.913-.141-1.654 0-3 1.346-3 3 0 1.004.5 1.89 1.26 2.435-.682.349-1.442.565-2.26.565s-1.578-.216-2.26-.565c.76-.545 1.26-1.431 1.26-2.435 0-1.654-1.346-3-3-3-.317 0-.624.049-.913.141.222-1.271.925-2.369 1.916-3.117.012 1.643 1.351 2.976 2.997 2.976s2.985-1.333 2.998-2.976c.99.748 1.693 1.846 1.915 3.117z"/><path d="m6.402 30.184-1.473 1.473-1.414-1.414-1.414 1.414 4.243 4.243 1.414-1.414-1.414-1.414 1.473-1.473c.914.685 2 1.151 3.183 1.321v4.08h2v-4.08c1.183-.17 2.269-.636 3.184-1.322l1.473 1.473-1.414 1.414 1.414 1.414 4.243-4.243-1.414-1.414-1.414 1.414-1.473-1.473c.686-.915 1.151-2.001 1.322-3.184h4.079v-2h-4.08c-.17-1.183-.636-2.269-1.322-3.184l1.473-1.473 1.414 1.414 1.414-1.414-4.243-4.243-1.414 1.414 1.414 1.414-1.473 1.473c-.914-.684-2-1.15-3.183-1.32v-4.08h-2v4.08c-1.183.17-2.269.636-3.184 1.322l-1.473-1.473 1.414-1.414-1.414-1.414-4.243 4.243 1.414 1.414 1.414-1.414 1.473 1.473c-.685.914-1.151 2-1.321 3.183h-4.08v2h4.08c.17 1.183.636 2.269 1.322 3.184zm1.617-1.192c-.361-.48-.631-1.024-.802-1.615.186-.235.47-.377.783-.377.551 0 1 .449 1 1 0 .542-.468.971-.981.992zm7.963-.001c-.512-.022-.982-.449-.982-.991 0-.551.449-1 1-1 .313 0 .597.142.783.377-.171.591-.44 1.135-.801 1.614zm-2.982-6.991c0 .551-.449 1-1 1s-1-.449-1-1 .449-1 1-1 1 .449 1 1zm-3.998.024c.013 1.643 1.352 2.976 2.998 2.976s2.985-1.333 2.998-2.976c.99.748 1.693 1.846 1.916 3.117-.29-.092-.597-.141-.914-.141-1.654 0-3 1.346-3 3 0 1.004.5 1.89 1.26 2.435-.682.349-1.442.565-2.26.565s-1.578-.216-2.26-.565c.76-.545 1.26-1.431 1.26-2.435 0-1.654-1.346-3-3-3-.317 0-.624.049-.913.141.222-1.271.925-2.369 1.915-3.117z"/><path d="m46 .541-.728.773c-.665.707-16.272 17.442-16.272 30.686 0 2.882.727 5.673 2.098 8.168-.353.032-.706.071-1.059.095l-6.524.435c-3.173.211-6.088 1.777-8.015 4.302h-14.5v18h41c1.654 0 3-1.346 3-3 0-.352-.072-.686-.184-1h1.184c1.654 0 3-1.346 3-3 0-.395-.081-.77-.22-1.116 1.275-.346 2.22-1.501 2.22-2.884s-.945-2.539-2.22-2.884c.049-.123.086-.251.119-.381 8.089-1.392 14.101-8.44 14.101-16.735 0-13.244-15.607-29.979-16.272-30.686zm2 52.459h-13v2h11c.551 0 1 .449 1 1s-.449 1-1 1h-11v2h7c.551 0 1 .449 1 1s-.449 1-1 1h-39v-14h13.5l.545-.728c1.576-2.101 3.982-3.405 6.602-3.58l6.524-.435c2.644-.176 5.288-.591 7.856-1.233.5-.125.973.263.972.757.001 1.775-1.443 3.219-3.219 3.219h-3.943c-1.52 0-2.884.846-3.567 2.215-.548 1.101-1.653 1.785-2.883 1.785h-.387v2h.387c1.993 0 3.784-1.108 4.678-2.902.338-.677 1.017-1.098 1.772-1.098h14.163c.551 0 1 .449 1 1s-.449 1-1 1h-11v2h13c.551 0 1 .449 1 1s-.449 1-1 1zm.713-6.26c-.478-1.024-1.51-1.74-2.713-1.74h-6.143c.705-.89 1.143-1.999 1.143-3.219 0-1.533-1.248-2.781-2.781-2.781-.226 0-.452.028-.675.083-1.407.352-2.838.624-4.278.831-1.478-2.374-2.266-5.094-2.266-7.914 0-10.886 11.903-25.018 15-28.51 3.097 3.492 15 17.624 15 28.51 0 7.267-5.228 13.449-12.287 14.74z"/><path d="m23.833 10.753-1.54 1.54 1.414 1.414 1.54-1.54c.524.348 1.116.602 1.753.732v2.101h2v-2.101c.637-.13 1.229-.384 1.753-.732l1.54 1.54 1.414-1.414-1.54-1.54c.348-.524.602-1.116.732-1.753h2.101v-2h-2.101c-.13-.637-.384-1.229-.732-1.753l1.54-1.54-1.414-1.414-1.54 1.54c-.524-.348-1.116-.602-1.753-.732v-2.101h-2v2.101c-.637.13-1.229.384-1.753.732l-1.54-1.54-1.414 1.414 1.54 1.54c-.348.524-.602 1.116-.732 1.753h-2.101v2h2.101c.13.637.384 1.229.732 1.753zm7.167-2.753c0 1.654-1.346 3-3 3-.499 0-.963-.134-1.378-.351 1.398-.624 2.378-2.022 2.378-3.649 0-.699-.186-1.365-.514-1.951 1.423.234 2.514 1.463 2.514 2.951zm-4.674-2.488c.421.374.674.908.674 1.488 0 1.042-.803 1.89-1.821 1.982-.108-.309-.179-.636-.179-.982 0-1.035.527-1.949 1.326-2.488z"/><path d="m9 10.816v2.184h2v-2.184c.847-.302 1.514-.969 1.816-1.816h2.184v-2h-2.184c-.302-.847-.969-1.514-1.816-1.816v-2.184h-2v2.184c-.847.302-1.514.969-1.816 1.816h-2.184v2h2.184c.302.847.969 1.514 1.816 1.816zm1-3.816c.551 0 1 .449 1 1s-.449 1-1 1-1-.449-1-1 .449-1 1-1z"/><path d="m19.316 54.051-.632 1.897c1.582.527 2.84 1.786 3.367 3.367l1.897-.632c-.724-2.175-2.456-3.907-4.632-4.632z"/></g></svg>