<svg id="_x33_0" enable-background="new 0 0 64 64" height="512" viewBox="0 0 64 64" width="512" xmlns="http://www.w3.org/2000/svg"><g><g><path d="m33 22h-1-4-1c-.55 0-1 .45-1 1v4 3 2.07c.19-.05.38-.07.58-.07h.9c1 0 1.98.23 2.88.68.86.43 1.6 1.04 2.17 1.79l.01-.01 1.46-1.46v-3-4-3c0-.55-.45-1-1-1z" fill="#5cd6b3"/><g fill="#69d6f4"><circle cx="60" cy="46" r="2"/><circle cx="52" cy="30" r="2"/><circle cx="20" cy="18" r="2"/><circle cx="4" cy="26" r="2"/></g><path d="m32 4.13v6.2l-.05-.01c-.63-.21-1.29-.32-1.95-.32-1.1 0-2.1.45-2.83 1.17-.32.32-.58.69-.77 1.1h-.01l-8.07 3.59c-.21.09-.44.14-.67.14-.91 0-1.65-.74-1.65-1.65v-.42c0-.58.3-1.11.8-1.41l11.2-6.72.84-.5c.97-.59 2.04-.98 3.16-1.17z" fill="#f5e0cd"/><path d="m32 10.33v-6.2c.5-.09 1.01-.13 1.52-.13.98 0 1.95.16 2.88.47l7.52 2.5c2.04.68 4.18 1.03 6.33 1.03h11.75v10c-4.65 0-9.29.51-13.83 1.52l-.46.1c-1.14.25-2.3.38-3.46.38-2.79 0-5.52-.73-7.94-2.11l-.54-.31c-1.18-.67-2.45-1.14-3.77-1.37-.72-.14-1.45-.21-2.19-.21h-1.81c-1.1 0-2-.9-2-2 0-.62.14-1.21.4-1.73.19-.41.45-.78.77-1.1.73-.72 1.73-1.17 2.83-1.17.66 0 1.32.11 1.95.32z" fill="#f5e0cd"/><path d="m53.16 49.16c-.67-.67-.78-1.73-.25-2.52l.73-1.09c.23-.36.36-.78.36-1.21 0-.82-.46-1.57-1.2-1.94l-2.09-1.04c-.42-.22-.78-.52-1.05-.9-.04-.04-.07-.08-.1-.12l-.62-.93c-.59-.88-1.57-1.41-2.63-1.41-.11 0-.21.01-.31.02v-3.19c0-.53-.21-1.04-.59-1.42l-2.24-2.24c-.75-.75-1.77-1.17-2.83-1.17h-1.68c-1.06 0-2.08.42-2.83 1.17l-1.83 1.83-1.46 1.46-.01.01c-.57-.75-1.31-1.36-2.17-1.79-.9-.45-1.88-.68-2.88-.68h-.9c-.2 0-.39.02-.58.07v-2.07l-2.21-1.48c-.52-.34-1.12-.52-1.73-.52h-1.12c-.61 0-1.21.18-1.73.52l-1.42.96c-.52.34-1.12.52-1.73.52h-1.13c-1.18 0-2.26.67-2.79 1.72l-.61 1.22c-.34.68-.92 1.22-1.63 1.5l-1.94.78c-1.18.47-1.96 1.62-1.96 2.89v2.33c0 .98.46 1.91 1.25 2.5l1.5 1.12c.79.59 1.25 1.52 1.25 2.5 0 1.44.97 2.68 2.36 3.03l1.64.41v.56c0 1.9 1.54 3.44 3.44 3.44.37 0 .74.06 1.09.18l3.82 1.27h.01c.64 1.5 2.14 2.55 3.88 2.55h2.29c.31 0 .61-.07.89-.21.9-.45 2-.16 2.56.68l.43.64c.37.56.99.89 1.66.89h2.32c.4 0 .79.12 1.11.34l1.76 1.17c.48.32 1.05.49 1.63.49 1.26 0 2.38-.81 2.78-2l1.28-3.84c.23.1.45.24.64.43l.79.79c.4.4.94.62 1.5.62 1.17 0 2.12-.95 2.12-2.12v-1.32c0-.92.62-1.72 1.51-1.94l1.22-.3c.75-.19 1.27-.86 1.27-1.63 0-.44-.18-.87-.49-1.18z" fill="#fcd770"/></g><path d="m44.237 6.025-7.518-2.505c-1.255-.419-2.581-.564-3.889-.473-.401-1.186-1.511-2.047-2.83-2.047-1.654 0-3 1.346-3 3v1.234l-10.713 6.428c-.794.476-1.287 1.346-1.287 2.273v.416c0 1.307.953 2.388 2.198 2.604-.122.326-.198.676-.198 1.045 0 1.654 1.346 3 3 3s3-1.346 3-3c0-1.056-.551-1.981-1.377-2.516l3.377-1.502v.018c0 1.302.839 2.402 2 2.816v4.184c-1.103 0-2 .897-2 2v5.132l-.659-.439c-.68-.454-1.47-.693-2.285-.693h-1.111c-.815 0-1.605.239-2.285.692l-1.428.951c-.35.234-.757.357-1.176.357h-1.127c-1.571 0-2.983.873-3.686 2.277l-.607 1.215c-.232.465-.626.827-1.108 1.02l-1.938.775c-1.573.629-2.59 2.131-2.59 3.825v2.328c0 1.29.616 2.522 1.647 3.295l1.505 1.13c.532.398.848 1.031.848 1.699 0 1.894 1.283 3.536 3.121 3.996l.902.225c.121 2.342 2.047 4.215 4.418 4.215.263 0 .522.042.771.126l3.462 1.154c.896 1.613 2.596 2.72 4.568 2.72h2.286c.463 0 .927-.109 1.341-.316.45-.225.999-.079 1.277.338l.428.645c.559.834 1.491 1.333 2.495 1.333h2.325c.197 0 .39.059.555.168l1.758 1.172c.647.432 1.401.66 2.181.66 1.695 0 3.193-1.08 3.729-2.688l.82-2.462.235.235c.581.582 1.385.915 2.207.915 1.721 0 3.121-1.4 3.121-3.121v-1.317c0-.46.312-.858.757-.97l1.219-.305c1.191-.298 2.024-1.365 2.024-2.594 0-.714-.278-1.386-.783-1.891l-.351-.351c-.336-.336-.389-.866-.125-1.262l.725-1.088c.349-.521.534-1.129.534-1.758 0-1.209-.672-2.296-1.753-2.838l-2.087-1.043c-.311-.155-.577-.391-.771-.68l-.619-.931c-.644-.964-1.649-1.598-2.771-1.787v-2.237c0-.801-.313-1.555-.879-2.121l-2.242-2.242c-.943-.943-2.199-1.464-3.535-1.464h-1.686c-1.336 0-2.592.521-3.536 1.465l-.121.121v-7.586c0-1.103-.897-2-2-2v-3.509c.787.238 1.553.548 2.271.958l.547.312c2.561 1.465 5.475 2.239 8.427 2.239 1.236 0 2.476-.136 3.684-.404l.455-.101c4.462-.992 9.043-1.495 13.616-1.495h1v-12h-12.755c-2.046 0-4.067-.328-6.008-.975zm-14.237-3.025c.323 0 .597.163.78.401-.613.171-1.209.397-1.78.682v-.083c0-.552.448-1 1-1zm-10 16c-.552 0-1-.448-1-1s.448-1 1-1 1 .448 1 1-.448 1-1 1zm5.674-7.505-7.76 3.448c-.411.188-.914-.142-.914-.592v-.416c0-.228.121-.44.315-.558l12.036-7.222c.521-.312 1.075-.559 1.649-.745v3.67c-.331-.046-.664-.08-1.001-.08-1.845 0-3.459 1.004-4.325 2.495zm7.326 11.505v1.557l-4.151-1.557zm-6 1.443 6 2.25v1.863l-6-2.25zm-13.972 24.284-.421-.105c-.947-.238-1.607-1.084-1.607-2.062 0-1.29-.616-2.522-1.647-3.295l-1.505-1.13c-.532-.398-.848-1.031-.848-1.695v-2.328c0-.872.522-1.645 1.332-1.968l1.937-.775c.938-.374 1.703-1.078 2.156-1.982l.607-1.215c.362-.723 1.088-1.172 1.897-1.172h1.127c.815 0 1.605-.239 2.285-.692l1.428-.951c.349-.234.756-.357 1.175-.357h1.111c.419 0 .826.123 1.176.356l1.769 1.179v.849c-1.18.586-2 1.792-2 3.197 0 .17-.027.338-.081.5l-.467 1.398c-.167.505-.883.676-1.262.297l-.862-.862c-.581-.581-1.385-.914-2.207-.914-1.721 0-3.121 1.4-3.121 3.121v.668c0 .991.29 1.95.84 2.773l.964 1.446c.128.193.196.418.196.649 0 .447-.248.849-.646 1.049l-.899.448c-1.394.698-2.291 2.044-2.427 3.573zm36.75-6.765c.155.107.318.204.487.289l2.087 1.043c.399.2.647.602.647 1.049 0 .231-.068.456-.197.649l-.726 1.089c-.79 1.186-.633 2.778.375 3.785l.351.351c.126.126.198.299.198.476 0 .31-.21.579-.51.653l-1.219.305c-1.336.334-2.271 1.532-2.271 2.911v1.317c0 .618-.503 1.121-1.121 1.121-.295 0-.584-.119-.793-.328l-.793-.793c-.566-.567-1.32-.879-2.121-.879h-.317c-.471 0-.855-.384-.855-.854 0-.325.181-.618.474-.764.941-.472 1.526-1.419 1.526-2.472 0-.854-.333-1.657-.937-2.261l-.645-.645c-.27-.27-.418-.629-.418-1.011 0-.68.483-1.271 1.15-1.403l1.922-.385c.967-.193 1.825-.734 2.415-1.522zm-13.243-10.083c.568-.567 1.32-.879 2.122-.879h1.686c.802 0 1.556.312 2.122.879l2.242 2.242c.187.187.293.444.293.707v2.4c-.606.201-1.168.525-1.633.99l-1.074 1.074 1.414 1.414 1.074-1.074c.92-.92 2.602-.754 3.325.329l.315.475-1.535 2.047c-.295.394-.723.664-1.207.761l-1.921.385c-1.598.318-2.758 1.733-2.758 3.364 0 .916.356 1.778 1.005 2.426l.645.645c.225.226.35.527.35.846 0 .291-.162.553-.422.683-.974.487-1.578 1.465-1.578 2.553 0 1.494 1.157 2.709 2.62 2.831l-.902 2.703c-.262.79-.997 1.32-1.83 1.32-.383 0-.753-.112-1.071-.324l-1.759-1.173c-.496-.329-1.071-.503-1.663-.503h-2.325c-.335 0-.646-.166-.831-.443l-.428-.644c-.836-1.256-2.483-1.694-3.836-1.019-.138.07-.292.106-.447.106h-2.286c-1.788 0-3.242-1.454-3.242-3.242 0-.866.337-1.681.949-2.293l.758-.758-1.414-1.414-.758.758c-.99.99-1.535 2.306-1.535 3.707 0 .067.017.128.02.194l-2.173-.724c-.454-.151-.927-.228-1.407-.228-1.345 0-2.44-1.095-2.44-2.44v-1.434c0-.93.517-1.767 1.348-2.183l.899-.448c.57-.286 1.021-.725 1.325-1.251l5.111 1.704.633-1.896-1.758-.586 1.274-1.911-1.664-1.109-1.576 2.365-1.62-.54c-.06-.489-.228-.958-.505-1.371l-.963-1.445c-.33-.496-.504-1.071-.504-1.666v-.668c0-.618.503-1.121 1.121-1.121.295 0 .584.12.793.328l.862.862c.521.522 1.216.81 1.953.81 1.191 0 2.245-.76 2.62-1.889l.466-1.397c.123-.367.185-.748.185-1.134 0-.871.709-1.58 1.58-1.58h.903c.838 0 1.677.198 2.426.573 1.419.709 2.453 1.998 2.838 3.536l.283 1.133 1.939-.484-.283-1.133c-.182-.729-.477-1.412-.857-2.04zm-3.971 1.143c-.52-.489-1.107-.912-1.76-1.238-1.026-.513-2.173-.784-3.321-.784h-.483v-2.557l6 2.25v1.893zm-1.564-12.022h-2v-4h.813c.398 0 .793.035 1.187.077zm30-3.992c-4.387.068-8.771.583-13.049 1.534l-.455.101c-3.612.805-7.479.216-10.687-1.617l-.547-.312c-1.96-1.12-4.19-1.713-6.449-1.713h-1.813c-.552 0-1-.449-1-1.001 0-1.654 1.346-3 3-3 .557 0 1.105.089 1.632.266l3.204 1.066c1.328.443 2.711.668 4.111.668h2.053v-2h-2.053c-1.185 0-2.355-.19-3.479-.565l-2.468-.822v-4.578c1.038-.068 2.089.049 3.086.381l7.519 2.506c2.145.716 4.379 1.078 6.64 1.078h10.755z"/><path d="m33.413 49.406-.493-.329.938-1.563-1.715-1.029-3 5 1.715 1.029 1.032-1.72.413.276c.553.368.973.918 1.183 1.548l.566 1.698 1.896-.633-.566-1.698c-.35-1.048-1.049-1.964-1.969-2.579z"/><path d="m47 49h2v2h-2z"/><path d="m27.5 37.5h1.999v5h-1.999z" transform="matrix(.8 -.6 .6 .8 -18.3 25.1)"/><path d="m35.586 39h2.828v2h-2.828z" transform="matrix(.707 -.707 .707 .707 -17.447 37.879)"/><path d="m11 39h2v2h-2z"/><path d="m49 30c0 1.654 1.346 3 3 3s3-1.346 3-3-1.346-3-3-3-3 1.346-3 3zm4 0c0 .552-.448 1-1 1s-1-.448-1-1 .448-1 1-1 1 .448 1 1z"/><path d="m60 43c-1.654 0-3 1.346-3 3s1.346 3 3 3 3-1.346 3-3-1.346-3-3-3zm0 4c-.552 0-1-.448-1-1s.448-1 1-1 1 .448 1 1-.448 1-1 1z"/><path d="m7 26c0-1.654-1.346-3-3-3s-3 1.346-3 3 1.346 3 3 3 3-1.346 3-3zm-3 1c-.552 0-1-.448-1-1s.448-1 1-1 1 .448 1 1-.448 1-1 1z"/></g></svg>