<svg id="_x33_0" enable-background="new 0 0 64 64" height="512" viewBox="0 0 64 64" width="512" xmlns="http://www.w3.org/2000/svg"><g><g><g fill="#f5e0cd"><path d="m22.47 27.22c.5-.74 1.35-1.22 2.31-1.22h.05c.75 0 1.47.3 2 .83l-2-2c-.53-.53-.83-1.25-.83-2 0-.78.32-1.49.83-2s1.22-.83 2-.83c.75 0 1.47.3 2 .83l3.17 3.17.83.83c-.53-.53-.83-1.25-.83-2 0-.78.32-1.49.83-2s1.22-.83 2-.83c.75 0 1.47.3 2 .83l4 4c-.53-.53-.83-1.25-.83-2 0-.78.32-1.49.83-2s1.22-.83 2-.83c.75 0 1.47.3 2 .83l7.67 7.67c2.94 2.94 4.93 6.67 5.75 10.73l.75 3.77 3 3v16h-13l-5-5-4.45-.99c-2.93-.65-5.5-2.37-7.22-4.83l-2.33-3.32-.72-1.03c-.85-1.21-1.88-2.28-3.07-3.17l-1.14-.86c-.67-.5-1.07-1.29-1.07-2.13 0-.74.3-1.41.78-1.89s1.15-.78 1.89-.78c2.13 0 4.18.85 5.69 2.36l-9.53-9.53c-.53-.53-.83-1.25-.83-2.01v-.04c0-.58.17-1.11.47-1.56z"/><path d="m12.59 31.41c.36.37.86.59 1.41.59h2c1.1 0 2 .9 2 2v16c0 1.1.9 2 2 2 .55 0 1.05-.22 1.41-.59.37-.36.59-.86.59-1.41v-4c0-1.1.9-2 2-2 .55 0 1.05.22 1.41.59.37.36.59.86.59 1.41v10c0 1.1.9 2 2 2 .55 0 1.05-.22 1.41-.59.37-.36.59-.86.59-1.41v6h-20v-11.78c0-1.43-.51-2.82-1.44-3.91l-1.67-1.94c-1.87-2.17-2.89-4.94-2.89-7.81v-5.66c0-3.24-.62-6.44-1.82-9.45-.12-.3-.18-.61-.18-.93v-.01c0-1.38 1.12-2.51 2.53-2.51 1.32 0 2.53.46 3.47 1.24.14.11.27.23.4.36.99.99 1.6 2.36 1.6 3.87v5.53c.02.02.05.04 2.17 2.24l.17-.12c.07.1.16.2.25.29z"/><path d="m14 28c-1.1 0-2 .9-2 2 0 .41.12.8.34 1.12l-.17.12c-2.12-2.2-2.15-2.22-2.17-2.24v-5.53c0-1.51-.61-2.88-1.6-3.87-.13-.13-.26-.25-.4-.36v-10.24c0-1.66 1.34-3 3-3 .83 0 1.58.34 2.12.88s.88 1.29.88 2.12v13c0 .55.22 1.05.59 1.41.36.37.86.59 1.41.59h4c1.1 0 2 .9 2 2 0 .14-.01.27-.34 1.12-.07.1-.16.2-.25.29-.36.37-.86.59-1.41.59z"/><path d="m32 22.83v1.17l-3.17-3.17c-.53-.53-1.25-.83-2-.83h-.83v-7c0-1.66 1.34-3 3-3 .83 0 1.58.34 2.12.88s.88 1.29.88 2.12z"/><path d="m26 13v7h-6v-11c0-.83.34-1.58.88-2.12s1.29-.88 2.12-.88c1.66 0 3 1.34 3 3z"/><path d="m16 20c-1.1 0-2 .9-2 2v-13-4c0-1.66 1.34-3 3-3 .83 0 1.58.34 2.12.88s.88 1.29.88 2.12v4 11z"/></g><path d="m26.21 43.66-1.14-.86c-.67-.5-1.07-1.29-1.07-2.13 0-.74.3-1.41.78-1.89s1.15-.78 1.89-.78c2.13 0 4.18.85 5.69 2.36l-9.53-9.53c-.53-.53-.83-1.25-.83-2.01v-.04c0-.58.17-1.11.47-1.56.5-.74 1.35-1.22 2.31-1.22h.05c.75 0 1.47.3 2 .83l-2-2c-.53-.53-.83-1.25-.83-2 0-.78.32-1.49.83-2s1.22-.83 2-.83h-.83-6-4c-1.1 0-2 .9-2 2 0 .55.22 1.05.59 1.41.36.37.86.59 1.41.59h4c1.1 0 2 .9 2 2 0 .14-.01.27-.34 1.12-.07.1-.16.2-.25.29-.36.37-.86.59-1.41.59h-6c-1.1 0-2 .9-2 2 0 .41.12.8.34 1.12.07.1.16.2.25.29.36.37.86.59 1.41.59h2c1.1 0 2 .9 2 2v16c0 1.1.9 2 2 2 .55 0 1.05-.22 1.41-.59.37-.36.59-.86.59-1.41v-4c0-1.1.9-2 2-2 .55 0 1.05.22 1.41.59.37.36.59.86.59 1.41v10c0 1.1.9 2 2 2 .55 0 1.05-.22 1.41-.59.37-.36.59-.86.59-1.41v-8.14l-.72-1.03c-.85-1.21-1.88-2.28-3.07-3.17z" fill="#69d6f4"/></g><path d="m59.228 39.038c-.854-4.273-2.936-8.16-6.017-11.241l-7.676-7.676c-.723-.723-1.684-1.121-2.707-1.121-1.736 0-3.19 1.17-3.657 2.757l-1.636-1.636c-.723-.723-1.684-1.121-2.707-1.121-.665 0-1.282.186-1.828.486v-6.486c0-2.206-1.794-4-4-4-.732 0-1.409.212-2 .556v-.556c0-2.206-1.794-4-4-4-.732 0-1.409.212-2 .556v-.556c0-2.206-1.794-4-4-4s-4 1.794-4 4v.556c-.591-.344-1.268-.556-2-.556-2.206 0-4 1.794-4 4v8.493c-.762-.316-1.596-.493-2.471-.493-1.946 0-3.529 1.577-3.529 3.516 0 .446.084.885.251 1.306 1.16 2.901 1.749 5.955 1.749 9.078v5.66c0 3.102 1.111 6.106 3.13 8.461l1.666 1.943c.776.907 1.204 2.063 1.204 3.256v12.78h22v-11.971l.506.723c1.869 2.67 4.65 4.529 7.83 5.236l4.163.925 5.087 5.087h14.414v-17.414l-3.079-3.079zm-30.228-28.038c1.103 0 2 .897 2 2v8.586l-1.465-1.465c-.681-.681-1.578-1.061-2.535-1.104v-6.017c0-1.103.897-2 2-2zm-5.2 14.144c-.301.081-.584.2-.851.349-.243-1.412-1.468-2.493-2.949-2.493h-4c-.552 0-1-.448-1-1s.448-1 1-1h7.486c-.3.546-.486 1.163-.486 1.828 0 .851.29 1.652.8 2.316zm-.8 15.523c0 .863.309 1.695.852 2.348-1.584.079-2.852 1.381-2.852 2.985v4c0 .552-.448 1-1 1s-1-.448-1-1v-16c0-1.654-1.346-3-3-3h-2c-.552 0-1-.448-1-1s.448-1 1-1h6c.352 0 .686-.072 1-.184v.005c0 1.025.397 1.989 1.12 2.713l5.521 5.522c-.321-.035-.646-.056-.974-.056-2.022 0-3.667 1.645-3.667 3.667zm0-33.667c1.103 0 2 .897 2 2v10h-4v-10c0-1.103.897-2 2-2zm-8-2c0-1.103.897-2 2-2s2 .897 2 2v14h-3c-.352 0-.686.072-1 .184zm-6 4c0-1.103.897-2 2-2s2 .897 2 2v13c0 1.654 1.346 3 3 3h4c.552 0 1 .448 1 1s-.448 1-1 1h-6c-1.214 0-2.256.728-2.728 1.767-.093-.082-.177-.173-.272-.252v-5.043c0-1.834-.77-3.489-2-4.667zm2 52v-10.78c0-1.669-.599-3.287-1.686-4.557l-1.667-1.943c-1.707-1.992-2.647-4.535-2.647-7.159v-5.661c0-3.378-.637-6.683-1.891-9.819-.072-.183-.109-.373-.109-.566 0-.835.687-1.515 1.529-1.515 2.465 0 4.471 2.006 4.471 4.472v6.028l.399.3c2.255 1.691 3.601 4.383 3.601 7.2h2c0-1.383-.28-2.736-.776-4h1.776c.552 0 1 .448 1 1v16c0 1.654 1.346 3 3 3s3-1.346 3-3v-4c0-.552.448-1 1-1s1 .448 1 1v10c0 1.654 1.346 3 3 3 .352 0 .686-.072 1-.184v2.184zm18-5c0 .552-.448 1-1 1s-1-.448-1-1v-10c0-.124-.022-.243-.037-.363.549.544 1.053 1.131 1.499 1.767l.538.769zm32 5h-11.586l-4.913-4.913-4.731-1.052c-2.69-.597-5.043-2.171-6.625-4.43l-3.044-4.348c-.91-1.301-2.017-2.444-3.288-3.398l-1.147-.859c-.417-.313-.666-.812-.666-1.333 0-.919.748-1.667 1.667-1.667 1.882 0 3.652.733 4.983 2.064l1.521 1.522c1.558 1.557 3.627 2.414 5.829 2.414v-2c-1.667 0-3.235-.649-4.414-1.828l-11.051-11.052c-.345-.346-.535-.808-.535-1.345 0-.978.797-1.775 1.828-1.775.481 0 .953.195 1.293.535l11.172 11.172 1.414-1.414-13.172-13.172c-.34-.34-.535-.811-.535-1.293 0-1.008.82-1.828 1.828-1.828.481 0 .953.195 1.293.535l13.172 13.172 1.414-1.414-9.172-9.172c-.34-.34-.535-.811-.535-1.293 0-1.008.82-1.828 1.828-1.828.481 0 .953.195 1.293.535l9.172 9.172 1.414-1.414-5.172-5.172c-.34-.34-.535-.811-.535-1.293 0-1.008.82-1.828 1.828-1.828.481 0 .953.195 1.293.535l7.676 7.676c2.801 2.801 4.692 6.335 5.47 10.22l.812 4.062 2.921 2.921z"/></g></svg>