<svg id="_x33_0" enable-background="new 0 0 64 64" height="512" viewBox="0 0 64 64" width="512" xmlns="http://www.w3.org/2000/svg"><g><g><path d="m27.34 46.68c-.41-.82-1.04-1.49-1.79-1.96-.75-.46-1.63-.72-2.55-.72h-3-7c-1.81 0-3.44 1.1-4.11 2.79l-.38.93c-.33.83-.91 1.55-1.66 2.04l-1.34.9-.01.01c.11.08.2.17.29.28.5.59 1.16 1.39 1.81 2.17 1.52 1.83 3.77 2.88 6.15 2.88h8.66c.88 0 1.59-.71 1.59-1.59 0-.81-.6-1.48-1.4-1.58l-2.93-.37c-2.1-.26-3.67-2.05-3.67-4.16 0-.64.26-1.21.67-1.63.42-.41.99-.67 1.63-.67.46 0 .9.13 1.28.39l.42.27v.01l.24.15c1.15.77 2.5 1.18 3.88 1.18h2.98c.31 0 .63.02.93.07v-.01z" fill="#69d6f4"/><path d="m22 30v3c0 .55-.45 1-1 1h-1-4-1c-.55 0-1-.45-1-1v-3z" fill="#5cd6b3"/><path d="m12 28c.55 0 1.05-.22 1.41-.59.37-.36.59-.86.59-1.41h11.46l-.15 1.34c-.03.23-.08.45-.16.66-.41 1.18-1.53 2-2.82 2h-.33-8-.33c-1.29 0-2.41-.82-2.83-2z" fill="#ffeaa7"/><g fill="#5cd6b3"><path d="m27.77 6h-3.77v-4h2.11c1.04 0 1.89.85 1.89 1.89 0 .07 0 .15-.01.22z"/><path d="m20 2h4v4h-4z"/><path d="m16 2h4v4h-4z"/><path d="m12 2v4h-3.77l-.22-1.89c-.01-.07-.01-.15-.01-.22 0-1.04.85-1.89 1.89-1.89z"/><path d="m12 2h4v4h-4z"/><path d="m27.77 6-.69 6h-.96c-1.38 0-2.73-.41-3.88-1.18l-.66-.43c-.38-.26-.82-.39-1.28-.39-.64 0-1.21.26-1.63.67-.35.35-.58.81-.65 1.33-.01 0-.01 0-.02 0-1.64 0-3.09.79-4 2 0-1.1-.9-2-2-2h-2c-.38 0-.74.11-1.04.29l-.73-6.29h3.77 4 4 4z"/><path d="m14 22c0-1.1-.9-2-2-2 .55 0 1.05-.22 1.41-.59.05-.05.09-.09.13-.14.83 1.62 2.52 2.73 4.46 2.73 2.76 0 5-2.24 5-5 0-.13 0-.24-.01-.37l2.1.26c.53.06 1.02.34 1.34.76l-.97 8.35h-11.46c0-1.1-.9-2-2-2 .55 0 1.05-.22 1.41-.59.37-.36.59-.86.59-1.41z"/></g><path d="m22.99 16.63c.01.13.01.24.01.37 0 2.76-2.24 5-5 5-1.94 0-3.63-1.11-4.46-2.73.29-.35.46-.79.46-1.27 0-1.1-.9-2-2-2 .55 0 1.05-.22 1.41-.59.37-.36.59-.86.59-1.41.91-1.21 2.36-2 4-2h.02c-.01.1-.02.2-.02.3 0 2.11 1.57 3.9 3.67 4.16z" fill="#ffeaa7"/><path d="m13.41 15.41c-.36.37-.86.59-1.41.59h-2c-1.1 0-2-.9-2-2 0-.55.22-1.05.59-1.41.11-.11.24-.21.37-.3.3-.18.66-.29 1.04-.29h2c1.1 0 2 .9 2 2 0 .55-.22 1.05-.59 1.41z" fill="#f5e0cd"/><path d="m12 16c1.1 0 2 .9 2 2 0 .48-.17.92-.46 1.27-.04.05-.08.09-.13.14-.36.37-.86.59-1.41.59h-2c-1.1 0-2-.9-2-2 0-.55.22-1.05.59-1.41.36-.37.86-.59 1.41-.59z" fill="#f5e0cd"/><path d="m12 24c1.1 0 2 .9 2 2 0 .55-.22 1.05-.59 1.41-.36.37-.86.59-1.41.59h-1.16-.84c-1.1 0-2-.9-2-2 0-.55.22-1.05.59-1.41.36-.37.86-.59 1.41-.59z" fill="#f5e0cd"/><path d="m12 20c1.1 0 2 .9 2 2 0 .55-.22 1.05-.59 1.41-.36.37-.86.59-1.41.59h-2c-1.1 0-2-.9-2-2 0-.55.22-1.05.59-1.41.36-.37.86-.59 1.41-.59z" fill="#f5e0cd"/><path d="m62 52v10l-48.48.06c-1.55.01-3.09-.31-4.52-.92l-.1-.04c-3.15-1.35-5.5-4.06-6.41-7.35-.24-.88-.42-1.51-.42-1.51-.05-.16-.07-.32-.07-.49 0-.97.79-1.75 1.75-1.75.65 0 1.27.24 1.75.67.11.08.2.17.29.28.5.59 1.16 1.39 1.81 2.17 1.52 1.83 3.77 2.88 6.15 2.88h8.66c.88 0 1.59-.71 1.59-1.59 0-.81-.6-1.48-1.4-1.58l-2.93-.37c-2.1-.26-3.67-2.05-3.67-4.16 0-.64.26-1.21.67-1.63.42-.41.99-.67 1.63-.67.46 0 .9.13 1.28.39l.42.27v.01l.24.15c1.15.77 2.5 1.18 3.88 1.18h2.98c.31 0 .63.02.93.07 1.52.2 2.93.89 4.02 1.98l1.95 1.95z" fill="#f5e0cd"/><path d="m25.31 27.34.15-1.34.97-8.35c-.32-.42-.81-.7-1.34-.76l-2.1-.26-1.32-.17c-2.1-.26-3.67-2.05-3.67-4.16 0-.1.01-.2.02-.3.07-.52.3-.98.65-1.33.42-.41.99-.67 1.63-.67.46 0 .9.13 1.28.39l.66.43c1.15.77 2.5 1.18 3.88 1.18h.96 2.02c1.86 0 3.64.74 4.95 2.05l.78.78c.75.75 1.77 1.17 2.83 1.17h24.34v10h-25.06c-.62 0-1.23.14-1.78.42l-.63.31c-1.66.84-3.5 1.27-5.36 1.27h-4.01-.01c.08-.21.13-.43.16-.66z" fill="#f5e0cd"/><path d="m16 34h4v10h-4z" fill="#69d6f4"/></g><path d="m35.536 14.121-.778-.778c-1.512-1.511-3.521-2.343-5.657-2.343h-.901l.782-6.777c.012-.111.018-.221.018-.331 0-1.595-1.297-2.892-2.891-2.892h-16.218c-1.594 0-2.891 1.297-2.891 2.892 0 .11.006.221.02.331l.881 7.64c-.555.544-.901 1.3-.901 2.137 0 .771.301 1.468.78 2-.479.532-.78 1.229-.78 2s.301 1.468.78 2c-.479.532-.78 1.229-.78 2s.301 1.468.78 2c-.479.532-.78 1.229-.78 2 0 1.654 1.346 3 3 3h.217c.594 1.024 1.613 1.739 2.783 1.939v2.061c0 1.103.897 2 2 2v4h2v-4h2v10.083c-.228-.049-.46-.083-.697-.083-1.822 0-3.303 1.481-3.303 3.303 0 2.61 1.954 4.824 4.545 5.148l2.936.366c.296.037.52.29.52.589 0 .327-.266.593-.593.593l-8.661.001c-2.083 0-4.043-.918-5.377-2.517l-1.355-1.625.395-.263c.918-.612 1.62-1.477 2.03-2.502l.374-.938c.524-1.308 1.775-2.155 3.186-2.155v-2c-2.233 0-4.213 1.34-5.043 3.414l-.374.938c-.259.646-.703 1.193-1.282 1.58l-.799.532c-.532-.291-1.125-.464-1.748-.464-1.512 0-2.748 1.23-2.754 2.754 0 .254.035.508.106.758 0 .002.181.632.419 1.5.993 3.613 3.539 6.532 6.989 8.011l.09.038c1.547.664 3.186 1 4.87 1h.048l49.478-.062v-11.999h-28.586l-1.657-1.657c-1.127-1.127-2.532-1.875-4.059-2.183l-.462-.923c-.998-1.997-3.005-3.237-5.236-3.237v2c1.418 0 2.692.765 3.37 2h-2.25c-1.108 0-2.178-.315-3.12-.89v-11.11c1.103 0 2-.897 2-2v-2.063c1.183-.202 2.191-.925 2.778-1.937h3.389c2.008 0 4.019-.475 5.815-1.373l.62-.311c.415-.207.879-.316 1.342-.316h26.056v-12h-25.343c-.79 0-1.563-.32-2.121-.879zm-8.435 34.879c1.603 0 3.109.624 4.243 1.757l2.242 2.243h27.414v8.001l-47.483.06c-1.394-.005-2.815-.277-4.129-.84l-.09-.038c-2.883-1.235-5.012-3.678-5.843-6.7-.242-.88-.424-1.519-.424-1.518-.021-.07-.031-.141-.031-.214.001-.414.34-.751.754-.751.492 0 .955.217 1.27.594l1.809 2.17c1.715 2.056 4.235 3.236 6.914 3.236l8.66-.001c1.43 0 2.593-1.163 2.593-2.593 0-1.306-.977-2.411-2.272-2.573l-2.935-.366c-1.592-.199-2.793-1.56-2.793-3.164 0-.719.584-1.303 1.303-1.303.258 0 .508.076.723.219l.656.438c1.318.878 2.853 1.343 4.438 1.343zm-.101-45.108c0 .034-.002.068-.006.103l-.116 1.005h-1.878v-2h1.109c.491 0 .891.4.891.892zm-14 1.108v-2h2v2zm4-2h2v2h-2zm4 0h2v2h-2zm-11.109 0h1.109v2h-1.878l-.116-1.006c-.004-.034-.006-.068-.006-.102 0-.492.4-.892.891-.892zm-.538 4h17.294l-.461 4h-.066c-1.188 0-2.34-.349-3.329-1.008l-.657-.438c-.544-.363-1.178-.554-1.831-.554-1.377 0-2.557.848-3.052 2.048-1.05.129-2.026.535-2.856 1.163-.548-.731-1.413-1.211-2.395-1.211h-2c-.063 0-.121.015-.183.018zm15.218 18h-9.755c-.133-.374-.335-.711-.596-1 .441-.489.719-1.12.762-1.818.898.523 1.931.818 3.018.818 3.054 0 5.576-2.294 5.948-5.248l1.02.127c.147.018.286.07.408.147zm-15.571-3c0-.552.449-1 1-1h2c.551 0 1 .448 1 1s-.449 1-1 1h-2c-.551 0-1-.448-1-1zm0-4c0-.552.449-1 1-1h2c.551 0 1 .448 1 1s-.449 1-1 1h-2c-.551 0-1-.448-1-1zm0-4c0-.552.449-1 1-1h2c.551 0 1 .448 1 1s-.449 1-1 1h-2c-.551 0-1-.448-1-1zm9 7c-1.333 0-2.551-.652-3.292-1.73.182-.387.292-.815.292-1.27 0-.771-.301-1.468-.78-2 .387-.429.648-.966.736-1.564.558-.663 1.286-1.132 2.119-1.327.355 2.246 2.151 4.052 4.47 4.342l.405.051c-.251 1.967-1.916 3.498-3.95 3.498zm-9 5c0-.552.449-1 1-1h2c.551 0 1 .448 1 1s-.449 1-1 1h-2c-.551 0-1-.448-1-1zm6 7v-2h6v2zm7.326-4h-8.652c-.263 0-.51-.067-.745-.162.88-.289 1.576-.967 1.887-1.838h9.524l-.026.229c-.117 1.009-.972 1.771-1.988 1.771zm38.674-4h-24.056c-.771 0-1.545.183-2.237.528l-.621.311c-1.519.76-3.22 1.161-4.919 1.161h-2.814l.823-7.133c1.009.726 2.232 1.133 3.514 1.133h.31v-2h-.31c-1.35 0-2.602-.67-3.351-1.793-.484-.726-1.258-1.204-2.124-1.312l-3.423-.428c-1.591-.199-2.792-1.56-2.792-3.164 0-.719.584-1.303 1.303-1.303.258 0 .508.076.723.219l.656.438c1.318.878 2.853 1.343 4.438 1.343h2.981c1.603 0 3.109.624 4.243 1.757l.778.778c.944.944 2.2 1.465 3.535 1.465h23.343z"/><path d="m15 41h2v2h-2z"/></g></svg>