<svg id="_x33_0" enable-background="new 0 0 64 64" height="512" viewBox="0 0 64 64" width="512" xmlns="http://www.w3.org/2000/svg"><g><g><path d="m37.79 6h-31.58l-.2-1.9c-.01-.07-.01-.13-.01-.2 0-1.05.85-1.9 1.9-1.9h28.2c1.05 0 1.9.85 1.9 1.9 0 .07 0 .13-.01.2z" fill="#fcd770"/><path d="m33.45 48-.62 6h-6.83-8-6.83l-.62-6z" fill="#fcd770"/><path d="m18 54h8c0 1.1-.45 2.1-1.17 2.83-.73.72-1.73 1.17-2.83 1.17-2.21 0-4-1.79-4-4z" fill="#37bc9b"/><path d="m32.83 54-.46 4.41c-.21 2.04-1.93 3.59-3.98 3.59h-12.78c-2.05 0-3.77-1.55-3.98-3.59l-.46-4.41h6.83c0 2.21 1.79 4 4 4 1.1 0 2.1-.45 2.83-1.17.72-.73 1.17-1.73 1.17-2.83z" fill="#5cd6b3"/><path d="m37.79 6-1.24 12h-1.65c-1.81 0-3.61-.19-5.37-.58-1.84-2.09-4.52-3.42-7.53-3.42-5.52 0-10 4.48-10 10s4.48 10 10 10 10-4.48 10-10h1c.61 1.21 1.53 2.2 2.63 2.9l-1.77 17.1-.41 4h-22.9l-.41-4-.62-6-.62-6-.62-6-.62-6-1.45-14z" fill="#5cd6b3"/><path d="m22 14c3.01 0 5.69 1.33 7.53 3.42-1.39-.3-2.75-.71-4.08-1.24-.3-.12-.61-.18-.93-.18 0 0 0 0-.01 0-1.2 0-2.22.85-2.46 2h-1.05c-.55 0-1 .45-1 1v3h-3c-.55 0-1 .45-1 1v2c0 .55.45 1 1 1h3v3c0 .55.45 1 1 1h2c.55 0 1-.45 1-1v-3h3c.55 0 1-.45 1-1v-1h4c0 5.52-4.48 10-10 10s-10-4.48-10-10 4.48-10 10-10z" fill="#e6e9ed"/><path d="m27 26h-3v3c0 .55-.45 1-1 1h-2c-.55 0-1-.45-1-1v-3h-3c-.55 0-1-.45-1-1v-2c0-.55.45-1 1-1h3v-3c0-.55.45-1 1-1h1.05c-.03.17-.05.35-.05.53 0 1.51.61 2.88 1.6 3.87s2.36 1.6 3.87 1.6h.53v1c0 .55-.45 1-1 1z" fill="#fcd770"/><g fill="#f5e0cd"><path d="m4.88 20.88c.54-.54 1.29-.88 2.12-.88h.66l.62 6h-1.28c-1.66 0-3-1.34-3-3 0-.83.34-1.58.88-2.12z"/><path d="m6.88 38.88c.54-.54 1.29-.88 2.12-.88h.52l.62 6h-1.14c-1.66 0-3-1.34-3-3 0-.83.34-1.58.88-2.12z"/><path d="m8.28 26 .62 6h-3.9c-1.66 0-3-1.34-3-3 0-.83.34-1.58.88-2.12s1.29-.88 2.12-.88h2z"/><path d="m9 38h-4c-1.66 0-3-1.34-3-3 0-.83.34-1.58.88-2.12s1.29-.88 2.12-.88h3.9l.62 6z"/><path d="m35.63 26.9c-1.1-.7-2.02-1.69-2.63-2.9h-1-4-.53c-1.51 0-2.88-.61-3.87-1.6s-1.6-2.36-1.6-3.87c0-.18.02-.36.05-.53.24-1.15 1.26-2 2.46-2h.01c.32 0 .63.06.93.18 1.33.53 2.69.94 4.08 1.24 1.76.39 3.56.58 5.37.58h1.65 6.01c2.87 0 5.64 1.02 7.81 2.89l1.94 1.67c1.09.93 2.48 1.44 3.91 1.44h5.78v20h-28.14z"/></g></g><path d="m15 39h4v2h-4z"/><path d="m21 39h8v2h-8z"/><path d="m15 43h14v2h-14z"/><path d="m52.966 21.797-1.944-1.668c-2.355-2.018-5.36-3.129-8.461-3.129h-4.901l1.324-12.799c.01-.1.016-.2.016-.299 0-1.6-1.302-2.902-2.902-2.902h-28.196c-1.6 0-2.902 1.302-2.902 2.902 0 .099.005.2.016.298l1.536 14.845c-1.993.227-3.552 1.903-3.552 3.955 0 .829.254 1.6.687 2.239-1.559.547-2.687 2.017-2.687 3.761 0 1.201.542 2.266 1.382 3-.84.734-1.382 1.799-1.382 3 0 2.206 1.794 4 4 4h.556c-.344.591-.556 1.268-.556 2 0 2.206 1.794 4 4 4h.236l1.398 13.514c.265 2.557 2.403 4.486 4.973 4.486h12.785c2.571 0 4.708-1.929 4.973-4.486l1.399-13.514h28.236v-22h-6.78c-1.193 0-2.348-.428-3.254-1.203zm-18.065-4.797c-1.649 0-3.276-.175-4.874-.5-2.077-2.222-4.975-3.5-8.027-3.5-6.065 0-11 4.935-11 11s4.935 11 11 11c5.501 0 10.058-4.063 10.861-9.342.49.665 1.063 1.251 1.714 1.733l-2.029 19.609h-21.091l-4.135-40h29.364l-1.034 10zm-17.901 8v-2h4v-4h.024c.232 3.192 2.784 5.744 5.976 5.976v.024h-4v4h-2v-4zm4.361-8h-.361c-1.103 0-2 .897-2 2v2h-2c-1.103 0-2 .897-2 2v2c0 1.103.897 2 2 2h2v2c0 1.103.897 2 2 2h2c1.103 0 2-.897 2-2v-2h2c1.103 0 2-.897 2-2h1.941c-.5 4.493-4.317 8-8.941 8-4.962 0-9-4.037-9-9s4.038-9 9-9c.528 0 1.049.058 1.561.149-.97.277-1.766.954-2.2 1.851zm-9.286 36-.413-4h20.678l-.414 4zm12.741 2c-.414 1.161-1.514 2-2.816 2s-2.402-.839-2.816-2zm-16.914-52h28.196c.497 0 .902.405.897.995l-.104 1.005h-29.778l-.113-1.098c0-.497.405-.902.902-.902zm-1.146 18.025.411 3.975h-.167c-1.103 0-2-.897-2-2 0-1.019.769-1.853 1.756-1.975zm-3.756 7.975c0-1.103.897-2 2-2h2.374l.414 4h-2.788c-1.103 0-2-.897-2-2zm0 6c0-1.103.897-2 2-2h2.995l.414 4h-3.409c-1.103 0-2-.897-2-2zm6 8c-1.103 0-2-.897-2-2 0-.972.698-1.783 1.62-1.962l.409 3.962zm19.393 18h-12.786c-1.542 0-2.825-1.157-2.984-2.691l-.341-3.309h4.82c.465 2.279 2.484 4 4.899 4s4.434-1.721 4.899-4h4.82l-.342 3.309c-.16 1.534-1.443 2.691-2.985 2.691zm32.607-18h-26.029l1.507-14.565c.936.363 1.946.565 2.994.565h1.528v-2h-1.528c-2.377 0-4.515-1.321-5.578-3.447l-.276-.553h-6.146c-2.466 0-4.472-2.006-4.472-4.471 0-.842.68-1.529 1.516-1.529.193 0 .383.036.563.108 3.138 1.255 6.443 1.892 9.822 1.892h7.66c2.624 0 5.167.94 7.159 2.647l1.945 1.668c1.268 1.086 2.885 1.685 4.555 1.685h4.78z"/></g></svg>