<svg id="_x33_0" enable-background="new 0 0 64 64" height="512" viewBox="0 0 64 64" width="512" xmlns="http://www.w3.org/2000/svg"><g><g><path d="m62 44v18h-39.38c-4.82 0-9.38-2.17-12.42-5.91l-7.7-9.48c-.32-.39-.5-.89-.5-1.4 0-.61.25-1.16.65-1.56s.95-.65 1.56-.65c.52 0 1.02.14 1.47.4l8.52 4.97c1.83 1.07 3.92 1.63 6.04 1.63h1.76 10.26c.96 0 1.74-.78 1.74-1.74 0-.75-.48-1.42-1.19-1.66l-6.57-2.19c-1.26-.42-2.32-1.22-3.07-2.25-.74-1.04-1.17-2.3-1.17-3.63 0-1.41 1.13-2.53 2.51-2.53h.01c.32 0 .63.06.93.18 3.01 1.2 6.21 1.82 9.45 1.82h5.66c1.66 0 3.29.34 4.78.99 1.09.47 2.11 1.12 3.03 1.9l1.94 1.67c1.09.93 2.48 1.44 3.91 1.44z" fill="#f5e0cd"/><g fill="#69d6f4"><circle cx="52" cy="20" r="4"/><circle cx="42" cy="8" r="2"/><circle cx="25" cy="7" r="5"/><circle cx="12" cy="14" r="2"/><circle cx="10" cy="28" r="4"/></g><path d="m21.66 32.49c.88-.32 1.84-.49 2.83-.49h4.51 2 2 2 6.7c.47 0 .92.08 1.35.22 1.71.57 2.95 2.18 2.95 4.08 0 .46-.07.92-.22 1.36l-.44 1.33c-1.49-.65-3.12-.99-4.78-.99h-5.66c-3.24 0-6.44-.62-9.45-1.82-.3-.12-.61-.18-.93-.18h-.01c-1.38 0-2.51 1.12-2.51 2.53 0 1.33.43 2.59 1.17 3.63.75 1.03 1.81 1.83 3.07 2.25l6.57 2.19c.71.24 1.19.91 1.19 1.66 0 .96-.78 1.74-1.74 1.74h-10.26l-3.51-3.51c-.8-.8-1.42-1.74-1.85-2.76-.42-1.01-.64-2.11-.64-3.24 0-3.7 2.36-6.84 5.66-8z" fill="#ffeaa7"/><path d="m43.22 31.78-.17.44c-.43-.14-.88-.22-1.35-.22h-6.7-2-2-2-4.51c-.99 0-1.95.17-2.83.49l-.7-1.05c-.63-.94-.96-2.04-.96-3.17 0-.96.33-1.86.89-2.58.56-.71 1.35-1.25 2.28-1.48l2.43-.61-.51-.51c-.7-.7-1.09-1.65-1.09-2.63 0-.74.22-1.46.62-2.05.39-.6.96-1.09 1.64-1.38l4.74-2.03c.31 1.24.93 2.36 1.78 3.25.86.9 1.94 1.59 3.16 1.96l4.77 1.47c2.55.79 4.29 3.14 4.29 5.8 0 1.62-.64 3.16-1.78 4.3z" fill="#ffeaa7"/></g><path d="m50.966 41.797-1.944-1.668c-.758-.649-1.588-1.193-2.461-1.648l.168-.504c.18-.54.271-1.105.271-1.675 0-1.89-1.001-3.54-2.494-4.479.965-1.236 1.494-2.745 1.494-4.339 0-3.124-2.006-5.841-4.993-6.76l-4.772-1.468c-2.098-.646-3.732-2.37-4.265-4.499l-.285-1.14-5.821 2.495c-1.739.746-2.864 2.451-2.864 4.345 0 .928.27 1.812.765 2.571l-.838.209c-2.312.577-3.927 2.646-3.927 5.03 0 1.332.391 2.622 1.129 3.73l.036.054c-3.062 1.575-5.165 4.76-5.165 8.434 0 2.533.987 4.915 2.778 6.707l1.761 1.761c-1.7-.11-3.361-.591-4.837-1.452l-8.518-4.968c-.598-.348-1.279-.533-1.97-.533-1.772 0-3.214 1.441-3.214 3.214 0 .736.255 1.457.72 2.027l7.702 9.479c3.242 3.991 8.051 6.28 13.194 6.28h40.384v-20h-8.78c-1.193 0-2.348-.428-3.254-1.203zm-33.966-1.312c0-4.128 3.358-7.485 7.485-7.485h4.515v-2h-4.515c-.832 0-1.634.118-2.403.32l-.289-.433c-.519-.778-.793-1.684-.793-2.62 0-1.464.992-2.734 2.412-3.089l4.831-1.208-.485-1.939-1.85.462-.109-.109c-.515-.515-.799-1.199-.799-1.927 0-1.092.648-2.076 1.652-2.506l3.739-1.603c.933 2.287 2.865 4.084 5.255 4.82l4.772 1.468c2.143.66 3.582 2.608 3.582 4.848 0 1.355-.527 2.629-1.485 3.587l-.01.01c-.265-.04-.531-.081-.807-.081h-6.698v2h6.698c1.821 0 3.302 1.481 3.302 3.302 0 .355-.057.707-.169 1.044l-.116.348c-1.33-.449-2.73-.694-4.154-.694h-5.66c-3.124 0-6.178-.589-9.082-1.749-.417-.167-.856-.251-1.304-.251-1.938 0-3.515 1.583-3.515 3.529 0 3.104 1.979 5.851 4.925 6.833l6.566 2.188c.305.102.509.387.509.707 0 .41-.333.743-.744.743h-9.842l-3.222-3.222c-1.413-1.414-2.192-3.294-2.192-5.293zm44 20.515h-38.384c-4.538 0-8.781-2.02-11.642-5.541l-7.702-9.479c-.176-.216-.272-.488-.272-.766 0-.669.544-1.214 1.214-1.214.337 0 .67.09.961.261l8.519 4.969c1.987 1.158 4.252 1.77 6.55 1.77h12.012c1.513 0 2.744-1.23 2.744-2.743 0-1.183-.754-2.229-1.875-2.603l-6.566-2.188c-2.129-.71-3.559-2.694-3.559-4.937 0-.842.68-1.529 1.516-1.529.193 0 .383.036.563.108 3.138 1.255 6.443 1.892 9.822 1.892h5.66c2.624 0 5.167.94 7.159 2.647l1.945 1.668c1.268 1.086 2.885 1.685 4.555 1.685h6.78z"/><path d="m31 31h2v2h-2z"/><path d="m25 13c3.309 0 6-2.691 6-6s-2.691-6-6-6-6 2.691-6 6 2.691 6 6 6zm0-10c2.206 0 4 1.794 4 4s-1.794 4-4 4-4-1.794-4-4 1.794-4 4-4z"/><path d="m52 15c-2.757 0-5 2.243-5 5s2.243 5 5 5 5-2.243 5-5-2.243-5-5-5zm0 8c-1.654 0-3-1.346-3-3s1.346-3 3-3 3 1.346 3 3-1.346 3-3 3z"/><path d="m39 8c0 1.654 1.346 3 3 3s3-1.346 3-3-1.346-3-3-3-3 1.346-3 3zm4 0c0 .552-.449 1-1 1s-1-.448-1-1 .449-1 1-1 1 .448 1 1z"/><path d="m15 14c0-1.654-1.346-3-3-3s-3 1.346-3 3 1.346 3 3 3 3-1.346 3-3zm-4 0c0-.552.449-1 1-1s1 .448 1 1-.449 1-1 1-1-.448-1-1z"/><path d="m5 28c0 2.757 2.243 5 5 5s5-2.243 5-5-2.243-5-5-5-5 2.243-5 5zm5-3c1.654 0 3 1.346 3 3s-1.346 3-3 3-3-1.346-3-3 1.346-3 3-3z"/></g></svg>