<svg id="_x33_0" enable-background="new 0 0 64 64" height="512" viewBox="0 0 64 64" width="512" xmlns="http://www.w3.org/2000/svg"><g><g><path d="m32 36.8v-23.8c0-.83.34-1.58.88-2.12s1.29-.88 2.12-.88c1.66 0 3 1.34 3 3v-4c0-1.66 1.34-3 3-3 .83 0 1.58.34 2.12.88s.88 1.29.88 2.12v-4c0-.83.34-1.58.88-2.12s1.29-.88 2.12-.88c1.66 0 3 1.34 3 3v4c0-.83.34-1.58.88-2.12s1.29-.88 2.12-.88c1.66 0 3 1.34 3 3v10.19.01c.92-.75 2.1-1.2 3.38-1.2h.09c1.41 0 2.53 1.13 2.53 2.51v.01c0 .32-.06.63-.18.93-1.2 3.01-1.82 6.21-1.82 9.45v5.66c0 2.87-1.02 5.64-2.89 7.81l-1.67 1.94c-.93 1.09-1.44 2.48-1.44 3.91v11.78h-20v-12.6c0-.93-.13-1.85-.38-2.75l-.47-1.61c-.76-2.68-1.15-5.45-1.15-8.24z" fill="#f5e0cd"/><path d="m32 36.8c0 2.79-.39 5.56-1.15 8.24l-.47 1.61c-.25.9-.38 1.82-.38 2.75v12.6h-20v-11.78c0-1.43-.51-2.82-1.44-3.91l-1.67-1.94c-1.87-2.17-2.89-4.94-2.89-7.81v-5.66c0-3.24-.62-6.44-1.82-9.45-.12-.3-.18-.61-.18-.93 0 0 0 0 0-.01 0-1.38 1.12-2.51 2.53-2.51h.09c1.28 0 2.46.45 3.38 1.2v-.01-10.19c0-1.66 1.34-3 3-3 .83 0 1.58.34 2.12.88s.88 1.29.88 2.12v-4c0-1.66 1.34-3 3-3 .83 0 1.58.34 2.12.88s.88 1.29.88 2.12v4c0-.83.34-1.58.88-2.12s1.29-.88 2.12-.88c1.66 0 3 1.34 3 3v4c0-1.66 1.34-3 3-3 .83 0 1.58.34 2.12.88s.88 1.29.88 2.12z" fill="#f5e0cd"/><path d="m46.83 47.17c.72.73 1.17 1.73 1.17 2.83s-.45 2.1-1.17 2.83c-.73.72-1.73 1.17-2.83 1.17s-2.1-.45-2.83-1.17c-.72-.73-1.17-1.73-1.17-2.83s.45-2.1 1.17-2.83c.73-.72 1.73-1.17 2.83-1.17s2.1.45 2.83 1.17z" fill="#ff826e"/><g fill="#5cd6b3"><path d="m25.41 52.59c.38.37.59.88.59 1.41s-.21 1.04-.59 1.41c-.37.38-.88.59-1.41.59s-1.04-.21-1.41-.59l-1.5-1.5 2.82-2.82z"/><path d="m19.006 48.879h3.988v4.243h-3.988z" transform="matrix(.707 -.707 .707 .707 -29.912 29.787)"/><path d="m20.91 48.09-2.82 2.82-1.5-1.5c-.38-.37-.59-.88-.59-1.41s.21-1.04.59-1.41c.37-.38.88-.59 1.41-.59s1.04.21 1.41.59z"/><path d="m25.41 26.59c.38.37.59.88.59 1.41s-.21 1.04-.59 1.41l-2 2-2.82-2.82 2-2c.37-.38.88-.59 1.41-.59s1.04.21 1.41.59z"/><path d="m23.41 31.41-2 2c-.37.38-.88.59-1.41.59s-1.04-.21-1.41-.59c-.38-.37-.59-.88-.59-1.41s.21-1.04.59-1.41l2-2z"/></g></g><path d="m63 61h-8v-10.78c0-1.192.428-2.348 1.203-3.254l1.668-1.944c2.018-2.355 3.129-5.36 3.129-8.461v-5.66c0-3.124.589-6.178 1.749-9.082.167-.417.251-.856.251-1.304 0-1.938-1.583-3.515-3.619-3.515-.842 0-1.644.168-2.381.465v-8.465c0-2.206-1.794-4-4-4-.732 0-1.409.212-2 .556v-.556c0-2.206-1.794-4-4-4s-4 1.794-4 4v.556c-.591-.344-1.268-.556-2-.556-2.206 0-4 1.794-4 4v.556c-.591-.344-1.268-.556-2-.556-1.201 0-2.266.542-3 1.382-.734-.84-1.799-1.382-3-1.382-.732 0-1.409.212-2 .556v-.556c0-2.206-1.794-4-4-4-.732 0-1.409.212-2 .556v-.556c0-2.206-1.794-4-4-4s-4 1.794-4 4v.556c-.591-.344-1.268-.556-2-.556-2.206 0-4 1.794-4 4v8.48c-.759-.308-1.592-.48-2.471-.48-1.946 0-3.529 1.577-3.529 3.516 0 .447.084.886.251 1.306 1.16 2.901 1.749 5.955 1.749 9.079v5.66c0 3.101 1.111 6.105 3.13 8.46l1.666 1.944c.776.907 1.204 2.062 1.204 3.255v10.78h-8v2h62zm-28-50c1.103 0 2 .897 2 2v11h2v-15c0-1.103.897-2 2-2s2 .897 2 2v15h2v-19c0-1.103.897-2 2-2s2 .897 2 2v19h2v-15c0-1.103.897-2 2-2s2 .897 2 2v9.754c-1.229 1.164-2 2.805-2 4.627v5.002c-2.472 1.295-4 3.817-4 6.617h2c0-2.086 1.159-3.961 3.025-4.895l.975-.487v-6.237c0-2.416 1.965-4.381 4.471-4.381.842 0 1.529.68 1.529 1.516 0 .193-.036.383-.108.563-1.255 3.138-1.892 6.443-1.892 9.822v5.66c0 2.624-.94 5.167-2.647 7.159l-1.668 1.945c-1.086 1.268-1.685 2.885-1.685 4.555v10.78h-18v-11.6c0-1.021-.143-2.037-.423-3.022l-.461-1.613c-.741-2.592-1.116-5.272-1.116-7.967v-23.798c0-1.103.897-2 2-2zm-3.192 34.315c.073-.256.126-.517.192-.775.066.258.119.519.192.775l.461 1.613c.231.805.347 1.637.347 2.472v11.6h-2v-11.6c0-.835.116-1.667.347-2.472zm-22.494.349-1.666-1.944c-1.708-1.992-2.648-4.535-2.648-7.159v-5.66c0-3.379-.637-6.684-1.892-9.821-.072-.182-.108-.372-.108-.565 0-.835.687-1.515 1.619-1.515 2.416 0 4.381 1.965 4.381 4.381v6.237l.975.487c1.866.934 3.025 2.809 3.025 4.895h2c0-2.799-1.528-5.321-4-6.617v-5.002c0-1.816-.766-3.453-2-4.616v-9.765c0-1.103.897-2 2-2s2 .897 2 2v15h2v-19c0-1.103.897-2 2-2s2 .897 2 2v19h2v-15c0-1.103.897-2 2-2s2 .897 2 2v15h2v-11c0-1.103.897-2 2-2s2 .897 2 2v23.798c0 2.695-.375 5.375-1.116 7.967l-.461 1.614c-.28.984-.423 2.001-.423 3.021v11.6h-18v-10.78c0-1.67-.599-3.287-1.686-4.556z"/><path d="m27 35c-3.443 0-6.733 1.645-8.8 4.4l1.6 1.2c1.691-2.254 4.383-3.6 7.2-3.6z"/><path d="m37 37c2.817 0 5.509 1.346 7.2 3.6l1.6-1.2c-2.067-2.755-5.357-4.4-8.8-4.4z"/><path d="m20 35c.801 0 1.555-.312 2.121-.879l4-4c.566-.566.879-1.32.879-2.121s-.313-1.555-.879-2.121c-1.133-1.134-3.109-1.134-4.242 0l-4 4c-.567.566-.879 1.32-.879 2.121s.312 1.555.879 2.121c.566.567 1.32.879 2.121.879zm4-8c.271 0 .516.102.707.293.191.192.293.436.293.707s-.102.515-.293.707l-1.293 1.293-1.414-1.414 1.293-1.293c.191-.191.436-.293.707-.293zm-4.707 4.293 1.293-1.293 1.414 1.414-1.293 1.293c-.383.383-1.031.383-1.414 0-.191-.192-.293-.436-.293-.707s.102-.515.293-.707z"/><path d="m21.879 56.121c.566.567 1.32.879 2.121.879s1.555-.312 2.121-.879c.566-.566.879-1.32.879-2.121s-.313-1.555-.879-2.121l-6-6c-1.133-1.134-3.109-1.134-4.242 0-.567.566-.879 1.32-.879 2.121s.312 1.555.879 2.121zm-2.379-5.207 1.414-1.414 1.586 1.586-1.414 1.414zm5.5 3.086c0 .271-.102.515-.293.707-.383.383-1.031.383-1.414 0l-.793-.793 1.414-1.414.793.793c.191.192.293.436.293.707zm-7.707-6.707c.191-.191.436-.293.707-.293s.516.102.707.293l.793.793-1.414 1.414-.793-.793c-.191-.192-.293-.436-.293-.707s.102-.515.293-.707z"/><path d="m11 41h2v2h-2z"/><path d="m27 39h2v2h-2z"/><path d="m45 45.101v-2.101h-2v2.101c-.637.13-1.228.384-1.753.732l-1.54-1.54-1.414 1.414 1.54 1.54c-.348.525-.602 1.116-.732 1.753h-2.101v2h2.101c.13.637.384 1.229.732 1.753l-1.54 1.54 1.414 1.414 1.54-1.54c.524.348 1.116.602 1.753.732v2.101h2v-2.101c.637-.13 1.228-.384 1.753-.732l1.54 1.54 1.414-1.414-1.54-1.54c.348-.525.602-1.116.732-1.753h2.101v-2h-2.101c-.13-.637-.384-1.229-.732-1.753l1.54-1.54-1.414-1.414-1.54 1.54c-.525-.348-1.116-.602-1.753-.732zm-1 7.899c-1.654 0-3-1.346-3-3s1.346-3 3-3 3 1.346 3 3-1.346 3-3 3z"/><path d="m35 29h2v2h-2z"/><path d="m53 33h2v2h-2z"/><path d="m51 39h2v2h-2z"/><path d="m37 41h2v2h-2z"/><path d="m43 31h2v2h-2z"/></g></svg>