<svg id="_x33_0" enable-background="new 0 0 64 64" height="512" viewBox="0 0 64 64" width="512" xmlns="http://www.w3.org/2000/svg"><g><g><path d="m62 17v30c0 .55-.45 1-1 1h-13v13c0 .55-.45 1-1 1h-30c-.55 0-1-.45-1-1v-13h-13c-.55 0-1-.45-1-1v-30c0-.55.45-1 1-1h13v-13c0-.55.45-1 1-1h30c.55 0 1 .45 1 1v13h13c.55 0 1 .45 1 1z" fill="#5cd6b3"/><path d="m38 24c0-.55.22-1.05.59-1.41.36-.37.86-.59 1.41-.59 1.1 0 2 .9 2 2v16c0 4.42-3.58 8-8 8h-3.49c-4.77 0-8.72-3.73-8.98-8.5l-.35-6.27c-.12-2.15-.44-4.28-.96-6.36l-.17-.66c-.03-.14-.05-.28-.05-.43 0-.98.8-1.78 1.78-1.78 2.33 0 4.22 1.89 4.22 4.22v-8.22c0-.55.22-1.05.59-1.41.36-.37.86-.59 1.41-.59 1.1 0 2 .9 2 2v-2c0-.55.22-1.05.59-1.41.36-.37.86-.59 1.41-.59 1.1 0 2 .9 2 2v2c0-.55.22-1.05.59-1.41.36-.37.86-.59 1.41-.59 1.1 0 2 .9 2 2z" fill="#f5e0cd"/></g><path d="m40 21c-.352 0-.686.072-1 .184v-1.184c0-1.654-1.346-3-3-3-.395 0-.77.081-1.116.22-.345-1.275-1.501-2.22-2.884-2.22s-2.538.945-2.884 2.22c-.346-.139-.721-.22-1.116-.22-1.654 0-3 1.346-3 3v4.143c-.89-.705-1.999-1.143-3.219-1.143-1.533 0-2.781 1.248-2.781 2.781 0 .227.027.454.083.676l.163.651c.504 2.019.818 4.096.936 6.173l.348 6.273c.294 5.297 4.68 9.446 9.984 9.446h3.486c4.963 0 9-4.038 9-9v-16c0-1.654-1.346-3-3-3zm1 19c0 3.86-3.141 7-7 7h-3.486c-4.243 0-7.752-3.319-7.988-7.556l-.348-6.273c-.123-2.204-.456-4.407-.991-6.548l-.163-.65c-.016-.063-.024-.128-.024-.192 0-.431.351-.781.781-.781 1.775 0 3.219 1.444 3.219 3.22v3.943c0 1.52.846 2.884 2.215 3.567 1.101.548 1.785 1.653 1.785 2.883v.387h2v-.387c0-1.994-1.108-3.784-2.901-4.678-.678-.338-1.099-1.017-1.099-1.772v-12.163c0-.551.448-1 1-1s1 .449 1 1v10h2v-12c0-.551.448-1 1-1s1 .449 1 1v12h2v-10c0-.551.448-1 1-1s1 .449 1 1v10h2v-6c0-.551.448-1 1-1s1 .449 1 1z"/><path d="m61 15h-12v-12c0-1.103-.897-2-2-2h-30c-1.103 0-2 .897-2 2v12h-12c-1.103 0-2 .897-2 2v30c0 1.103.897 2 2 2h12v12c0 1.103.897 2 2 2h30c1.103 0 2-.897 2-2v-12h12c1.103 0 2-.897 2-2v-30c0-1.103-.897-2-2-2zm0 32h-14v14h-30v-14h-14v-30h14v-14h30v14h14z"/></g></svg>