<svg id="_x33_0" enable-background="new 0 0 64 64" height="512" viewBox="0 0 64 64" width="512" xmlns="http://www.w3.org/2000/svg"><g><g><g fill="#e6e9ed"><path d="m34 8v1c0 .55-.45 1-1 1h-2c-.55 0-1-.45-1-1v-1c0-1.1-.9-2-2-2h-8c-1.1 0-2 .9-2 2v4h-4v-4c0-1.1-.9-2-2-2h-3c-.55 0-1-.45-1-1v-2c0-.55.45-1 1-1h19c3.31 0 6 2.69 6 6z"/><path d="m22 13v5h-12v-5c0-.55.45-1 1-1h3 4 3c.55 0 1 .45 1 1z"/><path d="m18 56c0 1.1.9 2 2 2h-12c-1.1 0-2-.9-2-2v-30c0-1.1.9-2 2-2h16c1.1 0 2 .9 2 2v15.78 4.22h-6c-.55 0-1.05.22-1.41.59-.37.36-.59.86-.59 1.41 0 1.1.9 2 2 2h-2c-.55 0-1.05.22-1.41.59-.37.36-.59.86-.59 1.41 0 1.1.9 2 2 2h2c-.55 0-1.05.22-1.41.59-.37.36-.59.86-.59 1.41z"/></g><path d="m30.22 46h-4.22v-4.22c0 2.33 1.89 4.22 4.22 4.22z" fill="#5cd6b3"/><path d="m26 26c0 2.61 1.67 4.84 4 5.66v8.8c-.6-.13-1.2-.26-1.79-.41-.14-.03-.28-.05-.43-.05-.98 0-1.78.8-1.78 1.78z" fill="#5cd6b3"/><path d="m24 62h-18c-2.21 0-4-1.79-4-4v-32c0-4.42 3.58-8 8-8h12c2.23 0 4.25.91 5.7 2.39-.96 1.86-1.7 3.86-1.7 5.61 0-1.1-.9-2-2-2h-16c-1.1 0-2 .9-2 2v30c0 1.1.9 2 2 2h12 4c-.55 0-1.05.22-1.41.59-.37.36-.59.86-.59 1.41 0 1.1.9 2 2 2z" fill="#5cd6b3"/><path d="m30.22 46c-2.33 0-4.22-1.89-4.22-4.22 0-.98.8-1.78 1.78-1.78.15 0 .29.02.43.05.59.15 1.19.28 1.79.41 1.94.4 3.91.67 5.9.8l6.52.43c2.91.2 5.59 1.65 7.33 3.98l.25.33h12v16h-38c-1.1 0-2-.9-2-2 0-.55.22-1.05.59-1.41.36-.37.86-.59 1.41-.59h-4c-1.1 0-2-.9-2-2 0-.55.22-1.05.59-1.41.36-.37.86-.59 1.41-.59h-2c-1.1 0-2-.9-2-2 0-.55.22-1.05.59-1.41.36-.37.86-.59 1.41-.59h2c-1.1 0-2-.9-2-2 0-.55.22-1.05.59-1.41.36-.37.86-.59 1.41-.59h6z" fill="#f5e0cd"/><path d="m22 38c0 2.21-1.79 4-4 4-.18 0-.35-.03-.53-.05-.68 1.22-1.97 2.05-3.47 2.05-2.21 0-4-1.79-4-4 0-1.75 1.13-3.22 2.69-3.76-.44-.64-.69-1.41-.69-2.24 0-2.21 1.79-4 4-4s4 1.79 4 4c0 .18-.03.35-.05.53 1.22.68 2.05 1.97 2.05 3.47z" fill="#69d6f4"/><path d="m38 26c0 3.31-2.69 6-6 6-.7 0-1.37-.12-2-.34-2.33-.82-4-3.05-4-5.66 0-1.75.74-3.75 1.7-5.61 1.77-3.44 4.3-6.39 4.3-6.39s6 7 6 12z" fill="#69d6f4"/></g><path d="m42.486 40.697-6.524-.435c-1.661-.111-3.32-.33-4.961-.635v-6.707c.328.047.66.08 1 .08 3.86 0 7-3.14 7-7 0-5.309-5.986-12.354-6.241-12.651l-.76-.886-.759.886c-.145.169-2.133 2.51-3.827 5.473-1.289-.977-2.801-1.586-4.414-1.763v-4.059c0-1.103-.897-2-2-2h-2v-3c0-.551.449-1 1-1h8c.551 0 1 .449 1 1v1c0 1.103.897 2 2 2h2c1.103 0 2-.897 2-2v-1c0-3.86-3.14-7-7-7h-19c-1.103 0-2 .897-2 2v2c0 1.103.897 2 2 2h3c.551 0 1 .449 1 1v3h-2c-1.103 0-2 .897-2 2v4.059c-4.493.5-8 4.317-8 8.941v32c0 2.757 2.243 5 5 5h57v-18h-12.5c-1.927-2.525-4.842-4.091-8.014-4.303zm-13.486-1.491c-.182-.043-.365-.078-.546-.124-.221-.054-.448-.082-.673-.082-.273 0-.531.052-.781.125v-8.235c.574.587 1.251 1.068 2 1.425zm-4 5.794h-5c-1.654 0-3 1.346-3 3 0 .395.081.77.22 1.116-1.275.345-2.22 1.501-2.22 2.884s.945 2.539 2.22 2.884c-.139.346-.22.721-.22 1.116 0 .352.072.686.184 1h-9.184c-.551 0-1-.449-1-1v-30c0-.551.449-1 1-1h16c.551 0 1 .449 1 1zm7-29.405c1.564 2.018 5 6.852 5 10.405 0 2.757-2.243 5-5 5s-5-2.243-5-5c0-3.547 3.436-8.386 5-10.405zm-20-10.595h-3v-2h19c2.757 0 5 2.243 5 5v1h-2v-1c0-1.654-1.346-3-3-3h-8c-1.654 0-3 1.346-3 3v3h-2v-3c0-1.654-1.346-3-3-3zm9 8v4h-10v-4zm-18 45v-32c0-3.86 3.14-7 7-7h12c1.655 0 3.22.57 4.474 1.616-.431.906-.794 1.835-1.056 2.757-.424-.23-.902-.373-1.418-.373h-16c-1.654 0-3 1.346-3 3v30c0 1.654 1.346 3 3 3h13.184c-.112.314-.184.648-.184 1s.072.686.184 1h-15.184c-1.654 0-3-1.346-3-3zm58 3h-37c-.551 0-1-.449-1-1s.449-1 1-1h8v-2h-12c-.551 0-1-.449-1-1s.449-1 1-1h12v-2h-14c-.551 0-1-.449-1-1s.449-1 1-1h14v-2h-12c-.551 0-1-.449-1-1s.449-1 1-1h14.163c.755 0 1.435.421 1.777 1.108.889 1.784 2.68 2.892 4.673 2.892h.387v-2h-.387c-1.229 0-2.334-.684-2.888-1.793-.678-1.361-2.043-2.207-3.562-2.207h-3.943c-1.776 0-3.22-1.444-3.22-3.219 0-.494.488-.878.97-.757 2.57.643 5.214 1.058 7.858 1.234l6.524.435c2.62.175 5.026 1.479 6.601 3.58l.547.727h11.5z"/><path d="m21 34.021c0-.007 0-.014 0-.021 0-2.757-2.243-5-5-5s-5 2.243-5 5c0 .618.113 1.223.331 1.79-1.428.902-2.331 2.482-2.331 4.21 0 2.757 2.243 5 5 5 1.568 0 3.04-.752 3.979-2h.021c2.757 0 5-2.243 5-5 0-1.568-.752-3.04-2-3.979zm-3 6.979c-.099 0-.195-.017-.29-.03l-.776-.103-.332.59c-.535.952-1.532 1.543-2.602 1.543-1.654 0-3-1.346-3-3 0-1.263.81-2.395 2.016-2.817l1.226-.429-.728-1.076c-.336-.496-.514-1.076-.514-1.678 0-1.654 1.346-3 3-3s3 1.346 3 3c0 .099-.017.195-.03.29l-.103.776.59.332c.952.535 1.543 1.532 1.543 2.602 0 1.654-1.346 3-3 3z"/><path d="m34.836 24.766c-.36-1.491-1.276-3.214-1.981-4.398l-1.718 1.023c.91 1.527 1.516 2.856 1.754 3.843z"/></g></svg>