<svg id="_x33_0" enable-background="new 0 0 64 64" height="512" viewBox="0 0 64 64" width="512" xmlns="http://www.w3.org/2000/svg"><g><g><g fill="#f5e0cd"><path d="m57.49 30.68.71.57-.89 1.11c-.85 1.06-1.31 2.38-1.31 3.74v25.9h-16v-32h2c1.1 0 2 .9 2 2v6c0 1.1.9 2 2 2 .55 0 1.05-.22 1.41-.59.37-.36.59-.86.59-1.41v-4c0-1.1.9-2 2-2h5c1.04 0 1.95-.52 2.49-1.32z"/><path d="m42 22c1.1 0 2 .9 2 2 0 .55-.22 1.05-.59 1.41-.36.37-.86.59-1.41.59h-1.98c-.01-.28-.02-.57-.02-.85v-3.15z"/><path d="m44 10v8h-4v-8c0-1.1.9-2 2-2 .55 0 1.05.22 1.41.59.37.36.59.86.59 1.41z"/><path d="m48 6v12h-4v-8-4c0-1.1.9-2 2-2 .55 0 1.05.22 1.41.59.37.36.59.86.59 1.41z"/><path d="m56 18.16c0 1.13-.64 2.17-1.65 2.67h-.01c-.11.06-.22.12-.33.19-.54-.8-1.22-1.47-2.01-1.97v-13.05c0-.55.22-1.05.59-1.41.36-.37.86-.59 1.41-.59 1.1 0 2 .9 2 2v8.22z"/><path d="m58.46 30.93-.26.32-.71-.57c.32-.48.51-1.06.51-1.68 0-.83-.34-1.58-.88-2.12s-1.29-.88-2.12-.88h-2c-.55 0-1-.45-1-1v-.39c0-1.47.77-2.83 2.01-3.59.11-.07.22-.13.33-.19h.01c1.01-.5 1.65-1.54 1.65-2.67v-3.94c0-1.16.47-2.22 1.24-2.98.76-.77 1.82-1.24 2.98-1.24.98 0 1.78.8 1.78 1.78 0 .15-.02.29-.05.43-.63 2.52-1.05 5.09-1.25 7.68l-.51 6.65c-.12 1.6-.73 3.13-1.73 4.39z"/><path d="m52 6v13.05c-1.07-.68-2.32-1.05-3.62-1.05h-.38v-12-2c0-1.1.9-2 2-2 .55 0 1.05.22 1.41.59.37.36.59.86.59 1.41z"/><path d="m22.4 14.34c-1.42.62-2.4 2.02-2.4 3.66v-8c0-.55.22-1.05.59-1.41.36-.37.86-.59 1.41-.59 1.1 0 2 .9 2 2v4c-.57 0-1.11.12-1.6.34z"/><path d="m24 22v8c0-.53-.21-1.04-.59-1.41-.37-.38-.88-.59-1.41-.59s-1.04.21-1.41.59l-1.5 1.5-3 3-1.5 1.5c-.38.37-.59.88-.59 1.41s.21 1.04.59 1.41c.37.38.88.59 1.41.59s1.04-.21 1.41-.59l1.5-1.5 3-3 1.5-1.5c.38-.37.59-.88.59-1.41v12c0-1.1-.9-2-2-2s-2 .9-2 2 .9 2 2 2 2-.9 2-2v20h-16v-25.9c0-1.36-.46-2.68-1.31-3.74l-1.02-1.26c0-.01 0-.01 0-.01.21-.32.33-.69.33-1.09 0-1.08-.87-1.97-1.94-2-.13-.47-.21-.96-.25-1.46l-.51-6.65c-.2-2.59-.62-5.16-1.25-7.68-.03-.14-.05-.28-.05-.43 0-.98.8-1.78 1.78-1.78 2.33 0 4.22 1.89 4.22 4.22v-8.22c0-.55.22-1.05.59-1.41.36-.37.86-.59 1.41-.59 1.1 0 2 .9 2 2v-2c0-.55.22-1.05.59-1.41.36-.37.86-.59 1.41-.59 1.1 0 2 .9 2 2v2c0-.55.22-1.05.59-1.41.36-.37.86-.59 1.41-.59 1.1 0 2 .9 2 2v4 8c0 .72.19 1.39.53 1.98.17.31.39.6.64.85.73.72 1.73 1.17 2.83 1.17z"/></g><path d="m24 17c0 1.66-1.34 3-3 3-.16 0-.31-.01-.46-.03l-.01.01c-.34-.59-.53-1.26-.53-1.98 0-1.64.98-3.04 2.4-3.66.95.51 1.6 1.5 1.6 2.66z" fill="#ff826e"/><path d="m21 20c1.66 0 3-1.34 3-3 0-1.16-.65-2.15-1.6-2.66.49-.22 1.03-.34 1.6-.34 1.1 0 2.1.45 2.83 1.17.72.73 1.17 1.73 1.17 2.83s-.45 2.1-1.17 2.83c-.73.72-1.73 1.17-2.83 1.17s-2.1-.45-2.83-1.17c-.25-.25-.47-.54-.64-.85l.01-.01c.15.02.3.03.46.03z" fill="#ff826e"/><circle cx="6" cy="4" fill="#ff826e" r="2"/><circle cx="22" cy="42" fill="#ff826e" r="2"/><path d="m18.91 35.91-1.5 1.5c-.37.38-.88.59-1.41.59s-1.04-.21-1.41-.59c-.38-.37-.59-.88-.59-1.41s.21-1.04.59-1.41l1.5-1.5z" fill="#5cd6b3"/><path d="m23.41 28.59c.38.37.59.88.59 1.41s-.21 1.04-.59 1.41l-1.5 1.5-2.82-2.82 1.5-1.5c.37-.38.88-.59 1.41-.59s1.04.21 1.41.59z" fill="#5cd6b3"/><path d="m16.879 31.006h4.243v3.988h-4.243z" fill="#5cd6b3" transform="matrix(.707 -.707 .707 .707 -17.77 23.101)"/><path d="m5.67 31.09v.01c-.36.54-.97.9-1.67.9-1.1 0-2-.9-2-2s.9-2 2-2h.06c1.07.03 1.94.92 1.94 2 0 .4-.12.77-.33 1.09z" fill="#ff826e"/><path d="m57.12 26.88c.54.54.88 1.29.88 2.12 0 .62-.19 1.2-.51 1.68-.54.8-1.45 1.32-2.49 1.32h-5c-1.1 0-2 .9-2 2v4c0 .55-.22 1.05-.59 1.41-.36.37-.86.59-1.41.59-1.1 0-2-.9-2-2v-6c0-1.1-.9-2-2-2h-2c-.55 0-1.05-.22-1.41-.59-.37-.36-.59-.86-.59-1.41 0-1.1.9-2 2-2h.02 1.98c.55 0 1.05-.22 1.41-.59.37-.36.59-.86.59-1.41 0-1.1-.9-2-2-2h-2c-.55 0-1.05-.22-1.41-.59-.37-.36-.59-.86-.59-1.41 0-1.1.9-2 2-2h4 4 .38c1.3 0 2.55.37 3.62 1.05.79.5 1.47 1.17 2.01 1.97-1.24.76-2.01 2.12-2.01 3.59v.39c0 .55.45 1 1 1h2c.83 0 1.58.34 2.12.88z" fill="#69d6f4"/></g><path d="m58.095 32.981 1.146-1.432c1.133-1.417 1.806-3.122 1.945-4.933l.511-6.647c.194-2.528.604-5.056 1.221-7.516.055-.219.082-.445.082-.672 0-1.533-1.248-2.781-2.781-2.781-1.22 0-2.329.438-3.219 1.143v-4.143c0-1.654-1.346-3-3-3-.395 0-.77.081-1.116.22-.345-1.275-1.501-2.22-2.884-2.22s-2.538.945-2.884 2.22c-.346-.139-.721-.22-1.116-.22-1.654 0-3 1.346-3 3v1.184c-.314-.112-.648-.184-1-.184-1.654 0-3 1.346-3 3v7.184c-1.161.414-2 1.514-2 2.816s.839 2.402 2 2.816v2.333c0 .012.001.024.001.036-1.162.413-2.001 1.513-2.001 2.815s.839 2.402 2 2.816v30.184h-14v-38.101c.637-.13 1.229-.384 1.753-.732l1.54 1.54 1.414-1.414-1.54-1.54c.348-.524.602-1.116.732-1.753h2.101v-2h-2.101c-.13-.637-.384-1.229-.732-1.753l1.54-1.54-1.414-1.414-1.54 1.54c-.524-.348-1.116-.602-1.753-.732v-3.101c0-1.654-1.346-3-3-3-.352 0-.686.072-1 .184v-1.184c0-1.654-1.346-3-3-3-.395 0-.77.081-1.116.22-.345-1.275-1.501-2.22-2.884-2.22s-2.538.945-2.884 2.22c-.346-.139-.721-.22-1.116-.22s-.77.081-1.116.22c-.345-1.275-1.501-2.22-2.884-2.22-1.654 0-3 1.346-3 3s1.346 3 3 3c.352 0 .686-.072 1-.184v3.327c-.89-.705-1.999-1.143-3.219-1.143-1.533 0-2.781 1.248-2.781 2.781 0 .227.027.453.083.675.615 2.458 1.025 4.985 1.22 7.513l.511 6.648c.016.201.046.402.075.602-1.105.443-1.889 1.52-1.889 2.781 0 1.654 1.346 3 3 3 .573 0 1.104-.17 1.56-.45l.345.431c.706.883 1.095 1.993 1.095 3.123v24.896h-6v2h62v-2h-6v-24.896c0-1.13.389-2.24 1.095-3.123zm2.124-21.981c.43 0 .781.351.781.781 0 .064-.008.129-.022.188-.643 2.567-1.071 5.207-1.274 7.847l-.511 6.647c-.042.54-.163 1.062-.324 1.571-.435-1.738-1.998-3.034-3.869-3.034h-2v-.387c0-1.23.684-2.335 1.794-2.889 1.36-.677 2.206-2.043 2.206-3.564v-3.94c0-1.776 1.444-3.22 3.219-3.22zm-6.219-6c.552 0 1 .448 1 1v12.16c0 .608-.271 1.167-.734 1.54-.379-.441-.805-.833-1.266-1.174v-12.526c0-.552.448-1 1-1zm-5-1c0-.552.448-1 1-1s1 .448 1 1v13.462c-.639-.229-1.31-.372-2-.428zm-4 2c0-.552.448-1 1-1s1 .448 1 1v11h-2zm-3 3c.552 0 1 .448 1 1v7h-2v-7c0-.552.448-1 1-1zm-1 16v-2h1c.552 0 1 .448 1 1s-.448 1-1 1zm-1 2h2c1.654 0 3-1.346 3-3s-1.346-3-3-3h-2c-.552 0-1-.448-1-1s.448-1 1-1h8.375c1.622 0 3.146.676 4.229 1.843-1.013.968-1.604 2.315-1.604 3.77v.387c0 1.103.897 2 2 2h2c1.103 0 2 .897 2 2s-.897 2-2 2h-5c-1.654 0-3 1.346-3 3v4c0 .552-.448 1-1 1s-1-.448-1-1v-6c0-1.654-1.346-3-3-3h-2c-.552 0-1-.448-1-1s.448-1 1-1zm-23.914 7.5 1.414 1.414-.793.793c-.383.383-1.031.383-1.414 0-.191-.191-.293-.436-.293-.707s.102-.516.293-.707zm2.828 0-1.414-1.414 1.586-1.586 1.414 1.414zm3-3-1.414-1.414.793-.793c.191-.191.436-.293.707-.293s.516.102.707.293.293.436.293.707-.102.516-.293.707zm5.086-13.5c0 1.654-1.346 3-3 3-.499 0-.963-.134-1.378-.351 1.398-.624 2.378-2.021 2.378-3.649 0-.699-.186-1.365-.514-1.951 1.423.234 2.514 1.463 2.514 2.951zm-4.673-2.488c.42.374.673.908.673 1.488 0 1.041-.803 1.89-1.821 1.982-.108-.309-.179-.636-.179-.982 0-1.035.527-1.949 1.327-2.488zm-.327-6.512c.552 0 1 .448 1 1v3.101c-.743.152-1.416.482-2 .924v-4.025c0-.552.448-1 1-1zm-16-4c-.552 0-1-.448-1-1s.448-1 1-1 1 .448 1 1-.448 1-1 1zm-2 26c-.552 0-1-.448-1-1s.448-1 1-1 1 .448 1 1-.448 1-1 1zm3.466.731-.632-.79c.099-.297.166-.61.166-.941 0-1.34-.889-2.464-2.103-2.848-.04-.228-.072-.457-.089-.687l-.511-6.649c-.203-2.639-.632-5.278-1.273-7.844-.016-.062-.024-.126-.024-.191 0-.43.351-.781.781-.781 1.775 0 3.219 1.444 3.219 3.22v3.942c0 1.52.846 2.885 2.215 3.566 1.101.55 1.785 1.655 1.785 2.885v.387h2v-.387c0-1.993-1.108-3.784-2.901-4.678-.678-.337-1.099-1.017-1.099-1.773v-12.162c0-.552.448-1 1-1s1 .448 1 1v12h2v-14c0-.552.448-1 1-1s1 .448 1 1v14h2v-12c0-.552.448-1 1-1s1 .448 1 1v12c0 1.017.309 1.962.833 2.753l-1.54 1.54 1.414 1.414 1.54-1.54c.524.348 1.116.602 1.753.732v4.303c-1.059-.356-2.307-.137-3.121.677l-6 6c-.567.566-.879 1.32-.879 2.121s.312 1.555.879 2.121c.566.567 1.32.879 2.121.879s1.555-.312 2.121-.879l4.879-4.879v5.942c-.314-.112-.648-.184-1-.184-1.654 0-3 1.346-3 3s1.346 3 3 3c.352 0 .686-.072 1-.184v16.184h-14v-24.896c0-1.583-.545-3.136-1.534-4.373zm15.534 10.269c0 .552-.448 1-1 1s-1-.448-1-1 .448-1 1-1 1 .448 1 1zm18 19v-30h1c.552 0 1 .448 1 1v6c0 1.654 1.346 3 3 3s3-1.346 3-3v-4c0-.552.448-1 1-1h5c.268 0 .53-.029.784-.079-.502.982-.784 2.073-.784 3.183v24.896z"/><path d="m51 48c0 .552-.448 1-1 1s-1-.448-1-1v-5h-2v5c0 1.654 1.346 3 3 3s3-1.346 3-3v-9h-2z"/></g></svg>