<svg id="_x33_0" enable-background="new 0 0 64 64" height="512" viewBox="0 0 64 64" width="512" xmlns="http://www.w3.org/2000/svg"><g><g><path d="m44 20v9c0-3.12-1.59-5.87-4-7.47v-.01-1.52c0-1.1.9-2 2-2 .55 0 1.05.22 1.41.59.37.36.59.86.59 1.41z" fill="#f5e0cd"/><path d="m56 24.22c0-2.33 1.89-4.22 4.22-4.22.98 0 1.78.8 1.78 1.78 0 .15-.02.29-.05.43-.63 2.52-1.05 5.09-1.25 7.68l-.51 6.65c-.12 1.6-.73 3.13-1.73 4.39l-1.15 1.43c-.85 1.06-1.31 2.38-1.31 3.74v15.9h-14v-6c2.21 0 4-1.79 4-4s-1.79-4-4-4v-2.84c0-.77-.15-1.52-.43-2.23l-.14-.35c-.22-.56-.42-1.13-.59-1.71.73-1.1 1.16-2.43 1.16-3.87 0-.7-.11-1.37-.3-2.01 1.43-1.59 2.3-3.69 2.3-5.99v-9-4c0-1.1.9-2 2-2 .55 0 1.05.22 1.41.59.37.36.59.86.59 1.41v-2c0-1.1.9-2 2-2 .55 0 1.05.22 1.41.59.37.36.59.86.59 1.41v2c0-.8.47-1.49 1.15-1.81.26-.12.55-.19.85-.19.55 0 1.05.22 1.41.59.35.34.56.8.59 1.31v.1z" fill="#f5e0cd"/><path d="m10 16v-2c0-1.1.9-2 2-2 .55 0 1.05.22 1.41.59.07.07.13.14.19.21.25.34.4.75.4 1.2v2c0-1.1.9-2 2-2 .55 0 1.05.22 1.41.59.37.36.59.86.59 1.41v5 3.22c0-2.33 1.89-4.22 4.22-4.22.98 0 1.78.8 1.78 1.78 0 .15-.02.29-.05.43-.63 2.52-1.05 5.09-1.25 7.68l-.32 4.17-.19 2.48c-.08 1.04-.36 2.05-.82 2.97h-.01c-.25.5-.55.98-.9 1.42l-1.15 1.43c-.09.11-.17.22-.25.34-.69.99-1.06 2.18-1.06 3.4v8.9 7h-14v-16.84c0-.77-.15-1.52-.43-2.23l-.14-.35c-.94-2.37-1.43-4.89-1.43-7.43v-15.15c0-1.1.9-2 2-2 .55 0 1.05.22 1.41.59.37.36.59.86.59 1.41v-4c0-1.1.9-2 2-2 .55 0 1.05.22 1.41.59.37.36.59.86.59 1.41z" fill="#f5e0cd"/><g fill="#69d6f4"><circle cx="21" cy="55" r="3"/><circle cx="42" cy="52" r="4"/><path d="m53.15 14.19c-.72-.87-1.15-1.98-1.15-3.19 0-2.76 2.24-5 5-5s5 2.24 5 5-2.24 5-5 5c-.34 0-.68-.03-1-.1-.03-.51-.24-.97-.59-1.31-.36-.37-.86-.59-1.41-.59-.3 0-.59.07-.85.19z"/><path d="m16 8c0 1.96-.94 3.71-2.4 4.8-.06-.07-.12-.14-.19-.21-.36-.37-.86-.59-1.41-.59-1.1 0-2 .9-2 2-3.31 0-6-2.69-6-6s2.69-6 6-6 6 2.69 6 6z"/><circle cx="28" cy="8" r="2"/><path d="m22.7 29.89c.2-2.59.62-5.16 1.25-7.68.03-.14.05-.28.05-.43 0-.98-.8-1.78-1.78-1.78-2.33 0-4.22 1.89-4.22 4.22v-3.22c0-2.76 2.24-5 5-5 1.07 0 2.05.34 2.86.91 1.05-1.74 2.96-2.91 5.14-2.91 3.31 0 6 2.69 6 6 0 .08-.01.15-.01.23 1.09.24 2.11.69 3.01 1.3 2.41 1.6 4 4.35 4 7.47 0 2.3-.87 4.4-2.3 5.99.19.64.3 1.31.3 2.01 0 1.44-.43 2.77-1.16 3.87-1.26 1.89-3.4 3.13-5.84 3.13-1.52 0-2.92-.49-4.06-1.31-1.24 1.99-3.43 3.31-5.94 3.31s-4.71-1.32-5.94-3.3c.08-.12.16-.23.25-.34l1.15-1.43c.35-.44.65-.92.9-1.42h.01c.47.31 1.03.49 1.63.49 1.66 0 3-1.34 3-3s-1.34-3-3-3c-.21 0-.42.02-.62.06z"/></g><path d="m23 34c1.66 0 3 1.34 3 3s-1.34 3-3 3c-.6 0-1.16-.18-1.63-.49.46-.92.74-1.93.82-2.97l.19-2.48c.2-.04.41-.06.62-.06z" fill="#3bafda"/><circle cx="36" cy="29" fill="#3bafda" r="2"/><circle cx="26" cy="25" fill="#3bafda" r="2"/></g><path d="m63 11c0-3.309-2.691-6-6-6s-6 2.691-6 6c0 .064.015.126.017.189-.319-.115-.659-.189-1.017-.189-1.383 0-2.538.945-2.884 2.22-.346-.139-.721-.22-1.116-.22-1.654 0-3 1.346-3 3v1.184c-.314-.112-.648-.184-1-.184-1.603 0-2.904 1.266-2.985 2.849-.336-.146-.679-.281-1.036-.391-.277-3.608-3.302-6.458-6.979-6.458-2.139 0-4.105.951-5.426 2.585-.803-.385-1.677-.585-2.574-.585-1.538 0-2.937.586-4 1.54v-.54c0-1.654-1.346-3-3-3-.395 0-.77.081-1.116.22-.014-.053-.032-.105-.049-.157 1.385-1.316 2.165-3.12 2.165-5.063 0-3.86-3.14-7-7-7s-7 3.14-7 7c0 2.385 1.201 4.493 3.028 5.757-.625.55-1.028 1.347-1.028 2.243v1.184c-.314-.112-.648-.184-1-.184-1.654 0-3 1.346-3 3v15.148c0 2.684.505 5.308 1.502 7.798l.141.352c.237.594.357 1.218.357 1.857v15.845h-2v2h62v-2h-6v-14.896c0-1.131.389-2.24 1.096-3.124l1.145-1.431c1.134-1.417 1.807-3.123 1.946-4.932l.512-6.649c.194-2.527.604-5.055 1.22-7.516.053-.219.081-.446.081-.671 0-1.533-1.248-2.781-2.781-2.781-1.22 0-2.329.438-3.219 1.143v-3.143c3.309 0 6-2.691 6-6zm-6-4c2.206 0 4 1.794 4 4s-1.794 4-4 4c-.064 0-.126-.016-.19-.019-.419-1.152-1.515-1.981-2.81-1.981-.148 0-.289.023-.432.044-.366-.616-.568-1.321-.568-2.044 0-2.206 1.794-4 4-4zm-16 13c0-.551.449-1 1-1s1 .449 1 1v2.982c-.566-.752-1.239-1.419-2-1.986zm-18-3c.818 0 1.61.252 2.29.729l.877.616.554-.917c.915-1.521 2.515-2.428 4.279-2.428 2.757 0 5 2.243 4.996 5.067l-.039.953.811.183c3.669.829 6.232 4.035 6.232 7.797 0 1.96-.725 3.851-2.042 5.324l-.373.417.161.536c.169.563.254 1.142.254 1.723 0 3.309-2.691 6-6 6-1.251 0-2.455-.387-3.481-1.12l-.866-.619-.563.904c-1.108 1.775-3.01 2.835-5.09 2.835-1.856 0-3.565-.842-4.699-2.276l.939-1.174c.192-.24.351-.499.516-.754.4.131.817.204 1.244.204 2.206 0 4-1.794 4-4 0-2.048-1.553-3.722-3.539-3.953l.237-3.077c.07-.917.179-1.833.306-2.746.531.477 1.227.776 1.996.776 1.654 0 3-1.346 3-3s-1.346-3-3-3c-.371 0-.723.076-1.051.2.021-.139.051-.279.051-.419 0-1.533-1.248-2.781-2.781-2.781-1.159 0-2.221.393-3.088 1.035.435-1.739 1.998-3.035 3.869-3.035zm19 38c-1.654 0-3-1.346-3-3s1.346-3 3-3 3 1.346 3 3-1.346 3-3 3zm-1-7.899c-2.279.465-4 2.484-4 4.899s1.721 4.434 4 4.899v4.101h-22v-2.556c.591.344 1.268.556 2 .556 2.206 0 4-1.794 4-4s-1.794-4-4-4c-.732 0-1.409.212-2 .556v-5.452c0-.53.093-1.053.256-1.553 1.491 1.549 3.537 2.449 5.744 2.449 2.439 0 4.695-1.091 6.206-2.961 1.164.631 2.458.961 3.794.961 2.112 0 4.03-.829 5.461-2.17.015.038.026.079.041.117l.141.352c.237.593.357 1.217.357 1.856zm-22 7.899c0-1.103.897-2 2-2s2 .897 2 2-.897 2-2 2-2-.897-2-2zm4.186-18.382.122-1.587c.956.15 1.692.972 1.692 1.969 0 1.103-.897 2-2 2-.112 0-.219-.029-.327-.047.267-.749.451-1.529.513-2.335zm1.814-11.618c0-.551.449-1 1-1s1 .449 1 1-.449 1-1 1-1-.449-1-1zm-20-17c0-2.757 2.243-5 5-5s5 2.243 5 5c0 1.318-.509 2.542-1.407 3.468-.463-.292-1.006-.468-1.593-.468-1.273 0-2.356.799-2.791 1.92-2.38-.382-4.209-2.434-4.209-4.92zm-.5 34.557-.141-.352c-.902-2.254-1.359-4.628-1.359-7.057v-15.148c0-.551.449-1 1-1s1 .449 1 1v9h2v-13c0-.551.449-1 1-1s1 .449 1 1v13h2v-15c0-.551.449-1 1-1s1 .449 1 1v15h2v-13c0-.551.449-1 1-1s1 .449 1 1v13h2v-4.78c0-1.775 1.444-3.22 3.219-3.22.431 0 .781.35.781.781 0 .063-.008.127-.023.189-.642 2.568-1.07 5.208-1.273 7.846l-.512 6.649c-.108 1.408-.631 2.734-1.513 3.836l-1.145 1.431c-.989 1.236-1.534 2.789-1.534 4.372v14.896h-12v-15.845c0-.895-.168-1.769-.5-2.598zm55.719-21.557c.431 0 .781.35.781.781 0 .063-.008.127-.023.189-.642 2.568-1.07 5.208-1.273 7.846l-.512 6.649c-.108 1.408-.631 2.734-1.513 3.836l-1.145 1.431c-.989 1.236-1.534 2.789-1.534 4.372v14.896h-12v-4.101c2.279-.465 4-2.484 4-4.899s-1.721-4.434-4-4.899v-1.946c0-.895-.168-1.77-.5-2.599l-.141-.352c-.161-.402-.295-.815-.427-1.228.675-1.172 1.068-2.528 1.068-3.976 0-.591-.066-1.182-.198-1.761 1.421-1.773 2.198-3.968 2.198-6.239v-13c0-.551.449-1 1-1s1 .449 1 1v12h2v-14c0-.551.449-1 1-1s1 .449 1 1v14h2v-12c0-.551.449-1 1-1s1 .449 1 1v12.163c0 .755-.421 1.435-1.108 1.777-1.784.889-2.892 2.68-2.892 4.673v.387h2v-.387c0-1.229.684-2.334 1.793-2.888 1.361-.678 2.207-2.043 2.207-3.562v-3.943c0-1.776 1.444-3.22 3.219-3.22z"/><path d="m36 32c1.654 0 3-1.346 3-3s-1.346-3-3-3-3 1.346-3 3 1.346 3 3 3zm0-4c.551 0 1 .449 1 1s-.449 1-1 1-1-.449-1-1 .449-1 1-1z"/><path d="m25 8c0 1.654 1.346 3 3 3s3-1.346 3-3-1.346-3-3-3-3 1.346-3 3zm4 0c0 .551-.449 1-1 1s-1-.449-1-1 .449-1 1-1 1 .449 1 1z"/></g></svg>