<svg id="_x33_0" enable-background="new 0 0 64 64" height="512" viewBox="0 0 64 64" width="512" xmlns="http://www.w3.org/2000/svg"><g><g><path d="m32 4v1.23c0 1.01-.75 1.86-1.75 1.99l-12.5 1.56c-1 .13-1.75.98-1.75 1.99v2.23c0 .55-.45 1-1 1h-1-10-1c-.55 0-1-.45-1-1v-7c0-2.21 1.79-4 4-4h24c1.1 0 2 .9 2 2z" fill="#ffeaa7"/><path d="m42 29v2c0 .55-.45 1-1 1h-1-6-1c-.55 0-1-.45-1-1v-2c0-.55.45-1 1-1h1 6 1c.55 0 1 .45 1 1z" fill="#fcd770"/><path d="m40 26v2h-6v-2c0-1.1-.9-2-2-2h-16v-6h16c4.42 0 8 3.58 8 8z" fill="#ffeaa7"/><path d="m16 18v6 2h-14v-7c0-.55.45-1 1-1h1 10z" fill="#ffeaa7"/><path d="m2 26h14v36h-14z" fill="#fcd770"/><path d="m4 14h10v4h-10z" fill="#fcd770"/><g fill="#69d6f4"><circle cx="37" cy="15" r="3"/><circle cx="55" cy="9" r="7"/><circle cx="49" cy="35" r="3"/><path d="m40 48.14v.01 5.85h-3.29c-.96 0-1.88-.23-2.71-.65v-12.35-9h6z"/></g><path d="m63 50v12h-25.47c-6.37 0-11.53-5.16-11.53-11.53 0-1.36 1.11-2.47 2.47-2.47.94 0 1.79.53 2.21 1.37l.66 1.31c.59 1.18 1.53 2.1 2.66 2.67.83.42 1.75.65 2.71.65h3.29 5.39c.89 0 1.61-.72 1.61-1.61 0-.8-.59-1.47-1.38-1.59l-3.78-.54c-1.05-.15-1.83-1.05-1.84-2.11v-.01c0-1.18.96-2.14 2.14-2.14h8.15c2.27 0 4.35 1.28 5.37 3.32l.34.68z" fill="#f5e0cd"/></g><path d="m56.553 48.87c-1.195-2.387-3.593-3.87-6.261-3.87h-8.147c-.399 0-.784.079-1.145.22v-12.22c1.103 0 2-.897 2-2v-2c0-1.103-.897-2-2-2v-1c0-2.86-1.346-5.408-3.432-7.057 1.935-.279 3.432-1.932 3.432-3.943 0-2.206-1.794-4-4-4s-4 1.794-4 4c0 .796.24 1.534.642 2.157-.533-.099-1.081-.157-1.642-.157h-17v-2c1.103 0 2-.897 2-2v-2.234c0-.503.377-.93.876-.992l12.496-1.562c1.498-.188 2.628-1.468 2.628-2.978v-1.234c0-1.654-1.346-3-3-3h-24c-2.757 0-5 2.243-5 5v7c0 1.103.897 2 2 2v2c-1.103 0-2 .897-2 2v44h16v-38h15c.552 0 1 .449 1 1v1c-1.103 0-2 .897-2 2v2c0 1.103.897 2 2 2v6h2v-6h4v20h-2.292c-.596 0-1.17-.115-1.708-.31v-11.69h-2v10.353c-.298-.331-.557-.705-.764-1.118l-.658-1.316c-.593-1.184-1.783-1.919-3.106-1.919-1.914 0-3.472 1.558-3.472 3.472 0 6.908 5.62 12.528 12.527 12.528h25.473v-2h-25.473c-5.804 0-10.527-4.723-10.527-10.528 0-.811.66-1.472 1.472-1.472.562 0 1.066.312 1.317.814l.658 1.316c1.195 2.387 3.593 3.87 6.261 3.87h8.686c1.437 0 2.606-1.169 2.606-2.606 0-1.288-.961-2.396-2.236-2.579l-3.779-.541c-.559-.08-.98-.566-.981-1.13 0-.305.118-.593.334-.809s.502-.335.807-.335h8.147c1.905 0 3.619 1.059 4.472 2.764l.618 1.236h7.618v-2h-6.382zm-19.553-35.87c1.103 0 2 .897 2 2s-.897 2-2 2-2-.897-2-2 .897-2 2-2zm-34-7c0-1.654 1.346-3 3-3h24c.552 0 1 .449 1 1v1.234c0 .503-.377.93-.876.992l-12.496 1.563c-1.498.187-2.628 1.467-2.628 2.977l.001 2.234h-12.001zm2 9h8v2h-8zm10 4v6h-12v-6zm-12 42v-34h12v34zm29-38h-15v-4h15c3.859 0 7 3.14 7 7v1h-4v-1c0-1.654-1.346-3-3-3zm1 6h8l.001 2h-8.001zm8.701 22.253 3.779.541c.296.042.52.3.52.6 0 .334-.272.606-.606.606h-4.394v-1.944c.224.089.455.162.701.197z"/><path d="m55 1c-4.411 0-8 3.589-8 8s3.589 8 8 8 8-3.589 8-8-3.589-8-8-8zm0 14c-3.309 0-6-2.691-6-6s2.691-6 6-6 6 2.691 6 6-2.691 6-6 6z"/><path d="m49 39c2.206 0 4-1.794 4-4s-1.794-4-4-4-4 1.794-4 4 1.794 4 4 4zm0-6c1.103 0 2 .897 2 2s-.897 2-2 2-2-.897-2-2 .897-2 2-2z"/></g></svg>