<svg id="_x33_0" enable-background="new 0 0 64 64" height="512" viewBox="0 0 64 64" width="512" xmlns="http://www.w3.org/2000/svg"><g><g fill="#f5e0cd"><path d="m14.18 46c-.12-.31-.18-.65-.18-1 0-.83.34-1.58.88-2.12s1.29-.88 2.12-.88h3.78 11.15c1.33 0 2.6.53 3.53 1.46l1.95 1.95c.38.38.89.59 1.42.59h23.17v14h-22.76c-1.49 0-2.97.21-4.39.62l-2.53.72c-1.54.44-3.13.66-4.74.66-3 0-5.95-.78-8.56-2.27l-15.74-9c-.79-.45-1.28-1.29-1.28-2.2 0-1.4 1.13-2.53 2.53-2.53h9.64zm2.82 2 2.37 2.37c1.04 1.04 2.46 1.63 3.94 1.63 1.1 0 2.18-.33 3.1-.94l1.01-.67c.36-.24.58-.65.58-1.09 0-.72-.58-1.3-1.3-1.3z"/><path d="m18 36-.14.28c-.53 1.06-1.6 1.72-2.78 1.72-1.26 0-2.39-.76-2.87-1.92l-5.7-13.84c-.34-.82-.51-1.7-.51-2.58 0-1.71.64-3.36 1.8-4.61l7.23-7.83c1.89-2.05 4.56-3.22 7.35-3.22h39.62v14h-26.56c-.86 0-1.62.55-1.9 1.37l-.82 2.47c-.47 1.41-1.33 2.66-2.47 3.62l-1.92 1.6c-1.51 1.26-2.57 2.98-3.01 4.89l-1.82 7.89c-.14.63-.5 1.17-.98 1.55-.48.39-1.09.61-1.74.61-1.53 0-2.78-1.25-2.78-2.78zm.36-16.35h-.01l-4.35 4.35 4 10v-12c0-.81.12-1.6.36-2.35z"/></g><path d="m61 3h-38.622c-3.061 0-6.007 1.29-8.083 3.539l-7.228 7.831c-1.333 1.443-2.067 3.321-2.067 5.286 0 1.023.198 2.021.587 2.967l5.696 13.833c.636 1.546 2.126 2.544 3.797 2.544.688 0 1.34-.176 1.92-.483v.698c0 .649.179 1.251.468 1.785h-.468c-2.206 0-4 1.794-4 4h-8.469c-1.947 0-3.531 1.584-3.531 3.531 0 1.265.682 2.439 1.779 3.065l15.746 8.998c2.755 1.574 5.887 2.406 9.058 2.406 1.696 0 3.384-.236 5.016-.702l2.521-.721c1.34-.383 2.727-.577 4.121-.577h21.759v2h2v-62h-2zm-44 25.807-1.826-4.566 1.826-1.827zm2 10.408v-17.215c0-2.191 1.047-4.285 2.8-5.6l.8-.6-1.2-1.6-.8.6c-1.454 1.091-2.523 2.6-3.104 4.289l-3.91 3.911h-2.586v2h2.323l3.677 9.193v1.571l-.036.072c-.359.718-1.081 1.164-1.884 1.164-.857 0-1.621-.512-1.947-1.305l-5.696-13.833c-.29-.703-.437-1.445-.437-2.206 0-1.461.546-2.856 1.537-3.93l7.229-7.831c1.698-1.84 4.108-2.895 6.612-2.895h38.622v12h-25.559c-1.293 0-2.437.824-2.846 2.051l-.824 2.473c-.412 1.236-1.159 2.331-2.16 3.165l-1.925 1.604c-1.667 1.389-2.854 3.319-3.342 5.434l-1.821 7.891c-.188.814-.902 1.382-1.738 1.382-.984 0-1.785-.801-1.785-1.785zm42-20.215v26h-22.171c-.267 0-.519-.104-.708-.293l-1.949-1.949c-1.133-1.134-2.64-1.758-4.243-1.758h-7.819c.155-.291.286-.599.363-.934l1.821-7.89c.39-1.692 1.34-3.235 2.673-4.347l1.925-1.604c1.287-1.072 2.247-2.479 2.777-4.068l.824-2.473c.136-.409.517-.684.948-.684zm-21.759 40c-1.58 0-3.151.22-4.67.653l-2.521.721c-4.171 1.191-8.768.636-12.533-1.516l-15.746-8.998c-.476-.271-.771-.781-.771-1.329 0-.844.687-1.531 1.531-1.531h9.016c.624 1.073 1.724 1.835 3.015 1.977l2.097 2.097c1.242 1.241 2.895 1.926 4.652 1.926 1.303 0 2.564-.382 3.649-1.104l1.014-.677c.643-.428 1.026-1.144 1.026-1.916 0-1.27-1.033-2.303-2.303-2.303h-9.697c-1.103 0-2-.897-2-2s.897-2 2-2h14.929c1.069 0 2.073.416 2.829 1.172l1.95 1.949c.565.567 1.319.879 2.121.879h22.171v12zm-19.827-10h7.283c.167 0 .303.136.303.303 0 .102-.05.195-.135.252l-1.015.677c-.754.502-1.632.768-2.539.768-1.223 0-2.373-.477-3.238-1.341z"/></g></svg>