<svg id="_x33_0" enable-background="new 0 0 64 64" height="512" viewBox="0 0 64 64" width="512" xmlns="http://www.w3.org/2000/svg"><g><g><path d="m14 6v3c0-.83-.34-1.58-.88-2.12s-1.29-.88-2.12-.88c-1.66 0-3 1.34-3 3v9c-2.21 0-4-1.79-4-4 0-.83.25-1.6.69-2.24-1.56-.54-2.69-2.01-2.69-3.76 0-2.21 1.79-4 4-4 .18 0 .35.03.53.05.68-1.22 1.97-2.05 3.47-2.05 2.21 0 4 1.79 4 4z" fill="#69d6f4"/><g fill="#f5e0cd"><path d="m31.83 12.01c-1.03.08-1.83.93-1.83 1.98v5.35c-.63-.22-1.3-.34-2-.34s-1.38.12-2 .34v-6.34c0-1.66 1.34-3 3-3 1.31 0 2.42.84 2.83 2.01z"/><path d="m30 56.76v5.24h-20v-11.78c0-1.43-.51-2.82-1.44-3.91l-1.67-1.94c-1.87-2.17-2.89-4.94-2.89-7.81v-5.66c0-3.24-.62-6.44-1.82-9.45-.12-.3-.18-.61-.18-.93 0 0 0 0 0-.01 0-1.38 1.12-2.51 2.53-2.51h.09c1.28 0 2.46.45 3.38 1.2 1.22.98 2 2.49 2 4.18v5.62l.02.01c-1.23.9-2.02 2.35-2.02 3.99 0 2 1.19 3.72 2.89 4.52-.55.68-.89 1.54-.89 2.48 0 2.21 1.79 4 4 4 0 2.62 1.68 4.84 4.02 5.66-.01.11-.02.22-.02.34 0 3.31 2.69 6 6 6 2.25 0 4.2-1.24 5.23-3.06.51 1.2.77 2.5.77 3.82z"/><path d="m20 9v15.06c-.35.07-.68.22-.96.43-.61-.31-1.3-.49-2.04-.49-1.16 0-2.21.44-3 1.16v-16.16-3-1c0-1.66 1.34-3 3-3 .83 0 1.58.34 2.12.88s.88 1.29.88 2.12z"/><path d="m14 9v16.16c-.8.73-1.33 1.75-1.45 2.89-.94.08-1.81.43-2.53.96l-.02-.01v-5.62c0-1.69-.78-3.2-2-4.18v-.01-1.19-9c0-1.66 1.34-3 3-3 .83 0 1.58.34 2.12.88s.88 1.29.88 2.12z"/><path d="m26 19.34c-2.11.74-3.67 2.63-3.95 4.91-.48-.16-.99-.25-1.51-.25-.19 0-.37.02-.54.06v-15.06c0-.83.34-1.58.88-2.12s1.29-.88 2.12-.88c1.66 0 3 1.34 3 3v4z"/><path d="m21.43 37.25c-.38-1.74-.88-3.45-1.51-5.13l-1.76-4.69c-.11-.28-.16-.59-.16-.89 0-.7.28-1.34.74-1.8.09-.09.19-.18.3-.25.28-.21.61-.36.96-.43.17-.04.35-.06.54-.06.52 0 1.03.09 1.51.25.45.16.88.39 1.26.67.79.58 1.39 1.41 1.68 2.39l1.43 4.77c.35 1.14 1.39 1.92 2.58 1.92.55 0 1-.45 1-1v-13.66-5.35c0-1.05.8-1.9 1.83-1.98.05-.01.11-.01.16-.01h.05c1.11 0 2.01.85 2.06 1.94.2 3.81.64 12.17.82 15.57.05.84.73 1.49 1.57 1.49s1.54-.67 1.57-1.51l.86-21.55c.04-1.08.94-1.94 2.02-1.94h.05c1.13 0 2.05.88 2.1 2l.84 19.5c.04.84.73 1.5 1.57 1.5s1.53-.66 1.57-1.5l.84-17.55c.05-1.09.95-1.95 2.04-1.95.57 0 1.08.23 1.45.6s.6.88.6 1.45v19.76c0 .66.53 1.19 1.19 1.19.49 0 .93-.3 1.1-.76l4.27-11.1c.27-.69.93-1.14 1.66-1.14.98 0 1.78.8 1.78 1.78 0 .15-.02.29-.05.43l-5.19 20.76c-.23.89-.48 1.77-.78 2.65-.19-2.03-1.9-3.62-3.98-3.62 0-2.21-1.79-4-4-4-.18 0-.35.03-.53.05-.68-1.22-1.97-2.05-3.47-2.05-2.21 0-4 1.79-4 4 0 .18.03.35.05.53-1.22.68-2.05 1.97-2.05 3.47 0 .83.25 1.6.69 2.24-1.56.54-2.69 2.01-2.69 3.76 0 2.21 1.79 4 4 4 .18 0 .35-.03.53-.05.68 1.22 1.97 2.05 3.47 2.05.83 0 1.6-.25 2.24-.69.54 1.56 2.01 2.69 3.76 2.69.73 0 1.41-.2 2-.54v.09 6.45h-22v-5.24c0-1.32-.26-2.62-.77-3.82-.37-.93-.9-1.8-1.55-2.58v-.01c-.05-.06-.1-.12-.15-.18l-2.25-2.56c-.41-.47-.78-.97-1.12-1.49-.89-1.37-1.51-2.9-1.84-4.52l-.39-1.95-.33-1.64c-.05-.26-.1-.51-.17-.76z"/></g><path d="m30 19.34v13.66c0 .55-.45 1-1 1-1.19 0-2.23-.78-2.58-1.92l-1.43-4.77c-.29-.98-.89-1.81-1.68-2.39-.38-.28-.81-.51-1.26-.67.28-2.28 1.84-4.17 3.95-4.91.62-.22 1.3-.34 2-.34s1.37.12 2 .34z" fill="#69d6f4"/><path d="m27.68 50.36c.65.78 1.18 1.65 1.55 2.58-1.03 1.82-2.98 3.06-5.23 3.06-3.31 0-6-2.69-6-6 0-.12.01-.23.02-.34-2.34-.82-4.02-3.04-4.02-5.66-2.21 0-4-1.79-4-4 0-.94.34-1.8.89-2.48-1.7-.8-2.89-2.52-2.89-4.52 0-1.64.79-3.09 2.02-3.99.72-.53 1.59-.88 2.53-.96.12-1.14.65-2.16 1.45-2.89.79-.72 1.84-1.16 3-1.16.74 0 1.43.18 2.04.49-.11.07-.21.16-.3.25-.46.46-.74 1.1-.74 1.8 0 .3.05.61.16.89l1.76 4.69c.63 1.68 1.13 3.39 1.51 5.13-.54-.75-1.42-1.25-2.43-1.25-1.66 0-3 1.34-3 3s1.34 3 3 3c1.43 0 2.63-1.01 2.93-2.35l.39 1.95c.33 1.62.95 3.15 1.84 4.52-1.25.36-2.16 1.51-2.16 2.88 0 1.66 1.34 3 3 3 1.17 0 2.17-.67 2.68-1.64z" fill="#69d6f4"/><path d="m27.68 50.35v.01c-.51.97-1.51 1.64-2.68 1.64-1.66 0-3-1.34-3-3 0-1.37.91-2.52 2.16-2.88.34.52.71 1.02 1.12 1.49l2.25 2.56z" fill="#3bafda"/><path d="m21.6 38.01.33 1.64c-.3 1.34-1.5 2.35-2.93 2.35-1.66 0-3-1.34-3-3s1.34-3 3-3c1.01 0 1.89.5 2.43 1.25.07.25.12.5.17.76z" fill="#3bafda"/><path d="m48 36c2.21 0 4 1.79 4 4 2.08 0 3.79 1.59 3.98 3.62v.01c.01.12.02.25.02.37 0 .18-.03.35-.05.53 1.22.68 2.05 1.97 2.05 3.47 0 2.21-1.79 4-4 4 0 1.48-.8 2.77-2 3.46-.59.34-1.27.54-2 .54-1.75 0-3.22-1.13-3.76-2.69-.64.44-1.41.69-2.24.69-1.5 0-2.79-.83-3.47-2.05-.18.02-.35.05-.53.05-2.21 0-4-1.79-4-4 0-1.75 1.13-3.22 2.69-3.76-.44-.64-.69-1.41-.69-2.24 0-1.5.83-2.79 2.05-3.47-.02-.18-.05-.35-.05-.53 0-2.21 1.79-4 4-4 1.5 0 2.79.83 3.47 2.05.18-.02.35-.05.53-.05z" fill="#69d6f4"/><circle cx="54" cy="46" fill="#3bafda" r="2"/><circle cx="46" cy="46" fill="#3bafda" r="2"/><circle cx="46" cy="38" fill="#3bafda" r="2"/></g><path d="m62.917 20.455c.056-.22.083-.447.083-.674.001-.743-.288-1.441-.813-1.966-.525-.526-1.223-.815-1.965-.815-1.143 0-2.185.716-2.594 1.781l-4.27 11.1c-.064.168-.359.113-.358-.067v-19.766c0-1.68-1.367-3.048-3.048-3.048-1.63 0-2.967 1.275-3.044 2.903l-.836 17.554c-.014.304-.264.543-.569.543-.306 0-.556-.239-.569-.545l-.848-19.494c-.072-1.66-1.431-2.961-3.143-2.961-1.63 0-2.957 1.276-3.021 2.904l-.86 21.548c-.013.307-.263.548-.572.548-.304 0-.555-.236-.57-.538l-.817-15.57c-.077-1.458-1.175-2.624-2.616-2.845-.7-1.246-2.025-2.047-3.487-2.047-.732 0-1.409.212-2 .556v-.556c0-2.206-1.794-4-4-4-.732 0-1.409.212-2 .556v-.556c0-2.206-1.794-4-4-4-1.352 0-2.543.678-3.268 1.707-.917-1.038-2.242-1.707-3.732-1.707-1.569 0-3.04.752-3.979 2-.006 0-.014 0-.021 0-2.757 0-5 2.243-5 5 0 1.728.903 3.308 2.33 4.209-.218.568-.33 1.173-.33 1.791 0 1.152.407 2.201 1.064 3.047-1.725.229-3.064 1.689-3.064 3.469 0 .447.084.886.251 1.306 1.16 2.901 1.749 5.955 1.749 9.079v5.66c0 3.101 1.111 6.105 3.13 8.46l1.666 1.944c.776.907 1.204 2.062 1.204 3.255v10.78h-8v2h62v-2h-10v-5.022c.976-.738 1.684-1.813 1.916-3.062 2.321-.432 4.084-2.472 4.084-4.916 0-1.568-.752-3.04-2-3.979 0-.007 0-.014 0-.021 0-.072-.016-.14-.019-.211.279-.853.533-1.719.746-2.579zm-33.917 12.545c-.751 0-1.401-.483-1.617-1.203l-1.434-4.774c-.448-1.491-1.455-2.676-2.753-3.364.593-2.127 2.536-3.659 4.804-3.659.339 0 .672.044.999.111zm0-22c.5 0 .954.202 1.312.518-.792.539-1.314 1.448-1.314 2.476v4.09c-.329-.047-.661-.084-.998-.084-.34 0-.672.032-1 .079v-5.079c0-1.103.897-2 2-2zm-6-4c1.103 0 2 .897 2 2v9.68c-1.783.849-3.159 2.43-3.721 4.379-.092-.012-.186-.015-.279-.022v-14.037c0-1.103.897-2 2-2zm.828 40.387c.224.302.455.598.703.881l1.874 2.142c-.368.369-.865.59-1.405.59-1.103 0-2-.897-2-2 0-.649.323-1.243.828-1.613zm-3.316-9.676c.036.166.077.331.11.498l.278 1.392c-.259.819-1.028 1.399-1.9 1.399-1.103 0-2-.897-2-2s.897-2 2-2c.586 0 1.134.269 1.512.711zm-1.512-2.711c-2.206 0-4 1.794-4 4s1.794 4 4 4c.899 0 1.744-.313 2.425-.835.282 1.235.73 2.422 1.329 3.531-1.07.732-1.754 1.962-1.754 3.304 0 2.206 1.794 4 4 4 .994 0 1.92-.366 2.635-.996.17.272.329.551.468.838-.929 1.338-2.457 2.158-4.103 2.158-2.757 0-5-2.243-5-5 0-.062.005-.122.009-.182l.053-.854-.713-.25c-2.003-.702-3.349-2.597-3.349-4.714v-1h-1c-1.654 0-3-1.346-3-3 0-.668.231-1.312.668-1.86l.791-.991-1.147-.538c-1.405-.658-2.312-2.076-2.312-3.611 0-2.067 1.563-3.769 3.637-3.958l.821-.075.083-.82c.182-1.794 1.669-3.147 3.459-3.147.118 0 .23.029.345.04-.215.457-.345.962-.345 1.5 0 .427.076.846.226 1.243l1.759 4.692c.323.859.611 1.736.869 2.623-.279-.062-.564-.098-.854-.098zm-6-10.257c-.624.67-1.086 1.496-1.315 2.426-.237.052-.46.135-.685.214v-4.002c0-1.816-.766-3.453-2-4.616v-9.765c0-1.103.897-2 2-2s2 .897 2 2zm2-19.743c0-1.103.897-2 2-2s2 .897 2 2v18.367c-.005.002-.01.005-.014.008-.631-.244-1.307-.375-1.986-.375-.707 0-1.378.145-2 .389zm-12 3c0-1.654 1.346-3 3-3 .1 0 .195.017.292.03l.774.103.332-.59c.535-.952 1.532-1.543 2.602-1.543 1.494 0 2.725 1.1 2.953 2.531-.58-.328-1.24-.531-1.953-.531-2.206 0-4 1.794-4 4v7.816c-1.161-.414-2-1.514-2-2.816 0-.602.178-1.182.514-1.679l.728-1.075-1.226-.429c-1.205-.422-2.016-1.554-2.016-2.817zm6.314 37.664-1.666-1.944c-1.708-1.992-2.648-4.535-2.648-7.159v-5.66c0-3.379-.637-6.684-1.892-9.821-.072-.182-.108-.372-.108-.565 0-.835.687-1.515 1.619-1.515 2.416 0 4.381 1.965 4.381 4.381v5.155c-1.235 1.095-2 2.69-2 4.464 0 1.932.952 3.737 2.496 4.853-.326.669-.496 1.397-.496 2.147 0 2.436 1.751 4.47 4.06 4.911.31 2.347 1.798 4.394 3.948 5.411.169 3.711 3.24 6.678 6.992 6.678 1.826 0 3.547-.723 4.833-1.951.108.559.167 1.131.167 1.708v4.243h-18v-10.78c0-1.67-.599-3.287-1.686-4.556zm44.686 5.336h-1v1c0 1.654-1.346 3-3 3-1.263 0-2.395-.81-2.816-2.016l-.43-1.226-1.075.728c-.497.336-1.077.514-1.679.514-1.07 0-2.067-.591-2.602-1.542l-.332-.59-.774.103c-.097.012-.192.029-.292.029-1.654 0-3-1.346-3-3 0-1.263.811-2.395 2.016-2.817l1.226-.429-.728-1.075c-.336-.497-.514-1.077-.514-1.679 0-1.07.591-2.067 1.543-2.603l.588-.331-.102-.785c-.013-.092-.029-.184-.029-.281 0-1.654 1.346-3 3-3 .34 0 .666.079.979.191-1.151.42-1.979 1.515-1.979 2.809 0 1.654 1.346 3 3 3s3-1.346 3-3c0-.301-.058-.585-.141-.859 1.234.372 2.141 1.505 2.141 2.859v1h1c1.354 0 2.487.907 2.859 2.141-.274-.083-.558-.141-.859-.141-1.654 0-3 1.346-3 3s1.346 3 3 3c1.294 0 2.389-.828 2.809-1.979.112.314.191.639.191.979 0 1.654-1.346 3-3 3zm-8-14c.552 0 1 .449 1 1s-.448 1-1 1-1-.449-1-1 .448-1 1-1zm9 9c0 .551-.448 1-1 1s-1-.449-1-1 .448-1 1-1 1 .449 1 1zm-2.084-6.916c-.432-2.321-2.472-4.084-4.916-4.084-.007 0-.015 0-.021 0-.938-1.248-2.409-2-3.979-2-2.757 0-5 2.243-5 5v.021c-1.248.939-2 2.41-2 3.979 0 .618.112 1.223.33 1.791-1.427.901-2.33 2.481-2.33 4.209 0 2.757 2.243 5 5 5h.021c.938 1.248 2.409 2 3.979 2 .618 0 1.223-.113 1.79-.331.902 1.428 2.482 2.331 4.21 2.331.343 0 .676-.043 1-.109v4.109h-20v-4.243c0-2.666-.967-5.238-2.722-7.243l-2.241-2.562c-1.38-1.575-2.326-3.494-2.737-5.548l-.717-3.586c-.411-2.057-.992-4.09-1.726-6.045l-1.76-4.693c-.064-.174-.097-.355-.097-.541 0-.849.69-1.539 1.539-1.539 1.623 0 3.027 1.044 3.494 2.598l1.434 4.774c.472 1.572 1.892 2.628 3.533 2.628 1.103 0 2-.897 2-2l-.002-19.005c0-.548.446-.995 1.045-.995.566 0 1.032.438 1.062.997l.817 15.57c.072 1.364 1.2 2.433 2.568 2.433 1.387 0 2.515-1.084 2.569-2.469l.86-21.548c.023-.551.473-.983 1.075-.983.588 0 1.068.46 1.094 1.048l.848 19.493c.059 1.379 1.187 2.459 2.567 2.459 1.374 0 2.502-1.075 2.567-2.448l.836-17.554c.027-.56.487-.998 1.046-.998.577 0 1.048.47 1.048 1.048v19.767c0 1.205.98 2.185 2.186 2.185.898 0 1.718-.563 2.04-1.401l4.27-11.1c.188-.493.902-.644 1.277-.271.146.147.227.344.227.554 0 .064-.008.127-.022.188l-5.19 20.756c-.001.005-.003.011-.004.016-.729-.844-1.729-1.446-2.868-1.658z"/><path d="m46 43c-1.654 0-3 1.346-3 3s1.346 3 3 3 3-1.346 3-3-1.346-3-3-3zm0 4c-.552 0-1-.449-1-1s.448-1 1-1 1 .449 1 1-.448 1-1 1z"/></g></svg>