<svg id="_x33_0" enable-background="new 0 0 64 64" height="512" viewBox="0 0 64 64" width="512" xmlns="http://www.w3.org/2000/svg"><g><g><path d="m34 42c0 .53.21 1.04.59 1.41.37.38.88.59 1.41.59s1.04-.21 1.41-.59l1.5-1.5 3-3 1.5-1.5c.38-.37.59-.88.59-1.41s-.21-1.04-.59-1.41c-.37-.38-.88-.59-1.41-.59s-1.04.21-1.41.59l-1.5 1.5-3 3-1.5 1.5c-.38.37-.59.88-.59 1.41zm0 20h-14v-5.93c0-.67-.33-1.29-.89-1.66l-.71-.48c-2.84-1.89-4.88-4.75-5.76-8.04l-2.19-8.19c-.3-1.13-.65-2.25-1.05-3.36l-3.22-8.83c-.12-.34-.18-.69-.18-1.05 0-.68.28-1.3.72-1.74s1.06-.72 1.74-.72c2.14 0 4.06 1.3 4.85 3.29l2.39 5.96c.18.45.62.75 1.11.75.66 0 1.19-.53 1.19-1.19v-21.81c0-.83.34-1.58.88-2.12s1.29-.88 2.12-.88c1.66 0 3 1.34 3 3v15c0 .55.22 1.05.59 1.41.36.37.86.59 1.41.59 1.1 0 2-.9 2-2v-19c0-.83.34-1.58.88-2.12s1.29-.88 2.12-.88c1.66 0 3 1.34 3 3v19c0 .55.22 1.05.59 1.41.36.37.86.59 1.41.59 1.1 0 2-.9 2-2v-15c0-.83.34-1.58.88-2.12s1.29-.88 2.12-.88c1.66 0 3 1.34 3 3v19c0 .55.22 1.05.59 1.41.36.37.86.59 1.41.59 1.1 0 2-.9 2-2v-13c0-.83.34-1.58.88-2.12s1.29-.88 2.12-.88c1.66 0 3 1.34 3 3v22.52c0 2.2-.26 4.38-.76 6.49v.01c-.08-.02-.16-.02-.24-.02h-6c-.55 0-1.05.22-1.41.59-.37.36-.59.86-.59 1.41 0 1.1.9 2 2 2h4.97c-.72 1.76-1.61 3.46-2.67 5.05l-.96 1.45c-.22.32-.34.71-.34 1.11v6.39z" fill="#f5e0cd"/><path d="m56 52c.25 0 .48.03.72.07.55-.65 1.36-1.07 2.28-1.07 1.66 0 3 1.34 3 3 0 .7-.25 1.33-.64 1.84.4.62.64 1.36.64 2.16 0 2.21-1.79 4-4 4-1.62 0-3.01-.97-3.64-2.36-1.39-.63-2.36-2.02-2.36-3.64 0-2.21 1.79-4 4-4z" fill="#69d6f4"/><path d="m12.17 54.83c.73.72 1.73 1.17 2.83 1.17-2.21 0-4 1.79-4 4 0-1.1-.45-2.1-1.17-2.83-.73-.72-1.73-1.17-2.83-1.17 1.1 0 2.1-.45 2.83-1.17.72-.73 1.17-1.73 1.17-2.83 0 1.1.45 2.1 1.17 2.83z" fill="#69d6f4"/><path d="m12.17 6.83c.73.72 1.73 1.17 2.83 1.17-2.21 0-4 1.79-4 4 0-1.1-.45-2.1-1.17-2.83-.73-.72-1.73-1.17-2.83-1.17 1.1 0 2.1-.45 2.83-1.17.72-.73 1.17-1.73 1.17-2.83 0 1.1.45 2.1 1.17 2.83z" fill="#69d6f4"/><circle cx="52" cy="6" fill="#ff826e" r="2"/><circle cx="60" cy="24" fill="#ff826e" r="2"/><circle cx="56" cy="38" fill="#ff826e" r="2"/><g fill="#5cd6b3"><path d="m53.24 44.02c.99.12 1.76.96 1.76 1.98 0 .55-.22 1.05-.59 1.41-.36.37-.86.59-1.41.59h-1.03-4.97c-1.1 0-2-.9-2-2 0-.55.22-1.05.59-1.41.36-.37.86-.59 1.41-.59h6c.08 0 .16 0 .24.02z"/><path d="m38.91 41.91-1.5 1.5c-.37.38-.88.59-1.41.59s-1.04-.21-1.41-.59c-.38-.37-.59-.88-.59-1.41s.21-1.04.59-1.41l1.5-1.5z"/><path d="m36.879 37.006h4.243v3.988h-4.243z" transform="matrix(.707 -.707 .707 .707 -16.154 39)"/><path d="m43.41 34.59c.38.37.59.88.59 1.41s-.21 1.04-.59 1.41l-1.5 1.5-2.82-2.82 1.5-1.5c.37-.38.88-.59 1.41-.59s1.04.21 1.41.59z"/></g></g><path d="m10 12h2c0-1.654 1.346-3 3-3v-2c-1.654 0-3-1.346-3-3h-2c0 1.654-1.346 3-3 3v2c1.654 0 3 1.346 3 3zm1-5.003c.285.38.624.718 1.003 1.003-.379.285-.718.623-1.003 1.003-.285-.38-.624-.718-1.003-1.003.379-.285.718-.623 1.003-1.003z"/><path d="m12 52h-2c0 1.654-1.346 3-3 3v2c1.654 0 3 1.346 3 3h2c0-1.654 1.346-3 3-3v-2c-1.654 0-3-1.346-3-3zm-1 5.003c-.285-.38-.624-.718-1.003-1.003.379-.285.718-.623 1.003-1.003.285.38.624.718 1.003 1.003-.379.285-.718.623-1.003 1.003z"/><path d="m7 49v-2h2v-2h-2v-2h-2v2h-2v2h2v2z"/><path d="m25 37h-2v2h-2v2h2v2h2v-2h2v-2h-2z"/><path d="m3 15v2h-2v2h2v2h2v-2h2v-2h-2v-2z"/><path d="m53 49c1.654 0 3-1.346 3-3 0-1.149-.656-2.137-1.606-2.641.177-.862.323-1.731.421-2.606.364.158.764.247 1.185.247 1.654 0 3-1.346 3-3s-1.346-3-3-3c-.352 0-.686.072-1 .184v-20.184c0-1.474-.81-2.75-2-3.444v-2.74c.847-.302 1.514-.969 1.816-1.816h2.184v-2h-2.184c-.302-.847-.969-1.514-1.816-1.816v-2.184h-2v2.184c-.847.302-1.514.969-1.816 1.816h-2.184v2h2.184c.302.847.969 1.514 1.816 1.816v2.184c-2.206 0-4 1.794-4 4v13c0 .552-.449 1-1 1s-1-.448-1-1v-19c0-2.206-1.794-4-4-4s-4 1.794-4 4v15c0 .552-.449 1-1 1s-1-.448-1-1v-19c0-2.206-1.794-4-4-4s-4 1.794-4 4v19c0 .552-.449 1-1 1s-1-.448-1-1v-15c0-2.206-1.794-4-4-4s-4 1.794-4 4v21.808c0 .186-.303.243-.371.071l-2.386-5.963c-.951-2.379-3.222-3.916-5.783-3.916-1.908 0-3.46 1.552-3.46 3.46 0 .475.083.942.245 1.39l3.212 8.834c.39 1.071.737 2.175 1.031 3.279l2.183 8.187c.941 3.53 3.134 6.59 6.173 8.615l.71.474c.279.185.446.496.446.831v6.93h30v-7.395c0-.198.058-.39.168-.555l.961-1.442c.968-1.452 1.799-3.002 2.492-4.608zm-1-44c.551 0 1 .448 1 1s-.449 1-1 1-1-.448-1-1 .449-1 1-1zm1 42h-6c-.551 0-1-.448-1-1s.449-1 1-1h6c.551 0 1 .448 1 1s-.449 1-1 1zm3-10c.551 0 1 .448 1 1s-.449 1-1 1-1-.448-1-1 .449-1 1-1zm-14.086.5-1.414-1.414.793-.793c.192-.191.436-.293.707-.293s.515.102.707.293c.191.191.293.436.293.707s-.102.516-.293.707zm-2.828 0 1.414 1.414-1.586 1.586-1.414-1.414zm-3 3 1.414 1.414-.793.793c-.384.383-1.03.383-1.414 0-.191-.191-.293-.436-.293-.707s.102-.516.293-.707zm12.379 11.999-.961 1.441c-.33.495-.504 1.07-.504 1.665v5.395h-12v-16.182c.318.113.653.182 1 .182.801 0 1.555-.312 2.121-.879l6-6c.567-.566.879-1.32.879-2.121s-.312-1.555-.879-2.121c-1.133-1.133-3.109-1.133-4.242 0l-4.879 4.879v-9.758h-2v32h-12v-4.93c0-1.005-.5-1.938-1.335-2.496l-.71-.474c-2.634-1.756-4.534-4.407-5.35-7.467l-2.183-8.187c-.31-1.161-.674-2.32-1.084-3.447l-3.212-8.834c-.084-.226-.126-.464-.126-.705 0-.805.655-1.46 1.46-1.46 1.739 0 3.28 1.044 3.926 2.658l2.385 5.963c.335.838 1.135 1.379 2.037 1.379 1.209 0 2.192-.983 2.192-2.192v-21.808c0-1.103.897-2 2-2s2 .897 2 2v15c0 1.654 1.346 3 3 3s3-1.346 3-3v-19c0-1.103.897-2 2-2s2 .897 2 2v19c0 1.654 1.346 3 3 3s3-1.346 3-3v-15c0-1.103.897-2 2-2s2 .897 2 2v19c0 1.654 1.346 3 3 3s3-1.346 3-3v-13c0-1.103.897-2 2-2s2 .897 2 2v22.522c0 1.838-.2 3.676-.573 5.478h-5.427c-1.654 0-3 1.346-3 3s1.346 3 3 3h3.436c-.57 1.214-1.229 2.387-1.971 3.499z"/><path d="m60 21c-1.654 0-3 1.346-3 3s1.346 3 3 3 3-1.346 3-3-1.346-3-3-3zm0 4c-.551 0-1-.448-1-1s.449-1 1-1 1 .448 1 1-.449 1-1 1z"/><circle cx="56" cy="56" r="1"/><path d="m59 50c-.978 0-1.915.364-2.644 1.015-.122-.01-.24-.015-.356-.015-2.757 0-5 2.243-5 5 0 1.832 1.015 3.516 2.614 4.386.871 1.599 2.554 2.614 4.386 2.614 2.757 0 5-2.243 5-5 0-.734-.164-1.457-.479-2.122.315-.579.479-1.218.479-1.878 0-2.206-1.794-4-4-4zm1.516 6.378c.317.49.484 1.052.484 1.622 0 1.654-1.346 3-3 3-1.172 0-2.243-.695-2.729-1.771l-.155-.344-.344-.155c-1.077-.487-1.772-1.558-1.772-2.73 0-1.654 1.346-3 3-3 .186 0 .366.024.542.057l.568.102.372-.44c.386-.457.939-.719 1.518-.719 1.103 0 2 .897 2 2 0 .552-.235.969-.432 1.221l-.438.56z"/></g></svg>