<svg id="_x33_0" enable-background="new 0 0 64 64" height="512" viewBox="0 0 64 64" width="512" xmlns="http://www.w3.org/2000/svg"><g><g><path d="m44 9c0-.83.34-1.58.88-2.12s1.29-.88 2.12-.88c1.66 0 3 1.34 3 3v4c0-.83.34-1.58.88-2.12s1.29-.88 2.12-.88c1.66 0 3 1.34 3 3v11 4.17c-.31-.11-.65-.17-1-.17-1.66 0-3 1.34-3 3-2.21 0-4 1.79-4 4s1.79 4 4 4c.05 0 .09-.01.14-.01.44 1.73 1.99 3.01 3.86 3.01v20h-24v-11.24c0-.49-.18-.96-.51-1.33l-5.47-6.16c-.46-.51-.87-1.05-1.23-1.63v-.01l2.99-12.69.77 1.94c.27.67.93 1.12 1.66 1.12.99 0 1.79-.8 1.79-1.79v-8.21-13c0-.83.34-1.58.88-2.12s1.29-.88 2.12-.88c1.66 0 3 1.34 3 3v-4c0-1.66 1.34-3 3-3 .83 0 1.58.34 2.12.88s.88 1.29.88 2.12z" fill="#f5e0cd"/><path d="m26.21 26c-1.94 0-3.68 1.18-4.4 2.98l-.4 1-1.36-5.78c-.03-.13-.05-.27-.05-.41 0-.99.8-1.79 1.79-1.79 1.94 0 3.68 1.18 4.4 2.98l.43 1.07c-.13-.03-.27-.05-.41-.05z" fill="#f5e0cd"/><path d="m26.62 26.05-.43-1.07c-.72-1.8-2.46-2.98-4.4-2.98-.99 0-1.79.8-1.79 1.79 0 .14.02.28.05.41l1.36 5.78.4-1c.72-1.8 2.46-2.98 4.4-2.98.14 0 .28.02.41.05zm-17.82 14.56 5.76-18.08c.86-2.7 3.36-4.53 6.19-4.53.83 0 1.64.16 2.41.46l8.84 3.54v8.21c0 .99-.8 1.79-1.79 1.79-.73 0-1.39-.45-1.66-1.12l-.77-1.94-2.99 12.69v.01l-.04.18c-.49 2.05-1.67 3.87-3.36 5.14l-4.32 3.24c-.68.51-1.11 1.28-1.19 2.13l-.88 9.67h-13l1.97-6.2c.05.02.11.04.17.06.37 1.23 1.5 2.14 2.86 2.14 1.66 0 3-1.34 3-3 0-.18-.02-.35-.05-.53 1.22-.68 2.05-1.97 2.05-3.47 0-.49-.1-.96-.26-1.4.67-.32 1.24-.82 1.63-1.44.4-.62.63-1.36.63-2.16 0-2.21-1.79-4-4-4h-1.64z" fill="#f5e0cd"/><g fill="#69d6f4"><path d="m14 46c0 .8-.23 1.54-.63 2.16-.39.62-.96 1.12-1.63 1.44.16.44.26.91.26 1.4 0 1.5-.83 2.79-2.05 3.47.03.18.05.35.05.53 0 1.66-1.34 3-3 3-1.36 0-2.49-.91-2.86-2.14-.06-.02-.12-.04-.17-.06-1.14-.42-1.97-1.5-1.97-2.8 0-.92.42-1.74 1.08-2.29-.67-.71-1.08-1.66-1.08-2.71 0-1.62.96-3 2.34-3.63-.21-.41-.34-.87-.34-1.37 0-1.66 1.34-3 3-3 .68 0 1.3.23 1.8.61l-.44 1.39h1.64c2.21 0 4 1.79 4 4z"/><circle cx="6" cy="4" r="2"/><circle cx="9" cy="17" r="7"/><circle cx="25" cy="9" r="3"/><circle cx="57" cy="7" r="3"/><path d="m48 35c0-2.21 1.79-4 4-4 0-1.66 1.34-3 3-3 .35 0 .69.06 1 .17v-4.17c2.21 0 4 1.79 4 4 0 .18-.03.35-.05.53 1.22.68 2.05 1.97 2.05 3.47 0 1.75-1.13 3.22-2.69 3.76.44.64.69 1.41.69 2.24 0 2.21-1.79 4-4 4-1.87 0-3.42-1.28-3.86-3.01-.05 0-.09.01-.14.01-2.21 0-4-1.79-4-4z"/></g><circle cx="54" cy="34" fill="#3bafda" r="2"/></g><path d="m49 52c0 .552-.449 1-1 1s-1-.448-1-1v-14c0-1.654-1.346-3-3-3s-3 1.346-3 3v4c0 .552-.449 1-1 1s-1-.448-1-1v-6c0-1.654-1.346-3-3-3s-3 1.346-3 3v1h2v-1c0-.552.449-1 1-1s1 .448 1 1v6c0 1.654 1.346 3 3 3s3-1.346 3-3v-4c0-.552.449-1 1-1s1 .448 1 1v14c0 1.654 1.346 3 3 3s3-1.346 3-3v-9h-2z"/><path d="m61 28.021c0-.007 0-.014 0-.021 0-2.415-1.721-4.435-4-4.899v-10.101c0-.756-.223-1.456-.589-2.06.194.029.387.06.589.06 2.206 0 4-1.794 4-4s-1.794-4-4-4-4 1.794-4 4c0 .756.223 1.456.589 2.06-.194-.029-.387-.06-.589-.06-.732 0-1.409.212-2 .556v-.556c0-2.206-1.794-4-4-4-.732 0-1.409.212-2 .556v-.556c0-2.206-1.794-4-4-4s-4 1.794-4 4v.556c-.591-.344-1.268-.556-2-.556-2.206 0-4 1.794-4 4v11.523l-7.468-2.987c-.889-.356-1.825-.536-2.783-.536-1.391 0-2.697.396-3.829 1.07.047-.351.08-.706.08-1.07 0-4.411-3.589-8-8-8s-8 3.589-8 8 3.589 8 8 8c1.493 0 2.886-.419 4.084-1.133l-4.874 15.32c-.387-.124-.793-.187-1.21-.187-2.206 0-4 1.794-4 4 0 .312.038.622.114.928-1.307.926-2.114 2.441-2.114 4.072 0 .945.27 1.861.773 2.654-.498.678-.773 1.496-.773 2.346 0 1.359.679 2.573 1.764 3.299l-2.132 6.701h56.368v-20.101c2.279-.465 4-2.484 4-4.899 0-.618-.113-1.224-.33-1.79 1.427-.902 2.33-2.482 2.33-4.21 0-1.568-.752-3.04-2-3.979zm-4-23.021c1.103 0 2 .897 2 2s-.897 2-2 2-2-.897-2-2 .897-2 2-2zm-54 12c0-3.309 2.691-6 6-6s6 2.691 6 6-2.691 6-6 6-6-2.691-6-6zm.81 33.034c-.522-.562-.81-1.284-.81-2.034 0-1.166.69-2.234 1.759-2.722l.955-.436-.481-.932c-.154-.3-.233-.606-.233-.91 0-1.103.897-2 2-2 .208 0 .41.031.603.094l-.607 1.906h3.004c1.654 0 3 1.346 3 3 0 1.145-.667 2.206-1.698 2.704l-.822.396.32.854c.133.355.2.706.2 1.046 0 1.07-.591 2.067-1.542 2.602l-.621.348.125.7c.021.115.038.231.038.35 0 1.103-.897 2-2 2-.881 0-1.645-.574-1.902-1.429l-.155-.515-.515-.155c-.854-.255-1.428-1.02-1.428-1.901 0-.58.263-1.134.722-1.521l.804-.676zm.521 7.937c.713.647 1.651 1.029 2.669 1.029 2.206 0 4-1.794 4-4 0-.008 0-.015 0-.022 1.248-.938 2-2.408 2-3.978 0-.31-.031-.621-.093-.933 1.293-.928 2.093-2.448 2.093-4.067 0-2.757-2.243-5-5-5h-.269l5.782-18.171c.729-2.29 2.833-3.829 5.236-3.829.702 0 1.389.132 2.041.393l8.21 3.284v7.534c0 .435-.354.789-.789.789-.324 0-.612-.194-.732-.496l-.656-1.639.102-.433c.05-.209.075-.425.075-.64 0-1.118-.664-2.077-1.615-2.523l-.265-.662c-.877-2.191-2.968-3.607-5.328-3.607-1.54 0-2.792 1.252-2.792 2.792 0 .215.025.43.074.64l1.287 5.472-1.284 3.211c-.458 1.145-1.551 1.885-2.785 1.885h-1.292v2h1.292c2.056 0 3.878-1.233 4.643-3.144l1.802-4.506c.571-1.428 1.933-2.35 3.471-2.35.437 0 .792.355.792.792 0 .061-.007.122-.021.182l-3.204 13.618c-.429 1.822-1.49 3.444-2.987 4.568l-4.32 3.239c-.904.678-1.482 1.713-1.584 2.838l-.797 8.763h-10.719zm17.428-30.861-.738-3.136c-.014-.06-.021-.121-.021-.182 0-.437.355-.792.792-.792 1.446 0 2.73.823 3.353 2.109-1.34.25-2.537.955-3.386 2.001zm9.241 33.89h-14.905l.78-8.582c.051-.562.339-1.079.792-1.418l4.32-3.24c1.383-1.037 2.465-2.417 3.154-3.984.044.051.083.106.128.157l5.479 6.164c.162.182.252.419.252.664zm2 0v-10.239c0-.736-.269-1.444-.758-1.993l-5.479-6.163c-.326-.367-.621-.764-.896-1.173l2.216-9.42c.52.616 1.287.988 2.128.988 1.538 0 2.789-1.251 2.789-2.789v-21.211c0-1.103.897-2 2-2s2 .897 2 2v16h2v-20c0-1.103.897-2 2-2s2 .897 2 2v20h2v-16c0-1.103.897-2 2-2s2 .897 2 2v16h2v-12c0-1.103.897-2 2-2s2 .897 2 2v14c-1.889 0-3.477 1.316-3.893 3.08-2.333.422-4.107 2.468-4.107 4.92 0 2.56 1.933 4.676 4.416 4.966.644 1.511 1.991 2.593 3.584 2.92v18.114zm21-28c.551 0 1 .448 1 1s-.449 1-1 1-1-.448-1-1 .449-1 1-1zm4.984 1.816-1.227.43.729 1.075c.336.496.514 1.076.514 1.679 0 1.654-1.346 3-3 3-1.364 0-2.554-.93-2.894-2.261l-.201-.786-.811.034c-.053.002-.106.008-.094.013-1.654 0-3-1.346-3-3 0-1.572 1.22-2.851 2.76-2.976-.467.529-.76 1.216-.76 1.976 0 1.654 1.346 3 3 3s3-1.346 3-3-1.346-3-3-3c-.352 0-.686.072-1 .184v-.184c0-1.103.897-2 2-2 .229 0 .454.038.666.113l1.334.473v-4.415c1.164.413 2 1.525 2 2.829 0 .099-.017.195-.03.29l-.103.776.59.332c.952.535 1.543 1.532 1.543 2.602 0 1.263-.81 2.395-2.016 2.816z"/><path d="m9 13v2c1.103 0 2 .897 2 2h2c0-2.206-1.794-4-4-4z"/><path d="m6 7c1.654 0 3-1.346 3-3s-1.346-3-3-3-3 1.346-3 3 1.346 3 3 3zm0-4c.551 0 1 .449 1 1s-.449 1-1 1-1-.449-1-1 .449-1 1-1z"/><path d="m29 9c0-2.206-1.794-4-4-4s-4 1.794-4 4 1.794 4 4 4 4-1.794 4-4zm-6 0c0-1.103.897-2 2-2s2 .897 2 2-.897 2-2 2-2-.897-2-2z"/></g></svg>