<svg id="_x33_0" enable-background="new 0 0 64 64" height="512" viewBox="0 0 64 64" width="512" xmlns="http://www.w3.org/2000/svg"><g><g><path d="m24.83 39.17-4 4c-.53.53-.83 1.25-.83 2 0 .78.32 1.49.83 2s1.22.83 2 .83c.75 0 1.47-.3 2-.83l2-2c-.53.53-.83 1.25-.83 2 0 .78.32 1.49.83 2s1.22.83 2 .83c.75 0 1.47-.3 2-.83l1.71-1.71c.9.91 1.46 2.16 1.46 3.54 0 2.42-1.72 4.44-4 4.9-.32.07-.66.1-1 .1-2.16 0-3.98-1.37-4.68-3.29-.88.79-2.04 1.29-3.32 1.29-2.42 0-4.44-1.72-4.9-4.01-.03 0-.07.01-.1.01-2.21 0-4-1.79-4-4 0-.18.03-.35.05-.53-1.22-.68-2.05-1.97-2.05-3.47s.83-2.78 2.05-3.47c.1-1.03.5-1.96 1.11-2.71.91-1.11 2.29-1.82 3.84-1.82 1.39 0 2.65.57 3.56 1.49-.36.48-.56 1.07-.56 1.68 0 .78.32 1.49.83 2s1.22.83 2 .83c.75 0 1.47-.3 2-.83z" fill="#69d6f4"/><path d="m22 7c0 1.64-.79 3.09-2 4v-2c0-.83-.34-1.58-.88-2.12s-1.29-.88-2.12-.88c-1.66 0-3 1.34-3 3v4c0-.83-.34-1.58-.88-2.12s-1.29-.88-2.12-.88c-1.66 0-3 1.34-3 3v4.9c-.32.07-.66.1-1 .1-2.76 0-5-2.24-5-5 0-.98.29-1.88.78-2.65-.49-.66-.78-1.47-.78-2.35 0-2.21 1.79-4 4-4 .18 0 .35.03.53.05.68-1.22 1.97-2.05 3.47-2.05 1.35 0 2.54.68 3.27 1.7.91-1.03 2.24-1.7 3.73-1.7 2.76 0 5 2.24 5 5z" fill="#69d6f4"/><g fill="#f5e0cd"><path d="m30 55.9v6.1h-22v-11.18c0-1.19-.35-2.35-1.01-3.33l-.97-1.47c-1.32-1.97-2.02-4.28-2.02-6.65v-4.47c0-3.24-.62-6.44-1.82-9.45-.12-.3-.18-.61-.18-.93 0 0 0 0 0-.01 0-1.38 1.12-2.51 2.53-2.51h.09c1.28 0 2.46.45 3.38 1.2 1.22.98 2 2.49 2 4.18v5.62l.42.21c1.18.59 2.12 1.51 2.74 2.61-.61.75-1.01 1.68-1.11 2.71-1.22.69-2.05 1.97-2.05 3.47s.83 2.79 2.05 3.47c-.02.18-.05.35-.05.53 0 2.21 1.79 4 4 4 .03 0 .07-.01.1-.01.46 2.29 2.48 4.01 4.9 4.01 1.28 0 2.44-.5 3.32-1.29.7 1.92 2.52 3.29 4.68 3.29.34 0 .68-.03 1-.1z"/><path d="m30.94 14.71c.52.44.88 1.06 1.01 1.76l.01.01c-.73.44-1.42.98-2.03 1.59l-3.93 3.93v-5c0-1.66 1.34-3 3-3 .74 0 1.42.27 1.94.71z"/><path d="m24.83 31.17-4 4c-.1.1-.19.21-.27.32-.91-.92-2.17-1.49-3.56-1.49-1.55 0-2.93.71-3.84 1.82-.62-1.1-1.56-2.02-2.74-2.61l-.42-.21v-5.62c0-1.69-.78-3.2-2-4.18v-.01-5.29-4.9c0-1.66 1.34-3 3-3 .83 0 1.58.34 2.12.88s.88 1.29.88 2.12v-4c0-1.66 1.34-3 3-3 .83 0 1.58.34 2.12.88s.88 1.29.88 2.12v2 2c0-.83.34-1.58.88-2.12s1.29-.88 2.12-.88c1.66 0 3 1.34 3 3v4 5l-5.17 5.17c-.53.53-.83 1.25-.83 2 0 .78.32 1.49.83 2s1.22.83 2 .83c.75 0 1.47-.3 2-.83z"/><path d="m24.83 31.17c-.53.53-1.25.83-2 .83-.78 0-1.49-.32-2-.83s-.83-1.22-.83-2c0-.75.3-1.47.83-2l5.17-5.17 3.93-3.93c.61-.61 1.3-1.15 2.03-1.59.88-.55 1.85-.97 2.86-1.25l5.36-1.46c1.85-.51 3.53-1.48 4.89-2.84l8.93-8.93h8v19l-4.44 4.44c-1.65 1.65-2.68 3.84-2.89 6.17l-.41 4.49c-.17 1.91-.8 3.74-1.82 5.36l-4.4 6.91c-.65 1.02-1.77 1.63-2.97 1.63-.85 0-1.62-.34-2.17-.9-.56-.55-.9-1.32-.9-2.17 0-.61.18-1.2.52-1.7l2.99-4.5c.32-.48.49-1.04.49-1.61 0-.58-.24-1.12-.62-1.5s-.92-.62-1.5-.62c-.56 0-1.1.22-1.5.62l-9.84 9.84-1.71 1.71c-.53.53-1.25.83-2 .83-.78 0-1.49-.32-2-.83s-.83-1.22-.83-2c0-.75.3-1.47.83-2l-2 2c-.53.53-1.25.83-2 .83-.78 0-1.49-.32-2-.83s-.83-1.22-.83-2c0-.75.3-1.47.83-2l4-4c-.53.53-1.25.83-2 .83-.78 0-1.49-.32-2-.83s-.83-1.22-.83-2c0-.61.2-1.2.56-1.68.08-.11.17-.22.27-.32z"/></g></g><path d="m44.358 10.228c-1.229 1.229-2.764 2.119-4.439 2.576l-5.363 1.463c-.715.195-1.397.477-2.061.799-.688-1.245-2.004-2.066-3.495-2.066-.732 0-1.409.212-2 .556v-.556c0-2.206-1.794-4-4-4-.12 0-.234.025-.352.036.23-.642.352-1.328.352-2.036 0-3.309-2.691-6-6-6-1.333 0-2.624.457-3.672 1.277-.908-.813-2.092-1.277-3.328-1.277-1.569 0-3.04.752-3.979 2-.006 0-.014 0-.021 0-2.757 0-5 2.243-5 5 0 .837.211 1.649.613 2.382-.402.82-.613 1.714-.613 2.618 0 3.309 2.691 6 6 6v2.48c-.759-.308-1.592-.48-2.471-.48-1.946 0-3.529 1.577-3.529 3.516 0 .447.084.886.251 1.306 1.16 2.901 1.749 5.955 1.749 9.079v4.466c0 2.575.755 5.069 2.184 7.211l.977 1.465c.549.824.839 1.783.839 2.773v10.184h-6v2h62v-2h-32v-4.35c2.327-.826 4-3.043 4-5.65 0-1.264-.393-2.465-1.113-3.473l9.199-9.198c.209-.209.498-.329.793-.329.618 0 1.121.503 1.121 1.122 0 .376-.11.741-.319 1.055l-2.997 4.496c-.448.67-.684 1.451-.684 2.257 0 2.244 1.826 4.07 4.07 4.07 1.552 0 2.976-.782 3.81-2.091l4.4-6.915c1.108-1.742 1.793-3.749 1.979-5.803l.408-4.494c.19-2.092 1.113-4.063 2.6-5.549l4.733-4.734v-20.414h-9.414zm-15.358 4.772c.765 0 1.435.433 1.771 1.081-.544.387-1.069.802-1.544 1.277l-2.227 2.228v-2.586c0-1.103.897-2 2-2zm-26-2c0-.739.215-1.472.622-2.119l.361-.574-.4-.548c-.382-.522-.583-1.131-.583-1.759 0-1.654 1.346-3 3-3 .1 0 .195.017.292.03l.774.103.332-.59c.535-.952 1.532-1.543 2.602-1.543.97 0 1.886.479 2.45 1.28l.729 1.034.837-.948c.779-.881 1.838-1.366 2.984-1.366 2.206 0 4 1.794 4 4 0 .349-.053.686-.138 1.014-.442-1.728-1.998-3.014-3.862-3.014-2.206 0-4 1.794-4 4v.556c-.591-.344-1.268-.556-2-.556-2.206 0-4 1.794-4 4v4c-2.206 0-4-1.794-4-4zm6 0c0-1.103.897-2 2-2s2 .897 2 2v12h2v-16c0-1.103.897-2 2-2s2 .897 2 2v16h2v-12c0-1.103.897-2 2-2s2 .897 2 2v8.586l-4.879 4.879c-.723.723-1.121 1.684-1.121 2.706 0 1.737 1.17 3.19 2.757 3.657l-1.284 1.284c-1.007-.719-2.208-1.112-3.473-1.112-1.394 0-2.67.484-3.688 1.287-.635-.78-1.412-1.431-2.312-1.903v-5.003c0-1.816-.766-3.453-2-4.616zm20 48h-20v-10.184c0-1.386-.406-2.729-1.176-3.883l-.977-1.465c-1.208-1.812-1.847-3.922-1.847-6.101v-4.466c0-3.379-.637-6.684-1.892-9.821-.072-.182-.108-.372-.108-.565 0-.835.687-1.515 1.619-1.515 2.416 0 4.381 1.965 4.381 4.381v6.237l.975.487c.795.397 1.464.982 1.98 1.696-.4.639-.695 1.353-.834 2.133-1.32.933-2.121 2.448-2.121 4.066 0 1.568.752 3.04 2 3.979v.021c0 2.529 1.888 4.626 4.328 4.955.822 2.385 3.094 4.045 5.672 4.045 1.036 0 2.051-.276 2.949-.792 1.085 1.709 2.987 2.792 5.051 2.792zm4-10c0 2.206-1.794 4-4 4-1.661 0-3.164-1.057-3.74-2.631l-.508-1.384-1.099.983c-.744.665-1.686 1.032-2.653 1.032-1.897 0-3.546-1.349-3.92-3.208l-.166-.826-.843.024c-.041.001-.08.004-.121.009-1.631-.026-2.95-1.361-2.95-2.999 0-.097.016-.189.029-.282l.102-.785-.588-.331c-.952-.535-1.543-1.532-1.543-2.602 0-1.068.59-2.065 1.539-2.6l.455-.257.049-.52c.196-2.065 1.897-3.623 3.957-3.623.831 0 1.619.256 2.285.723-.186.454-.285.943-.285 1.448 0 1.737 1.17 3.19 2.757 3.657l-1.636 1.636c-.723.724-1.121 1.685-1.121 2.707 0 2.112 1.718 3.829 3.828 3.829.857 0 1.661-.294 2.327-.809.45 1.614 1.918 2.809 3.673 2.809 1.021 0 1.982-.397 2.705-1.12l.902-.902c.359.608.565 1.297.565 2.022zm28-48v17.586l-4.146 4.147c-1.816 1.816-2.945 4.225-3.178 6.782l-.408 4.495c-.157 1.738-.736 3.436-1.675 4.91l-4.4 6.915c-.464.729-1.258 1.165-2.123 1.165-1.141 0-2.07-.929-2.07-2.07 0-.41.12-.807.348-1.148l2.997-4.496c.428-.644.655-1.392.655-2.164 0-1.722-1.4-3.122-3.121-3.122-.822 0-1.626.333-2.207.914l-11.553 11.551c-.345.345-.804.535-1.292.535-1.008 0-1.827-.82-1.827-1.829 0-.487.19-.945.533-1.29l11.174-11.174-1.414-1.414-13.172 13.172c-.341.34-.811.535-1.293.535-1.008 0-1.828-.82-1.828-1.829 0-.488.19-.948.535-1.293l13.172-13.171-1.414-1.414-9.172 9.172c-.341.34-.811.535-1.293.535-1.008 0-1.828-.82-1.828-1.829 0-.488.19-.948.535-1.293l9.172-9.171-1.414-1.414-5.172 5.172c-.341.34-.811.535-1.293.535-1.008 0-1.828-.82-1.828-1.829 0-.488.19-.948.535-1.293l9.106-9.106c1.229-1.229 2.764-2.119 4.439-2.576l5.363-1.463c2.012-.548 3.854-1.617 5.328-3.092l8.643-8.641z"/></g></svg>