<svg id="_x33_0" enable-background="new 0 0 64 64" height="512" viewBox="0 0 64 64" width="512" xmlns="http://www.w3.org/2000/svg"><g><g><path d="m28 32v15c0 .55.45 1 1 1h12c.55 0 1-.45 1-1v-3c0 1.1.9 2 2 2h2v.1.9c0 2.76-2.24 5-5 5h-7-5c-2.42 0-4.44-1.72-4.9-4-.07-.32-.1-.66-.1-1v-11.91c.48-.38.88-.86 1.17-1.43v-.01c.5-1.01 1.54-1.65 2.67-1.65z" fill="#5cd6b3"/><path d="m28 27.11-1.89.19-2.11.16v-4.46c0-2.76 2.24-5 5-5h3 9c2.76 0 5 2.24 5 5v7 4h-2c-1.1 0-2 .9-2 2v-13c0-.55-.45-1-1-1h-12c-.55 0-1 .45-1 1z" fill="#5cd6b3"/><path d="m42 44v3c0 .55-.45 1-1 1h-12c-.55 0-1-.45-1-1v-15h3.78c2.33 0 4.22-1.89 4.22-4.22 0-.98-.8-1.78-1.78-1.78-.15 0-.29.02-.43.05-1.91.48-3.84.83-5.79 1.06v-4.11c0-.55.45-1 1-1h12c.55 0 1 .45 1 1v13 4z" fill="#37bc9b"/><g fill="#69d6f4"><circle cx="32" cy="4" r="2"/><circle cx="8" cy="8" r="6"/><circle cx="12" cy="24" r="2"/><path d="m24 10c2.21 0 4 1.79 4 4 2.21 0 4 1.79 4 4h-3c-2.76 0-5 2.24-5 5v4.46l-3.45.27h-.01c-1.48-.59-2.54-2.03-2.54-3.73 0-.83.25-1.6.69-2.24-1.56-.55-2.69-2.01-2.69-3.76 0-2.21 1.79-4 4-4 0-2.21 1.79-4 4-4z"/><path d="m26.83 62h-20.66c-.11-.31-.17-.65-.17-1 0-1.66 1.34-3 3-3 .04 0 .07.01.1.01-.06-.33-.1-.66-.1-1.01 0-2.76 2.24-5 5-5 2.49 0 4.54 1.83 4.92 4.21.34-.13.7-.21 1.08-.21 1.39 0 2.54.94 2.88 2.22.35-.14.72-.22 1.12-.22 1.66 0 3 1.34 3 3 0 .35-.06.69-.17 1z"/><path d="m50 57c0 1.66-1.34 3-3 3-.92 0-1.74-.42-2.29-1.08-.71.67-1.66 1.08-2.71 1.08-2.21 0-4-1.79-4-4-2.21 0-4-1.79-4-4h7c2.76 0 5-2.24 5-5v-.9c2.28.46 4 2.48 4 4.9 0 1.35-.54 2.57-1.41 3.47.85.53 1.41 1.46 1.41 2.53z"/><circle cx="58" cy="48" r="4"/><circle cx="54" cy="38" r="2"/><circle cx="56" cy="22" r="2"/></g><path d="m46 38c1.1 0 2 .9 2 2 0 .55-.22 1.05-.59 1.41-.36.37-.86.59-1.41.59h-2c-1.1 0-2-.9-2-2 0-.55.22-1.05.59-1.41.36-.37.86-.59 1.41-.59z" fill="#f5e0cd"/><path d="m47.41 37.41c-.36.37-.86.59-1.41.59h-2c-.55 0-1.05-.22-1.41-.59-.37-.36-.59-.86-.59-1.41 0-1.1.9-2 2-2h2c1.1 0 2 .9 2 2 0 .55-.22 1.05-.59 1.41z" fill="#f5e0cd"/><path d="m47.41 45.41c-.36.37-.86.59-1.41.59h-2c-1.1 0-2-.9-2-2 0-.55.22-1.05.59-1.41.36-.37.86-.59 1.41-.59h2c1.1 0 2 .9 2 2 0 .55-.22 1.05-.59 1.41z" fill="#f5e0cd"/><path d="m50 30c1.1 0 2 .9 2 2 0 .55-.22 1.05-.59 1.41-.36.37-.86.59-1.41.59h-4v-4z" fill="#f5e0cd"/><path d="m24 35.09v11.91c0 .34.03.68.1 1h-3.25c-2.54 0-5.06-.49-7.43-1.43l-.35-.14c-.71-.28-1.46-.43-2.23-.43h-8.84v-14h7.9c1.36 0 2.68-.46 3.74-1.31l1.43-1.15c1.26-1 2.79-1.61 4.39-1.73l1.08-.08h.01l3.45-.27 2.11-.16 1.89-.19c1.95-.23 3.88-.58 5.79-1.06.14-.03.28-.05.43-.05.98 0 1.78.8 1.78 1.78 0 2.33-1.89 4.22-4.22 4.22h-3.78-.16c-1.13 0-2.17.64-2.67 1.65v.01c-.29.57-.69 1.05-1.17 1.43z" fill="#f5e0cd"/></g><path d="m12.702 47.358.35.14c2.491.997 5.115 1.502 7.8 1.502h2.498c.826 2.327 3.043 4 5.65 4h4.109c.405 1.983 1.98 3.545 3.975 3.916.432 2.321 2.472 4.084 4.916 4.084.945 0 1.861-.27 2.654-.773.679.498 1.496.773 2.346.773 2.206 0 4-1.794 4-4 0-1-.369-1.939-1.021-2.662.664-.983 1.021-2.138 1.021-3.338 0-2.078-1.086-3.951-2.754-5.032.463-.528.754-1.212.754-1.968 0-.771-.301-1.468-.78-2 .48-.532.78-1.229.78-2s-.301-1.468-.78-2c.48-.532.78-1.229.78-2 0-.352-.072-.686-.184-1h1.184c1.654 0 3-1.346 3-3s-1.346-3-3-3h-3v-6c0-3.309-2.691-6-6-6h-8.109c-.405-1.983-1.98-3.545-3.975-3.916-.432-2.321-2.472-4.084-4.916-4.084s-4.484 1.763-4.916 4.084c-2.321.432-4.084 2.472-4.084 4.916 0 1.728.903 3.308 2.33 4.21-.217.567-.33 1.172-.33 1.79 0 1.128.379 2.175 1.025 3.024-1.301.303-2.519.89-3.575 1.736l-1.431 1.145c-.884.706-1.993 1.095-3.123 1.095h-8.896v16h9.845c.639 0 1.263.12 1.857.358zm12.298-.358v-11.465c.424-.409.791-.886 1.065-1.437.204-.409.54-.708.935-.894v13.796c0 1.103.897 2 2 2h12c1.103 0 2-.897 2-2v-.184c.314.112.648.184 1 .184h1c0 2.206-1.794 4-4 4h-12c-2.206 0-4-1.794-4-4zm9.219-22c-.229 0-.456.028-.675.083-1.494.374-3.015.662-4.544.882v-2.965h12v24h-12v-14h2.78c2.878 0 5.22-2.341 5.22-5.219 0-1.533-1.248-2.781-2.781-2.781zm12.781 15c0 .551-.449 1-1 1h-2c-.551 0-1-.449-1-1s.449-1 1-1h2c.551 0 1 .449 1 1zm0 4c0 .551-.449 1-1 1h-2c-.551 0-1-.449-1-1s.449-1 1-1h2c.551 0 1 .449 1 1zm2 7c0 1.034-.4 2.019-1.127 2.772l-.854.885 1.04.656c.589.371.941 1.001.941 1.687 0 1.103-.897 2-2 2-.58 0-1.134-.263-1.521-.722l-.676-.803-.769.715c-.562.522-1.284.81-2.034.81-1.654 0-3-1.346-3-3v-1h-1c-1.302 0-2.402-.839-2.816-2h5.816c3.13 0 5.704-2.409 5.973-5.47 1.22.697 2.027 2.006 2.027 3.47zm-2-15c0 .551-.449 1-1 1h-2c-.551 0-1-.449-1-1s.449-1 1-1h2c.551 0 1 .449 1 1zm3-5c.551 0 1 .449 1 1s-.449 1-1 1h-3v-2zm-5-8v10h-1c-.352 0-.686.072-1 .184v-10.184c0-1.103-.897-2-2-2h-12c-1.103 0-2 .897-2 2v3.207c-.323.032-.646.07-.969.095l-1.031.08v-3.382c0-2.206 1.794-4 4-4h12c2.206 0 4 1.794 4 4zm-28-5c0-1.654 1.346-3 3-3h1v-1c0-1.654 1.346-3 3-3s3 1.346 3 3v1h1c1.302 0 2.402.839 2.816 2h-1.816c-3.309 0-6 2.691-6 6v3.536l-2.269.175c-1.055-.493-1.731-1.532-1.731-2.711 0-.602.178-1.182.514-1.679l.727-1.075-1.225-.429c-1.206-.422-2.016-1.554-2.016-2.817zm-14 15h6.896c1.583 0 3.136-.545 4.373-1.534l1.432-1.145c1.102-.882 2.428-1.405 3.835-1.513l6.649-.512c2.638-.203 5.278-.631 7.847-1.273.468-.117.968.263.968.758 0 1.775-1.444 3.219-3.22 3.219h-3.942s-.001 0-.002 0c-1.519 0-2.883.845-3.565 2.215-.549 1.101-1.654 1.785-2.884 1.785h-.387v2h.387c.56 0 1.1-.096 1.613-.262v10.262h-2.148c-2.429 0-4.803-.457-7.057-1.359l-.35-.14c-.831-.333-1.705-.501-2.6-.501h-7.845z"/><path d="m51 38c0 1.654 1.346 3 3 3s3-1.346 3-3-1.346-3-3-3-3 1.346-3 3zm4 0c0 .551-.449 1-1 1s-1-.449-1-1 .449-1 1-1 1 .449 1 1z"/><path d="m56 25c1.654 0 3-1.346 3-3s-1.346-3-3-3-3 1.346-3 3 1.346 3 3 3zm0-4c.551 0 1 .449 1 1s-.449 1-1 1-1-.449-1-1 .449-1 1-1z"/><path d="m9 24c0 1.654 1.346 3 3 3s3-1.346 3-3-1.346-3-3-3-3 1.346-3 3zm4 0c0 .551-.449 1-1 1s-1-.449-1-1 .449-1 1-1 1 .449 1 1z"/><path d="m32 7c1.654 0 3-1.346 3-3s-1.346-3-3-3-3 1.346-3 3 1.346 3 3 3zm0-4c.551 0 1 .449 1 1s-.449 1-1 1-1-.449-1-1 .449-1 1-1z"/><path d="m58 43c-2.757 0-5 2.243-5 5s2.243 5 5 5 5-2.243 5-5-2.243-5-5-5zm0 8c-1.654 0-3-1.346-3-3s1.346-3 3-3 3 1.346 3 3-1.346 3-3 3z"/><path d="m8 15c3.86 0 7-3.14 7-7s-3.14-7-7-7-7 3.14-7 7 3.14 7 7 7zm0-12c2.757 0 5 2.243 5 5s-2.243 5-5 5-5-2.243-5-5 2.243-5 5-5z"/><circle cx="24" cy="14" r="1"/><circle cx="15" cy="58" r="1"/><path d="m33 61h-5c0-2.206-1.794-4-4-4-.177 0-.354.012-.528.036-.752-1.333-2.251-2.163-3.823-2.02-.824-2.379-3.056-4.016-5.649-4.016-3.309 0-6 2.691-6 6 0 .042 0 .084.001.126-1.724.445-3.001 2.013-3.001 3.874h-4v2h32zm-24.085-2.005 1.426.067-.259-1.254c-.055-.263-.082-.535-.082-.808 0-2.206 1.794-4 4-4 1.966 0 3.621 1.416 3.933 3.367l.196 1.222 1.153-.448c1.153-.447 2.339.238 2.637 1.34l.294 1.087 1.045-.42c.242-.098.492-.148.742-.148 1.103 0 2 .897 2 2h-19c0-1.103.897-2 1.915-2.005z"/></g></svg>