<svg id="_x33_0" enable-background="new 0 0 64 64" height="512" viewBox="0 0 64 64" width="512" xmlns="http://www.w3.org/2000/svg"><g><g><path d="m38 26c-1.1 0-2 .9-2 2v-4c0-1.1-.9-2-2-2-.55 0-1.05.22-1.41.59-.37.36-.59.86-.59 1.41v-2c0-1.1-.9-2-2-2-.55 0-1.05.22-1.41.59-.37.36-.59.86-.59 1.41v2c0-.55-.22-1.05-.59-1.41-.36-.37-.86-.59-1.41-.59 0-2.21-1.79-4-4-4-1.59 0-2.94.93-3.59 2.27-.44-.17-.91-.27-1.41-.27-2.21 0-4 1.79-4 4 0 .05.01.09.01.14-1.73.44-3.01 1.99-3.01 3.86 0 .73.19 1.41.54 2h-8.54v-16h18 8l.25-.33c1.74-2.33 4.42-3.78 7.33-3.98l6.52-.43c.58-.04 1.16-.09 1.74-.15 2.01-.21 4-.57 5.95-1.06.14-.03.28-.05.43-.05.98 0 1.78.8 1.78 1.78 0 2.33-1.89 4.22-4.22 4.22h10.22c.55 0 1.05.22 1.41.59.37.36.59.86.59 1.41 0 1.1-.9 2-2 2h2c.55 0 1.05.22 1.41.59.37.36.59.86.59 1.41 0 1.1-.9 2-2 2h-2c.55 0 1.05.22 1.41.59.37.36.59.86.59 1.41 0 1.1-.9 2-2 2h-4c1.1 0 2 .9 2 2 0 .55-.22 1.05-.59 1.41-.36.37-.86.59-1.41.59h-14v-2c0-.55-.22-1.05-.59-1.41-.36-.37-.86-.59-1.41-.59z" fill="#f5e0cd"/><path d="m15.31 41.51c-.1-1.11-.25-2.21-.43-3.31-.22-1.34-.5-2.67-.83-3.99-.03-.14-.05-.28-.05-.43 0-.01 0-.02 0-.04 0-.96.78-1.74 1.75-1.74.95 0 1.85.34 2.54.92.7.57 1.2 1.38 1.38 2.32.36 1.87.8 4.11 1.08 5.48.14.75.8 1.28 1.56 1.28.93 0 1.69-.76 1.69-1.69v-12.31-4c0-1.1.9-2 2-2 .55 0 1.05.22 1.41.59.37.36.59.86.59 1.41v-2c0-.55.22-1.05.59-1.41.36-.37.86-.59 1.41-.59 1.1 0 2 .9 2 2v2c0-.55.22-1.05.59-1.41.36-.37.86-.59 1.41-.59 1.1 0 2 .9 2 2v4c0-1.1.9-2 2-2 .55 0 1.05.22 1.41.59.37.36.59.86.59 1.41v2 13.15c0 2.54-.49 5.06-1.43 7.43l-.14.35c-.28.71-.43 1.46-.43 2.22v8.85h-16v-6.13c0-1.18-.53-2.31-1.44-3.07l-2.01-1.68c-1.17-.98-2.03-2.26-2.49-3.69-.19-.56-.31-1.14-.36-1.73l-.35-3.81c-.01-.13-.02-.25-.04-.38z" fill="#f5e0cd"/><path d="m44 8c0 .38-.05.76-.16 1.11-.58.06-1.16.11-1.74.15l-6.52.43c-2.91.2-5.59 1.65-7.33 3.98l-.25.33h-8c0-2.85 1.98-5.22 4.64-5.84-.4-.62-.64-1.36-.64-2.16 0-2.21 1.79-4 4-4 1.2 0 2.27.54 3 1.38.73-.84 1.8-1.38 3-1.38 1.75 0 3.22 1.13 3.76 2.69.64-.44 1.41-.69 2.24-.69 2.21 0 4 1.79 4 4z" fill="#69d6f4"/><path d="m15.7 45.7c.05.59.17 1.17.36 1.73h-.01c-.6.36-1.3.57-2.05.57-2.21 0-4-1.79-4-4-2.21 0-4-1.79-4-4 0-1.75 1.13-3.22 2.69-3.76-.44-.64-.69-1.41-.69-2.24 0-1.75 1.13-3.22 2.69-3.76-.05-.08-.1-.16-.15-.24-.35-.59-.54-1.27-.54-2 0-1.87 1.28-3.42 3.01-3.86 0-.05-.01-.09-.01-.14 0-2.21 1.79-4 4-4 .5 0 .97.1 1.41.27.65-1.34 2-2.27 3.59-2.27 2.21 0 4 1.79 4 4-1.1 0-2 .9-2 2v4c0-1.1-.9-2-2-2s-2 .9-2 2 .9 2 2 2 2-.9 2-2v12.31c0 .93-.76 1.69-1.69 1.69-.76 0-1.42-.53-1.56-1.28-.28-1.37-.72-3.61-1.08-5.48-.18-.94-.68-1.75-1.38-2.32-.69-.58-1.59-.92-2.54-.92-.97 0-1.75.78-1.75 1.74v.04c0 .15.02.29.05.43.33 1.32.61 2.65.83 3.99-.26-.13-.56-.2-.88-.2-1.1 0-2 .9-2 2s.9 2 2 2c.5 0 .96-.19 1.31-.49.02.13.03.25.04.38z" fill="#69d6f4"/><g fill="#3bafda"><path d="m14.88 38.2c.18 1.1.33 2.2.43 3.31-.35.3-.81.49-1.31.49-1.1 0-2-.9-2-2s.9-2 2-2c.32 0 .62.07.88.2z"/><circle cx="22" cy="28" r="2"/></g></g><path d="m60.78 17.116c.139-.346.22-.721.22-1.116 0-1.654-1.346-3-3-3h-6.143c.705-.89 1.143-1.999 1.143-3.219 0-1.533-1.248-2.781-2.781-2.781-.226 0-.452.028-.675.083-1.495.374-3.018.657-4.549.867-.028-2.733-2.255-4.95-4.995-4.95-.618 0-1.223.113-1.79.331-.902-1.428-2.482-2.331-4.21-2.331-1.086 0-2.138.363-3 1.018-.862-.655-1.914-1.018-3-1.018-2.757 0-5 2.243-5 5 0 .533.086 1.06.254 1.562-2.251.951-3.835 3.006-4.18 5.438h-18.074v18h7.018c-.643.847-1.018 1.891-1.018 3 0 .618.113 1.224.33 1.79-1.427.902-2.33 2.482-2.33 4.21 0 2.444 1.763 4.484 4.084 4.916.432 2.321 2.472 4.084 4.916 4.084.515 0 1.022-.088 1.508-.242.553 1.194 1.358 2.264 2.398 3.131l2.015 1.68c.686.571 1.08 1.411 1.08 2.305l-.001 7.126h17.999l.001-9.846c0-.639.12-1.263.358-1.856l.14-.351c.997-2.49 1.502-5.114 1.502-7.799v-12.148h13c1.654 0 3-1.346 3-3 0-.352-.072-.686-.184-1h1.184c1.654 0 3-1.346 3-3 0-.395-.081-.77-.22-1.116 1.275-.346 2.22-1.501 2.22-2.884s-.945-2.539-2.22-2.884zm-35.913-7.982 1.385-.321-.77-1.195c-.315-.489-.482-1.049-.482-1.618 0-1.654 1.346-3 3-3 .864 0 1.662.369 2.248 1.038l.752.86.752-.861c.586-.668 1.384-1.037 2.248-1.037 1.263 0 2.395.81 2.817 2.016l.429 1.226 1.076-.728c.496-.336 1.076-.514 1.678-.514 1.654 0 3 1.346 3 3 0 .06-.009.118-.012.177-.316.028-.633.064-.949.085l-6.524.435c-3.173.212-6.088 1.778-8.015 4.303h-6.39c.381-1.889 1.814-3.415 3.757-3.866zm-10.867 37.866c-1.654 0-3-1.346-3-3v-1h-1c-1.654 0-3-1.346-3-3 0-1.263.81-2.395 2.016-2.816l1.227-.43-.729-1.075c-.336-.496-.514-1.076-.514-1.679 0-1.263.81-2.395 2.016-2.817l1.226-.429-.728-1.076c-.336-.496-.514-1.076-.514-1.678 0-1.364.93-2.554 2.261-2.894l.778-.199-.025-.802c-.003-.059-.005-.112-.014-.105 0-1.997 1.974-3.586 4.055-2.796l.856.324.398-.824c.508-1.051 1.54-1.704 2.691-1.704 1.383 0 2.539.945 2.884 2.22-1.102.444-1.884 1.521-1.884 2.78v1.184c-.314-.112-.648-.184-1-.184-1.654 0-3 1.346-3 3s1.346 3 3 3c.352 0 .686-.072 1-.184v9.49c0 .382-.311.694-.694.694-.286 0-.524-.194-.58-.473-.274-1.373-.718-3.61-1.074-5.473-.449-2.349-2.511-4.054-4.903-4.054-.744 0-1.44.292-1.961.823s-.801 1.232-.788 1.957c0 .226.028.452.083.675.213.852.395 1.715.563 2.581-1.486.177-2.646 1.431-2.646 2.964 0 1.654 1.346 3 3 3 .151 0 .299-.018.447-.04l.257 2.83c.033.363.094.719.169 1.071-.282.086-.574.139-.873.139zm9-19c0 .551-.449 1-1 1s-1-.449-1-1 .449-1 1-1 1 .449 1 1zm-8.756 12.956c-.08.02-.16.044-.244.044-.551 0-1-.448-1-1 0-.547.442-.99.986-.997.099.65.185 1.301.258 1.953zm24.756 2.192c0 2.429-.457 4.803-1.359 7.057l-.14.351c-.333.83-.501 1.704-.501 2.598l-.001 7.846h-13.999l.001-5.126c0-1.489-.656-2.889-1.799-3.842l-2.015-1.68c-1.437-1.197-2.321-2.882-2.49-4.744l-.347-3.812c-.24-2.632-.686-5.266-1.326-7.825-.016-.063-.024-.127-.024-.208-.004-.203.072-.394.214-.538s.332-.225.535-.225c1.434 0 2.669 1.021 2.938 2.43.357 1.868.803 4.111 1.077 5.488.24 1.207 1.309 2.082 2.541 2.082h.003c1.484-.002 2.692-1.21 2.692-2.694v-16.306c0-.551.449-1 1-1s1 .449 1 1v12h2v-14c0-.551.449-1 1-1s1 .449 1 1v14h2v-12c0-.551.449-1 1-1s1 .449 1 1v12h2v-8c0-.551.449-1 1-1s1 .449 1 1zm21-22.148h-14v2h12c.551 0 1 .449 1 1s-.449 1-1 1h-12v2h8c.551 0 1 .449 1 1s-.449 1-1 1h-13v-1c0-1.654-1.346-3-3-3-.352 0-.686.072-1 .184v-1.184c0-1.654-1.346-3-3-3-.395 0-.77.081-1.116.22-.345-1.275-1.501-2.22-2.884-2.22s-2.538.945-2.884 2.22c-.065-.026-.134-.041-.201-.062-.403-2.356-2.447-4.158-4.915-4.158-1.638 0-3.127.786-4.056 2.096-.315-.064-.631-.096-.944-.096-2.56 0-4.676 1.933-4.966 4.416-1.819.775-3.034 2.565-3.034 4.584 0 .339.041.673.108 1h-6.108v-14h25.5l.545-.728c1.576-2.101 3.982-3.405 6.602-3.58l6.524-.435c2.644-.176 5.288-.591 7.856-1.233.5-.126.973.263.973.757 0 1.775-1.444 3.219-3.22 3.219h-3.943c-1.52 0-2.884.846-3.567 2.215-.548 1.101-1.653 1.785-2.883 1.785h-.387v2h.387c1.993 0 3.784-1.108 4.678-2.902.338-.677 1.017-1.098 1.772-1.098h14.163c.551 0 1 .449 1 1s-.449 1-1 1h-12v2h14c.551 0 1 .449 1 1s-.449 1-1 1z"/><path d="m43 33v9c0 1.654 1.346 3 3 3s3-1.346 3-3v-4c0-.552.449-1 1-1s1 .448 1 1v14c0 1.654 1.346 3 3 3s3-1.346 3-3v-10c0-.552.449-1 1-1s1 .448 1 1v4h2v-4c0-1.654-1.346-3-3-3s-3 1.346-3 3v10c0 .552-.449 1-1 1s-1-.448-1-1v-14c0-1.654-1.346-3-3-3s-3 1.346-3 3v4c0 .552-.449 1-1 1s-1-.448-1-1v-9z"/><path d="m27 5h2v2h-2z"/><path d="m33 5h2v2h-2z"/><path d="m15 27h2v2h-2z"/></g></svg>