<svg id="_x33_0" enable-background="new 0 0 64 64" height="512" viewBox="0 0 64 64" width="512" xmlns="http://www.w3.org/2000/svg"><g><g><g fill="#fcd770"><path d="m62 13v2c0 .55-.45 1-1 1h-3v-2c0-.68-.06-1.35-.17-2h3.17c.55 0 1 .45 1 1z"/><path d="m13.66 12h-4.66c-.55 0-1 .45-1 1v2c0 .55.45 1 1 1h4.66c-.24.67-.6 1.28-1.04 1.82-1.1 1.33-2.76 2.18-4.62 2.18-3.31 0-6-2.69-6-6s2.69-6 6-6c1.86 0 3.52.85 4.61 2.18.45.54.81 1.15 1.05 1.82z"/><path d="m16.25 12h15.5c.16.64.25 1.31.25 2s-.09 1.36-.25 2h-15.5-2.59-4.66c-.55 0-1-.45-1-1v-2c0-.55.45-1 1-1h4.66z"/></g><path d="m31.75 12h-15.5c.89-3.45 4.02-6 7.75-6s6.86 2.55 7.75 6z" fill="#969faa"/><path d="m16.25 16h15.5c-.89 3.45-4.02 6-7.75 6s-6.86-2.55-7.75-6z" fill="#969faa"/><path d="m16.25 16c.89 3.45 4.02 6 7.75 6s6.86-2.55 7.75-6c.16-.64.25-1.31.25-2s-.09-1.36-.25-2c-.89-3.45-4.02-6-7.75-6s-6.86 2.55-7.75 6h-2.59c-.24-.67-.6-1.28-1.05-1.82l.01-.01c1.6-4.75 6.09-8.17 11.38-8.17 6.63 0 12 5.37 12 12s-5.37 12-12 12c-5.29 0-9.78-3.42-11.38-8.18.44-.54.8-1.15 1.04-1.82z" fill="#e6e9ed"/><path d="m36 14v12h-12c6.63 0 12-5.37 12-12z" fill="#aab2bd"/><path d="m58 44v6c0 1.1-.9 2-2 2h-18c-1.1 0-2-.9-2-2v-10h4.53c1.51 0 2.88-.61 3.87-1.6s1.6-2.36 1.6-3.87c0-1.41-1.13-2.53-2.51-2.53h-.01c-.32 0-.63.06-.93.18-2.11.84-4.31 1.4-6.55 1.64v-5.82h3 2 4 2 11v10z" fill="#e6e9ed"/><path d="m58 16v12h-11-2-4-2-3v-2-12c0-6.63-5.37-12-12-12h22c5.95 0 10.88 4.32 11.83 10 .11.65.17 1.32.17 2z" fill="#e6e9ed"/><path d="m59 38c1.66 0 3 1.34 3 3 0 .83-.34 1.58-.88 2.12s-1.29.88-2.12.88h-1v-6z" fill="#f5e0cd"/><path d="m59 44c1.66 0 3 1.34 3 3 0 .83-.34 1.58-.88 2.12s-1.29.88-2.12.88h-1v-6z" fill="#f5e0cd"/><path d="m59 50c.83 0 1.58.34 2.12.88s.88 1.29.88 2.12c0 1.66-1.34 3-3 3h-4c1.66 0 3 1.34 3 3 0 .83-.34 1.58-.88 2.12s-1.29.88-2.12.88h-27.8c-2.79 0-5.56-.39-8.24-1.15l-1.61-.47c-.9-.25-1.82-.38-2.75-.38h-12.6v-20h11.78c1.43 0 2.82-.51 3.91-1.44l1.94-1.67c2.17-1.87 4.94-2.89 7.81-2.89h5.66c.97 0 1.94-.06 2.9-.18 2.24-.24 4.44-.8 6.55-1.64.3-.12.61-.18.93-.18h.01c1.38 0 2.51 1.12 2.51 2.53 0 1.51-.61 2.88-1.6 3.87s-2.36 1.6-3.87 1.6h-4.53v10c0 1.1.9 2 2 2h18c1.1 0 2-.9 2-2z" fill="#f5e0cd"/></g><path d="m61 11h-2.363c-1.36-5.724-6.503-10-12.637-10h-22c-5.082 0-9.627 2.945-11.752 7.457-1.196-.915-2.674-1.457-4.248-1.457-3.86 0-7 3.141-7 7s3.14 7 7 7c1.574 0 3.052-.542 4.248-1.457 2.124 4.512 6.67 7.457 11.752 7.457h11v5.91c-.631.049-1.263.09-1.901.09h-5.66c-3.101 0-6.105 1.111-8.46 3.13l-1.944 1.666c-.907.776-2.062 1.204-3.255 1.204h-12.78v22h13.6c.835 0 1.667.116 2.472.347l1.613.461c2.771.791 5.636 1.192 8.517 1.192h27.798c2.206 0 4-1.794 4-4 0-.732-.212-1.409-.556-2h.556c2.206 0 4-1.794 4-4 0-1.201-.542-2.266-1.382-3 .84-.734 1.382-1.799 1.382-3s-.542-2.266-1.382-3c.84-.734 1.382-1.799 1.382-3 0-2.206-1.794-4-4-4v-20h2c1.103 0 2-.897 2-2v-2c0-1.103-.897-2-2-2zm-30.08 2c.047.328.08.66.08 1s-.033.672-.08 1h-21.92v-2zm-13.236-2c1.14-2.404 3.573-4 6.316-4 2.785 0 5.189 1.639 6.315 4zm12.631 6c-1.126 2.361-3.53 4-6.315 4-2.743 0-5.176-1.596-6.316-4zm-22.315 2c-2.757 0-5-2.243-5-5s2.243-5 5-5c1.599 0 3.069.766 3.998 2h-2.998c-1.103 0-2 .897-2 2v2c0 1.103.897 2 2 2h2.998c-.929 1.234-2.399 2-3.998 2zm5.746-1.032c.211-.305.397-.628.559-.968h1.208c1.258 3.569 4.642 6 8.487 6 4.962 0 9-4.037 9-9s-4.038-9-9-9c-3.845 0-7.229 2.431-8.487 6h-1.208c-.162-.34-.348-.664-.559-.968 1.633-4.223 5.688-7.032 10.254-7.032 6.065 0 11 4.935 11 11s-4.935 11-11 11c-4.566 0-8.621-2.809-10.254-7.032zm17.15 7.032c1.658-1.043 3.061-2.446 4.104-4.104v4.104zm6.104 4h2v-2h-2v-13c0-4.633-2.444-8.697-6.104-11h15.104c6.065 0 11 4.935 11 11v13h-10v2h10v21c0 .552-.449 1-1 1h-18c-.551 0-1-.448-1-1v-9h3.528c3.569 0 6.472-2.902 6.472-6.471 0-1.946-1.577-3.529-3.516-3.529-.447 0-.886.084-1.306.251-1.678.671-3.413 1.128-5.178 1.413zm24 24c0 1.103-.897 2-2 2h-20v2h16c1.103 0 2 .897 2 2s-.897 2-2 2h-27.798c-2.695 0-5.375-.375-7.967-1.116l-1.614-.461c-.984-.28-2.001-.423-3.021-.423h-11.6v-18h10.78c1.669 0 3.287-.599 4.556-1.686l1.944-1.666c1.992-1.708 4.535-2.648 7.159-2.648h5.66c3.379 0 6.684-.637 9.821-1.892.182-.072.372-.108.565-.108.835 0 1.515.687 1.515 1.529 0 2.465-2.006 4.471-4.472 4.471h-5.028l-.9 1.2c-1.315 1.753-3.409 2.8-5.6 2.8v2c2.225 0 4.363-.849 6-2.312v7.312c0 1.654 1.346 3 3 3h18c1.302 0 2.402-.839 2.816-2h.184c1.103 0 2 .897 2 2zm0-6c0 1.103-.897 2-2 2v-4c1.103 0 2 .897 2 2zm0-6c0 1.103-.897 2-2 2v-4c1.103 0 2 .897 2 2zm0-26h-2v-1c0-.338-.025-.669-.051-1h2.051z"/><path d="m41 27h4v2h-4z"/></g></svg>