<svg id="_x33_0" enable-background="new 0 0 64 64" height="512" viewBox="0 0 64 64" width="512" xmlns="http://www.w3.org/2000/svg"><g><g><path d="m62 31v30c0 .55-.45 1-1 1h-58c-.55 0-1-.45-1-1v-30c0-.55.45-1 1-1h22 14 22c.55 0 1 .45 1 1z" fill="#cf9e76"/><path d="m31.17 17.17c-.72.73-1.17 1.73-1.17 2.83s.9 2 2 2h1.81c2.09 0 4.14.54 5.96 1.58l.54.31c.03.02.06.03.09.05l-1.4 6.06h-14l-1.5-6.5-1.12-4.88-1.13-4.87-1.12-4.87-1.08-4.68c-.03-.13-.05-.27-.05-.4 0-1 .8-1.8 1.8-1.8.78 0 1.55.23 2.2.67l.75.5c.82.54 1.77.83 2.75.83s1.93-.29 2.74-.83l.93-.62c.54-.36 1.18-.55 1.83-.55s1.29.19 1.83.55l.92.62c.82.54 1.77.83 2.75.83s1.93-.29 2.75-.83l.75-.5c.65-.44 1.42-.67 2.2-.67 1 0 1.8.8 1.8 1.8 0 .13-.02.27-.05.4l-1.67 7.23-1.5 6.5c-.89-.08-1.77-.26-2.63-.55l-3.2-1.06c-.63-.21-1.29-.32-1.95-.32-1.1 0-2.1.45-2.83 1.17z" fill="#e6e9ed"/><path d="m44 35v5c0 7.87-4.73 14.97-12 18-7.27-3.03-12-10.13-12-18v-5l2.6.65c.93.23 1.89.35 2.85.35 2.31 0 4.58-.69 6.51-1.97l.04-.03.04.03c1.93 1.28 4.2 1.97 6.51 1.97.96 0 1.92-.12 2.85-.35z" fill="#5cd6b3"/><path d="m38 45v2c0 .55-.45 1-1 1h-3v3c0 .55-.45 1-1 1h-2c-.55 0-1-.45-1-1v-3h-3c-.55 0-1-.45-1-1v-2c0-.55.45-1 1-1h3v-3c0-.55.45-1 1-1h2c.55 0 1 .45 1 1v3h3c.55 0 1 .45 1 1z" fill="#ffeaa7"/><g fill="#f5e0cd"><path d="m41.78 17.93 1.5-6.5h.01l4.63 1.54c2.04.68 4.18 1.03 6.33 1.03h7.75v10c-1.99 0-3.98.22-5.93.65l-4.36.97c-1.14.25-2.3.38-3.46.38-2.76 0-5.45-.71-7.85-2.06-.03-.02-.06-.03-.09-.05l-.54-.31c-1.82-1.04-3.87-1.58-5.96-1.58h-1.81c-1.1 0-2-.9-2-2s.45-2.1 1.17-2.83c.73-.72 1.73-1.17 2.83-1.17.66 0 1.32.11 1.95.32l3.2 1.06c.86.29 1.74.47 2.63.55z"/><path d="m18 23.88c0-.56.22-1.1.62-1.5l1-1 2.76-2.76 1.12 4.88-1.88 1.88c-.4.4-.94.62-1.5.62-.58 0-1.12-.24-1.5-.62s-.62-.92-.62-1.5z"/><path d="m22.38 18.62-2.76 2.76c-.4.4-.94.62-1.5.62-.58 0-1.12-.24-1.5-.62s-.62-.92-.62-1.5c0-.56.22-1.1.62-1.5l3-3 1.63-1.63z"/><path d="m20.13 8.88 1.12 4.87-1.63 1.63c-.4.4-.94.62-1.5.62-.58 0-1.12-.24-1.5-.62s-.62-.92-.62-1.5c0-.56.22-1.1.62-1.5l3.5-3.5z"/></g></g><path d="m29 49v2c0 1.103.897 2 2 2h2c1.103 0 2-.897 2-2v-2h2c1.103 0 2-.897 2-2v-2c0-1.103-.897-2-2-2h-2v-2c0-1.103-.897-2-2-2h-2c-1.103 0-2 .897-2 2v2h-2c-1.103 0-2 .897-2 2v2c0 1.103.897 2 2 2zm-2-4h4v-4h2v4l4 .003v1.997h-4v4h-2v-4h-4z"/><path d="m31.615 58.923.385.16.385-.16c7.663-3.193 12.615-10.62 12.615-18.923v-6.28l-3.84.959c-2.926.729-6.047.193-8.601-1.508l-.598-.347-.558.372c-2.499 1.665-5.639 2.211-8.562 1.483l-3.841-.96v6.281c0 8.303 4.952 15.73 12.615 18.923zm-10.615-22.642 1.355.339c3.259.812 6.735.299 9.643-1.437 2.869 1.724 6.375 2.255 9.646 1.436l1.356-.339v3.72c0 7.353-4.304 13.945-11 16.912-6.696-2.967-11-9.559-11-16.912z"/><path d="m48.237 12.025-3.773-1.257 1.465-6.346c.047-.207.071-.417.071-.626 0-1.542-1.254-2.796-2.795-2.796-.986 0-1.941.289-2.761.836l-.75.5c-1.303.869-3.084.869-4.387 0l-.92-.613c-1.419-.945-3.353-.945-4.773 0l-.922.615c-1.304.866-3.083.867-4.384-.002l-.75-.5c-.821-.547-1.775-.836-2.762-.836-1.542 0-2.796 1.254-2.796 2.796 0 .209.024.419.071.628l.955 4.137-3.112 3.111c-.581.581-.914 1.385-.914 2.207 0 1.271.766 2.362 1.858 2.849l-.944.944c-.581.581-.914 1.385-.914 2.207 0 1.395.926 2.565 2.191 2.964-.118.332-.191.68-.191 1.036 0 1.721 1.4 3.121 3.121 3.121.834 0 1.618-.324 2.207-.914l.603-.603.812 3.517h-20.743c-1.103 0-2 .897-2 2v30c0 1.103.897 2 2 2h58c1.103 0 2-.897 2-2v-30c0-1.103-.897-2-2-2h-20.743l.829-3.591c2.237 1.039 4.683 1.591 7.159 1.591 1.236 0 2.476-.136 3.685-.404l4.358-.969c1.871-.416 3.793-.627 5.712-.627h1v-12h-8.754c-2.046 0-4.067-.328-6.009-.975zm-30.116 2.975c-.618 0-1.121-.503-1.121-1.121 0-.295.12-.584.328-.793l2.228-2.228.595 2.577-1.238 1.238c-.212.211-.492.327-.792.327zm-.793 4.086 2.998-2.999c.001-.001.001-.001.002-.001l.353-.353.595 2.577-2.362 2.362c-.212.212-.493.328-.793.328-.618 0-1.121-.503-1.121-1.121 0-.295.12-.584.328-.793zm3.586 5.586c-.212.212-.493.328-.793.328-.618 0-1.121-.503-1.121-1.121 0-.295.12-.584.328-.793l.999-.999s0 0 .001-.001l1.478-1.478.595 2.577zm40.086 36.328h-58v-30h58zm-35.204-32-5.775-25.023c-.014-.061-.021-.122-.021-.181 0-.439.358-.796.797-.796.589 0 1.16.173 1.65.5l.75.5c1.96 1.308 4.639 1.311 6.603.002l.922-.615c.761-.506 1.795-.506 2.555 0l.92.613c1.962 1.309 4.645 1.309 6.606 0l.75-.5c.49-.327 1.062-.5 1.652-.5.438 0 .795.357.795.796 0 .06-.007.12-.021.179l-2.965 12.848c-.522-.093-1.039-.219-1.546-.388l-3.203-1.066c-.73-.245-1.493-.369-2.266-.369-2.756 0-4.999 2.243-4.999 5 0 1.654 1.346 3 3 3h1.813c1.906 0 3.787.499 5.443 1.442l-1.052 4.558zm35.204-5.982c-1.731.062-3.458.281-5.146.656l-4.358.969c-3.614.805-7.48.216-10.686-1.617l-.547-.312c-1.961-1.122-4.191-1.714-6.45-1.714h-1.813c-.551 0-1-.449-1-1.001 0-1.653 1.346-2.999 3-2.999.557 0 1.106.089 1.633.266l3.204 1.066c1.327.443 2.71.668 4.11.668h2.053v-2h-1.974l.987-4.275 3.592 1.197c2.145.716 4.38 1.078 6.641 1.078h6.754z"/><path d="m26 6.901h2v10.198h-2z" transform="matrix(.981 -.196 .196 .981 -1.829 5.528)"/><path d="m34.438 10h4.123v2h-4.123z" transform="matrix(.242 -.97 .97 .242 16.988 43.749)"/></g></svg>