<svg id="_x33_0" enable-background="new 0 0 64 64" height="512" viewBox="0 0 64 64" width="512" xmlns="http://www.w3.org/2000/svg"><g><g><path d="m12 7v11h-2c-1.1 0-2 .9-2 2 0 .55.22 1.05.59 1.41.36.37.86.59 1.41.59-1.1 0-2 .9-2 2 0 .55.22 1.05.59 1.41.36.37.86.59 1.41.59h-8v-19c0-1.38.56-2.63 1.46-3.54.91-.9 2.16-1.46 3.54-1.46 2.76 0 5 2.24 5 5z" fill="#37bc9b"/><g fill="#fcd770"><path d="m8 28c0 .55.22 1.05.59 1.41.36.37.86.59 1.41.59-1.1 0-2 .9-2 2h-4c-1.1 0-2-.9-2-2v-4h8c-1.1 0-2 .9-2 2z"/><path d="m44 55.4v4.6c0 1.1-.9 2-2 2h-2v-6.02c1.35-.06 2.69-.25 4-.58z"/><path d="m32 56h4v6h-4z"/><path d="m28 56h4v6h-4z"/><path d="m16 56h4v6h-4z"/><path d="m20 56h4v6h-4z"/><path d="m40 55.98v6.02h-4v-6h3.15c.28 0 .57-.01.85-.02z"/><path d="m24 56h4v6h-4z"/><path d="m16 56v6h-2c-1.1 0-2-.9-2-2v-4z"/></g><path d="m24 52h-4c-1.1 0-2-.9-2-2 0-.55.22-1.05.59-1.41.36-.37.86-.59 1.41-.59h-2c-1.1 0-2-.9-2-2 0-.55.22-1.05.59-1.41.36-.37.86-.59 1.41-.59h2c-.55 0-1.05-.22-1.41-.59-.37-.36-.59-.86-.59-1.41 0-1.1.9-2 2-2h16.35c.91 0 1.65-.74 1.65-1.65 0-.78-.55-1.46-1.33-1.62l-5.51-1.1c-.92-.19-1.71-.68-2.27-1.36-.56-.69-.89-1.55-.89-2.49 0-.98.8-1.78 1.78-1.78.15 0 .29.02.43.05 2.52.63 5.09 1.07 7.68 1.3l3.57.33c.88.08 1.74.31 2.54.66 1.23.55 2.31 1.41 3.13 2.51l.87 1.15h14v18h-12.84c-.77 0-1.52.15-2.23.43l-.35.14c-.84.33-1.71.61-2.58.83-1.31.33-2.65.52-4 .58-.28.01-.57.02-.85.02h-3.15-4-4-4c-1.1 0-2-.9-2-2 0-.55.22-1.05.59-1.41.36-.37.86-.59 1.41-.59z" fill="#f5e0cd"/><path d="m7 2h32c2.76 0 5 2.24 5 5v13.34 12c-.8-.35-1.66-.58-2.54-.66l-3.57-.33c-2.59-.23-5.16-.67-7.68-1.3-.14-.03-.28-.05-.43-.05-.98 0-1.78.8-1.78 1.78 0 .94.33 1.8.89 2.49.56.68 1.35 1.17 2.27 1.36l5.51 1.1c.78.16 1.33.84 1.33 1.62 0 .91-.74 1.65-1.65 1.65h-16.35c-1.1 0-2 .9-2 2 0 .55.22 1.05.59 1.41.36.37.86.59 1.41.59h-2c-.55 0-1.05.22-1.41.59-.37.36-.59.86-.59 1.41 0 1.1.9 2 2 2h2c-.55 0-1.05.22-1.41.59-.37.36-.59.86-.59 1.41 0 1.1.9 2 2 2h4c-.55 0-1.05.22-1.41.59-.37.36-.59.86-.59 1.41 0 1.1.9 2 2 2h-4-4-4v-22-4-4-4-4-11c0-2.76-2.24-5-5-5z" fill="#5cd6b3"/><path d="m12 30v4h-2c-.55 0-1.05-.22-1.41-.59-.37-.36-.59-.86-.59-1.41 0-1.1.9-2 2-2z" fill="#f5e0cd"/><path d="m12 26v4h-2c-.55 0-1.05-.22-1.41-.59-.37-.36-.59-.86-.59-1.41 0-1.1.9-2 2-2z" fill="#f5e0cd"/><path d="m12 22v4h-2c-.55 0-1.05-.22-1.41-.59-.37-.36-.59-.86-.59-1.41 0-1.1.9-2 2-2z" fill="#f5e0cd"/><path d="m12 18v4h-2c-.55 0-1.05-.22-1.41-.59-.37-.36-.59-.86-.59-1.41 0-1.1.9-2 2-2z" fill="#f5e0cd"/><path d="m62 26v10h-14l-.87-1.15c-.82-1.1-1.9-1.96-3.13-2.51v-12c1.23.55 2.31 1.41 3.13 2.51l.87 1.15z" fill="#f5e0cd"/></g><path d="m47.934 22.245c-.781-1.041-1.792-1.888-2.934-2.505v-12.74c0-3.309-2.691-6-6-6h-32c-3.309 0-6 2.691-6 6v23c0 1.654 1.346 3 3 3h3.184c.414 1.161 1.514 2 2.816 2h1v25c0 1.654 1.346 3 3 3h28c1.654 0 3-1.346 3-3v-3.834c.657-.191 1.307-.413 1.948-.669l.35-.14c.594-.237 1.219-.357 1.857-.357h13.845v-29.867l-14.448-2.064zm-4.934-15.245v23.948c-.474-.124-.957-.221-1.451-.266l-3.57-.325c-2.53-.23-5.062-.659-7.524-1.275-.223-.054-.449-.082-.675-.082-1.533 0-2.78 1.248-2.78 2.781 0 2.341 1.666 4.373 3.96 4.831l5.52 1.104c.301.06.52.327.52.636 0 .357-.291.648-.648.648h-16.352c-1.654 0-3 1.346-3 3 0 .395.081.77.22 1.116-1.275.345-2.22 1.501-2.22 2.884s.945 2.539 2.22 2.884c-.139.346-.22.721-.22 1.116 0 1.654 1.346 3 3 3h1.184c-.112.314-.184.648-.184 1s.072.686.184 1h-8.184v-48c0-1.538-.586-2.937-1.54-4h27.54c2.206 0 4 1.794 4 4zm-4 54h-2v-4h2zm-4 0h-2v-4h2zm-4 0h-2v-4h2zm-4 0h-2v-4h2zm-8-4v4h-2v-4zm2 0h2v4h-2zm-12-37c0-.551.448-1 1-1h1v2h-1c-.552 0-1-.449-1-1zm0 4c0-.551.448-1 1-1h1v2h-1c-.552 0-1-.449-1-1zm0 4c0-.551.448-1 1-1h1v2h-1c-.552 0-1-.449-1-1zm-2-25c2.206 0 4 1.794 4 4v10h-1c-1.654 0-3 1.346-3 3 0 .771.301 1.468.78 2-.479.532-.78 1.229-.78 2 0 .352.072.686.184 1h-4.184v-18c0-2.206 1.794-4 4-4zm-4 27v-3h4.184c-.112.314-.184.648-.184 1 0 .771.301 1.468.78 2-.261.289-.463.626-.596 1h-3.184c-.552 0-1-.449-1-1zm7 3c-.552 0-1-.449-1-1s.448-1 1-1h1v2zm3 27v-3h2v4h-1c-.552 0-1-.448-1-1zm30 0c0 .552-.448 1-1 1h-1v-4.088c.672-.059 1.339-.149 2-.273zm6.155-7c-.895 0-1.769.168-2.601.501l-.35.14c-2.253.902-4.627 1.359-7.056 1.359h-15.148c-.552 0-1-.448-1-1s.448-1 1-1h9v-2h-13c-.552 0-1-.448-1-1s.448-1 1-1h13v-2h-15c-.552 0-1-.448-1-1s.448-1 1-1h15v-2h-13c-.552 0-1-.448-1-1s.448-1 1-1h16.352c1.46 0 2.648-1.188 2.648-2.648 0-1.259-.896-2.352-2.129-2.597l-5.52-1.104c-1.362-.273-2.351-1.479-2.351-2.87 0-.494.484-.879.971-.757 2.561.641 5.194 1.086 7.826 1.326l3.57.325c1.97.179 3.779 1.188 4.967 2.77l1.166 1.555h13.5v16zm11.845-18h-12.5l-.566-.756c-.79-1.053-1.797-1.903-2.934-2.515v-9.624c.5.385.953.833 1.334 1.341l1.114 1.486 13.552 1.935z"/><path d="m15 17h2v8h-2z"/><path d="m21 9h2v6h-2z"/><path d="m29 5h2v6h-2z"/><path d="m35 13h2v6h-2z"/><path d="m25 21h2v6h-2z"/><path d="m21 31h2v6h-2z"/><path d="m39 23h2v2h-2z"/><path d="m17 5h2v2h-2z"/></g></svg>